<?xml version="1.0" encoding="UTF-8"?><svg xmlns="http://www.w3.org/2000/svg" xmlns:xlink="http://www.w3.org/1999/xlink" fill-opacity="1" color-rendering="auto" color-interpolation="auto" text-rendering="auto" stroke="black" stroke-linecap="square" width="736" stroke-miterlimit="10" shape-rendering="auto" stroke-opacity="1" fill="black" stroke-dasharray="none" font-weight="normal" stroke-width="1" height="536" font-family="'Dialog'" font-style="normal" stroke-linejoin="miter" font-size="12px" stroke-dashoffset="0" image-rendering="auto">
  <!--Generated by ySVG 2.5-->
  <defs id="genericDefs"/>
  <g>
    <defs id="defs1">
      <linearGradient x1="160" gradientUnits="userSpaceOnUse" x2="270" y1="78.6832" y2="132.6832" id="linearGradient1" spreadMethod="reflect">
        <stop stop-opacity="1" stop-color="rgb(232,238,247)" offset="0%"/>
        <stop stop-opacity="1" stop-color="rgb(183,201,227)" offset="100%"/>
      </linearGradient>
      <linearGradient x1="507" gradientUnits="userSpaceOnUse" x2="636" y1="219" y2="273" id="linearGradient2" spreadMethod="reflect">
        <stop stop-opacity="1" stop-color="rgb(232,238,247)" offset="0%"/>
        <stop stop-opacity="1" stop-color="rgb(183,201,227)" offset="100%"/>
      </linearGradient>
      <linearGradient x1="520.5" gradientUnits="userSpaceOnUse" x2="622.5" y1="412.5" y2="471.5" id="linearGradient3" spreadMethod="reflect">
        <stop stop-opacity="1" stop-color="rgb(232,238,247)" offset="0%"/>
        <stop stop-opacity="1" stop-color="rgb(183,201,227)" offset="100%"/>
      </linearGradient>
      <linearGradient x1="280" gradientUnits="userSpaceOnUse" x2="447" y1="226" y2="266" id="linearGradient4" spreadMethod="reflect">
        <stop stop-opacity="1" stop-color="rgb(232,238,247)" offset="0%"/>
        <stop stop-opacity="1" stop-color="rgb(183,201,227)" offset="100%"/>
      </linearGradient>
      <linearGradient x1="244" gradientUnits="userSpaceOnUse" x2="483" y1="403.5" y2="480.5" id="linearGradient5" spreadMethod="reflect">
        <stop stop-opacity="1" stop-color="rgb(232,238,247)" offset="0%"/>
        <stop stop-opacity="1" stop-color="rgb(183,201,227)" offset="100%"/>
      </linearGradient>
      <linearGradient x1="451" gradientUnits="userSpaceOnUse" x2="691" y1="510.5" y2="572.5" id="linearGradient6" spreadMethod="reflect">
        <stop stop-opacity="1" stop-color="rgb(232,238,247)" offset="0%"/>
        <stop stop-opacity="1" stop-color="rgb(183,201,227)" offset="100%"/>
      </linearGradient>
      <linearGradient x1="507" gradientUnits="userSpaceOnUse" x2="636" y1="300" y2="354" id="linearGradient7" spreadMethod="reflect">
        <stop stop-opacity="1" stop-color="rgb(232,238,247)" offset="0%"/>
        <stop stop-opacity="1" stop-color="rgb(183,201,227)" offset="100%"/>
      </linearGradient>
      <linearGradient x1="721" gradientUnits="userSpaceOnUse" x2="865" y1="499.5" y2="583.5" id="linearGradient8" spreadMethod="reflect">
        <stop stop-opacity="1" stop-color="rgb(232,238,247)" offset="0%"/>
        <stop stop-opacity="1" stop-color="rgb(183,201,227)" offset="100%"/>
      </linearGradient>
      <linearGradient x1="300" gradientUnits="userSpaceOnUse" x2="487" y1="78.6832" y2="132.6832" id="linearGradient9" spreadMethod="reflect">
        <stop stop-opacity="1" stop-color="rgb(232,238,247)" offset="0%"/>
        <stop stop-opacity="1" stop-color="rgb(183,201,227)" offset="100%"/>
      </linearGradient>
      <clipPath clipPathUnits="userSpaceOnUse" id="clipPath1">
        <path d="M0 0 L736 0 L736 536 L0 536 L0 0 Z"/>
      </clipPath>
      <clipPath clipPathUnits="userSpaceOnUse" id="clipPath2">
        <path d="M144 63 L880 63 L880 599 L144 599 L144 63 Z"/>
      </clipPath>
      <clipPath clipPathUnits="userSpaceOnUse" id="clipPath3">
        <path d="M302 80.6832 L302 130.6832 L485 130.6832 L485 80.6832 Z"/>
      </clipPath>
    </defs>
    <g fill="white" text-rendering="geometricPrecision" shape-rendering="geometricPrecision" transform="translate(-144,-63)" stroke="white">
      <rect x="144" width="736" height="536" y="63" clip-path="url(#clipPath2)" stroke="none"/>
    </g>
    <g fill="url(#linearGradient1)" text-rendering="geometricPrecision" shape-rendering="geometricPrecision" transform="matrix(1,0,0,1,-144,-63)" stroke="url(#linearGradient1)">
      <path d="M160 78.6832 L270 78.6832 L270 125.9332 Q242.5 112.4332 215 125.9332 Q187.5 139.4332 160 125.9332 Z" stroke="none" clip-path="url(#clipPath2)"/>
    </g>
    <g text-rendering="geometricPrecision" stroke-miterlimit="1.45" shape-rendering="geometricPrecision" transform="matrix(1,0,0,1,-144,-63)" stroke-linecap="butt">
      <path fill="none" d="M160 78.6832 L270 78.6832 L270 125.9332 Q242.5 112.4332 215 125.9332 Q187.5 139.4332 160 125.9332 Z" clip-path="url(#clipPath2)"/>
      <text x="161.6328" xml:space="preserve" y="103.0465" clip-path="url(#clipPath2)" font-family="sans-serif" stroke="none">osvr_skeleton.blend</text>
      <text x="172.3145" xml:space="preserve" y="117.7477" clip-path="url(#clipPath2)" font-family="sans-serif" stroke="none">(Blender Model)</text>
    </g>
    <g fill="url(#linearGradient2)" text-rendering="geometricPrecision" shape-rendering="geometricPrecision" transform="matrix(1,0,0,1,-144,-63)" stroke="url(#linearGradient2)">
      <path d="M507 219 L636 219 L636 266.25 Q603.75 252.75 571.5 266.25 Q539.25 279.75 507 266.25 Z" stroke="none" clip-path="url(#clipPath2)"/>
    </g>
    <g text-rendering="geometricPrecision" stroke-miterlimit="1.45" shape-rendering="geometricPrecision" transform="matrix(1,0,0,1,-144,-63)" stroke-linecap="butt">
      <path fill="none" d="M507 219 L636 219 L636 266.25 Q603.75 252.75 571.5 266.25 Q539.25 279.75 507 266.25 Z" clip-path="url(#clipPath2)"/>
      <text x="514.4648" xml:space="preserve" y="243.3633" clip-path="url(#clipPath2)" font-family="sans-serif" stroke="none">../osvr_skeleton1.png</text>
      <text x="518.4697" xml:space="preserve" y="258.0645" clip-path="url(#clipPath2)" font-family="sans-serif" stroke="none">(right hand closeup)</text>
    </g>
    <g fill="url(#linearGradient3)" text-rendering="geometricPrecision" shape-rendering="geometricPrecision" transform="matrix(1,0,0,1,-144,-63)" stroke="url(#linearGradient3)">
      <path d="M520.5 412.5 L622.5 412.5 L622.5 464.125 Q597 449.375 571.5 464.125 Q546 478.875 520.5 464.125 Z" stroke="none" clip-path="url(#clipPath2)"/>
    </g>
    <g text-rendering="geometricPrecision" stroke-miterlimit="1.45" shape-rendering="geometricPrecision" transform="matrix(1,0,0,1,-144,-63)" stroke-linecap="butt">
      <path fill="none" d="M520.5 412.5 L622.5 412.5 L622.5 464.125 Q597 449.375 571.5 464.125 Q546 478.875 520.5 464.125 Z" clip-path="url(#clipPath2)"/>
      <text x="523.1396" xml:space="preserve" y="439.3633" clip-path="url(#clipPath2)" font-family="sans-serif" stroke="none">osvr_skeleton.x3d</text>
      <text x="534.4863" xml:space="preserve" y="454.0645" clip-path="url(#clipPath2)" font-family="sans-serif" stroke="none">(intermediate)</text>
    </g>
    <g fill="url(#linearGradient4)" text-rendering="geometricPrecision" shape-rendering="geometricPrecision" transform="matrix(1,0,0,1,-144,-63)" stroke="url(#linearGradient4)">
      <path d="M280 226 L447 226 L447 266 L280 266 Z" stroke="none" clip-path="url(#clipPath2)"/>
    </g>
    <g text-rendering="geometricPrecision" stroke-miterlimit="1.45" shape-rendering="geometricPrecision" transform="matrix(1,0,0,1,-144,-63)" stroke-linecap="butt">
      <path fill="none" d="M280 226 L447 226 L447 266 L280 266 Z" clip-path="url(#clipPath2)"/>
      <text x="334.4814" xml:space="preserve" y="243.3633" clip-path="url(#clipPath2)" font-family="sans-serif" stroke="none">In Blender,</text>
      <text x="286.959" xml:space="preserve" y="258.0645" clip-path="url(#clipPath2)" font-family="sans-serif" stroke="none">Render -&gt; Render Animation</text>
    </g>
    <g fill="url(#linearGradient5)" text-rendering="geometricPrecision" shape-rendering="geometricPrecision" transform="matrix(1,0,0,1,-144,-63)" stroke="url(#linearGradient5)">
      <path d="M244 403.5 L483 403.5 L483 480.5 L244 480.5 Z" stroke="none" clip-path="url(#clipPath2)"/>
    </g>
    <g text-rendering="geometricPrecision" stroke-miterlimit="1.45" shape-rendering="geometricPrecision" transform="matrix(1,0,0,1,-144,-63)" stroke-linecap="butt">
      <path fill="none" d="M244 403.5 L483 403.5 L483 480.5 L244 480.5 Z" clip-path="url(#clipPath2)"/>
      <text x="334.4814" xml:space="preserve" y="424.6621" clip-path="url(#clipPath2)" font-family="sans-serif" stroke="none">In Blender,</text>
      <text x="307.1475" xml:space="preserve" y="439.3633" clip-path="url(#clipPath2)" font-family="sans-serif" stroke="none">File -&gt; Export -&gt; X3D</text>
      <text x="297.1338" xml:space="preserve" y="454.0645" clip-path="url(#clipPath2)" font-family="sans-serif" stroke="none">with (only) these options:</text>
      <text x="279.4736" xml:space="preserve" y="468.7656" clip-path="url(#clipPath2)" font-family="sans-serif" stroke="none">z-forward, y-up, apply-modifiers</text>
    </g>
    <g fill="url(#linearGradient6)" text-rendering="geometricPrecision" shape-rendering="geometricPrecision" transform="matrix(1,0,0,1,-144,-63)" stroke="url(#linearGradient6)">
      <rect x="451" width="240" height="62" y="510.5" clip-path="url(#clipPath2)" stroke="none"/>
    </g>
    <g text-rendering="geometricPrecision" stroke-miterlimit="1.45" shape-rendering="geometricPrecision" transform="matrix(1,0,0,1,-144,-63)" stroke-linecap="butt">
      <rect fill="none" x="451" width="240" height="62" y="510.5" clip-path="url(#clipPath2)"/>
      <path fill="none" d="M461 510.5 L461 572.5 M681 510.5 L681 572.5 M461 510.5 Z" clip-path="url(#clipPath2)"/>
      <text x="476.708" xml:space="preserve" y="531.5127" clip-path="url(#clipPath2)" font-family="sans-serif" stroke="none">Run "generate-html-from-x3d.cmd":</text>
      <text x="497.6377" xml:space="preserve" y="546.2139" clip-path="url(#clipPath2)" font-family="sans-serif" stroke="none">removes old HTML file and </text>
      <text x="469.627" xml:space="preserve" y="560.915" clip-path="url(#clipPath2)" font-family="sans-serif" stroke="none">invokes AOPT tool from InstantReality</text>
    </g>
    <g fill="url(#linearGradient7)" text-rendering="geometricPrecision" shape-rendering="geometricPrecision" transform="matrix(1,0,0,1,-144,-63)" stroke="url(#linearGradient7)">
      <path d="M507 300 L636 300 L636 347.25 Q603.75 333.75 571.5 347.25 Q539.25 360.75 507 347.25 Z" stroke="none" clip-path="url(#clipPath2)"/>
    </g>
    <g text-rendering="geometricPrecision" stroke-miterlimit="1.45" shape-rendering="geometricPrecision" transform="matrix(1,0,0,1,-144,-63)" stroke-linecap="butt">
      <path fill="none" d="M507 300 L636 300 L636 347.25 Q603.75 333.75 571.5 347.25 Q539.25 360.75 507 347.25 Z" clip-path="url(#clipPath2)"/>
      <text x="514.4648" xml:space="preserve" y="324.3633" clip-path="url(#clipPath2)" font-family="sans-serif" stroke="none">../osvr_skeleton2.png</text>
      <text x="515.1387" xml:space="preserve" y="339.0645" clip-path="url(#clipPath2)" font-family="sans-serif" stroke="none">(whole body anterior)</text>
    </g>
    <g fill="url(#linearGradient8)" text-rendering="geometricPrecision" shape-rendering="geometricPrecision" transform="matrix(1,0,0,1,-144,-63)" stroke="url(#linearGradient8)">
      <path d="M721 499.5 L865 499.5 L865 573 Q829 552 793 573 Q757 594 721 573 Z" stroke="none" clip-path="url(#clipPath2)"/>
    </g>
    <g text-rendering="geometricPrecision" stroke-miterlimit="1.45" shape-rendering="geometricPrecision" transform="matrix(1,0,0,1,-144,-63)" stroke-linecap="butt">
      <path fill="none" d="M721 499.5 L865 499.5 L865 573 Q829 552 793 573 Q757 594 721 573 Z" clip-path="url(#clipPath2)"/>
      <text x="742.9785" xml:space="preserve" y="531.5127" clip-path="url(#clipPath2)" font-family="sans-serif" stroke="none">osvr_skeleton.html</text>
      <text x="732.3115" xml:space="preserve" y="546.2139" clip-path="url(#clipPath2)" font-family="sans-serif" stroke="none">(browser-based viewer</text>
      <text x="732.2998" xml:space="preserve" y="560.915" clip-path="url(#clipPath2)" font-family="sans-serif" stroke="none">with model embedded)</text>
    </g>
    <g fill="url(#linearGradient9)" text-rendering="geometricPrecision" shape-rendering="geometricPrecision" transform="matrix(1,0,0,1,-144,-63)" stroke="url(#linearGradient9)">
      <rect x="300" width="187" height="54" y="78.6832" clip-path="url(#clipPath2)" stroke="none"/>
    </g>
    <g text-rendering="geometricPrecision" stroke-miterlimit="1.45" shape-rendering="geometricPrecision" transform="matrix(1,0,0,1,-144,-63)" stroke-linecap="butt">
      <path fill="none" d="M323.375 78.6832 L300 78.6832 L300 132.6832 L323.375 132.6832" clip-path="url(#clipPath2)"/>
      <path stroke-miterlimit="10" d="M308.2295 92.7477 L308.2295 85.1695 L305.4014 85.1695 L305.4014 84.1539 L312.2139 84.1539 L312.2139 85.1695 L309.3701 85.1695 L309.3701 92.7477 L308.2295 92.7477 ZM313.2471 92.7477 L313.2471 84.1539 L314.2939 84.1539 L314.2939 87.232 Q315.0283 86.3883 316.1533 86.3883 Q316.8564 86.3883 317.3643 86.6617 Q317.8721 86.9352 318.0908 87.4117 Q318.3096 87.8883 318.3096 88.8102 L318.3096 92.7477 L317.2627 92.7477 L317.2627 88.8102 Q317.2627 88.0133 316.9189 87.6539 Q316.5752 87.2945 315.9502 87.2945 Q315.4814 87.2945 315.0674 87.5367 Q314.6533 87.7789 314.4736 88.193 Q314.2939 88.607 314.2939 89.3414 L314.2939 92.7477 L313.2471 92.7477 ZM319.9209 85.3727 L319.9209 84.1539 L320.9834 84.1539 L320.9834 85.3727 L319.9209 85.3727 ZM319.9209 92.7477 L319.9209 86.5289 L320.9834 86.5289 L320.9834 92.7477 L319.9209 92.7477 ZM322.165 90.8883 L323.1963 90.732 Q323.29 91.357 323.6885 91.6852 Q324.0869 92.0133 324.8213 92.0133 Q325.54 92.0133 325.8916 91.7242 Q326.2432 91.4352 326.2432 91.0289 Q326.2432 90.6695 325.9307 90.4664 Q325.7119 90.3258 324.8525 90.107 Q323.6963 89.8102 323.251 89.5992 Q322.8057 89.3883 322.5713 89.0133 Q322.3369 88.6383 322.3369 88.1695 Q322.3369 87.7633 322.5244 87.4039 Q322.7119 87.0445 323.04 86.8102 Q323.29 86.6383 323.7119 86.5133 Q324.1338 86.3883 324.6338 86.3883 Q325.3525 86.3883 325.9072 86.5992 Q326.4619 86.8102 326.7275 87.1695 Q326.9932 87.5289 327.0869 88.1227 L326.0557 88.2633 Q325.9932 87.7945 325.6572 87.5211 Q325.3213 87.2477 324.6963 87.2477 Q323.9775 87.2477 323.665 87.4898 Q323.3525 87.732 323.3525 88.0602 Q323.3525 88.2633 323.4775 88.4195 Q323.6182 88.5914 323.8838 88.7008 Q324.04 88.7633 324.8213 88.9664 Q325.9463 89.2789 326.3838 89.4664 Q326.8213 89.6539 327.0713 90.0133 Q327.3213 90.3727 327.3213 90.9195 Q327.3213 91.4508 327.0166 91.9117 Q326.7119 92.3727 326.1338 92.6305 Q325.5557 92.8883 324.8213 92.8883 Q323.6025 92.8883 322.9697 92.3805 Q322.3369 91.8727 322.165 90.8883 ZM331.9209 85.3727 L331.9209 84.1539 L332.9834 84.1539 L332.9834 85.3727 L331.9209 85.3727 ZM331.9209 92.7477 L331.9209 86.5289 L332.9834 86.5289 L332.9834 92.7477 L331.9209 92.7477 ZM334.165 90.8883 L335.1963 90.732 Q335.29 91.357 335.6885 91.6852 Q336.0869 92.0133 336.8213 92.0133 Q337.54 92.0133 337.8916 91.7242 Q338.2432 91.4352 338.2432 91.0289 Q338.2432 90.6695 337.9307 90.4664 Q337.7119 90.3258 336.8525 90.107 Q335.6963 89.8102 335.251 89.5992 Q334.8057 89.3883 334.5713 89.0133 Q334.3369 88.6383 334.3369 88.1695 Q334.3369 87.7633 334.5244 87.4039 Q334.7119 87.0445 335.04 86.8102 Q335.29 86.6383 335.7119 86.5133 Q336.1338 86.3883 336.6338 86.3883 Q337.3525 86.3883 337.9072 86.5992 Q338.4619 86.8102 338.7275 87.1695 Q338.9932 87.5289 339.0869 88.1227 L338.0557 88.2633 Q337.9932 87.7945 337.6572 87.5211 Q337.3213 87.2477 336.6963 87.2477 Q335.9775 87.2477 335.665 87.4898 Q335.3525 87.732 335.3525 88.0602 Q335.3525 88.2633 335.4775 88.4195 Q335.6182 88.5914 335.8838 88.7008 Q336.04 88.7633 336.8213 88.9664 Q337.9463 89.2789 338.3838 89.4664 Q338.8213 89.6539 339.0713 90.0133 Q339.3213 90.3727 339.3213 90.9195 Q339.3213 91.4508 339.0166 91.9117 Q338.7119 92.3727 338.1338 92.6305 Q337.5557 92.8883 336.8213 92.8883 Q335.6025 92.8883 334.9697 92.3805 Q334.3369 91.8727 334.165 90.8883 ZM346.2178 91.8102 L346.374 92.732 Q345.9209 92.8258 345.5771 92.8258 Q344.999 92.8258 344.6865 92.6461 Q344.374 92.4664 344.2412 92.1695 Q344.1084 91.8727 344.1084 90.9195 L344.1084 87.3414 L343.3428 87.3414 L343.3428 86.5289 L344.1084 86.5289 L344.1084 84.982 L345.1553 84.357 L345.1553 86.5289 L346.2178 86.5289 L346.2178 87.3414 L345.1553 87.3414 L345.1553 90.982 Q345.1553 91.4352 345.21 91.5602 Q345.2646 91.6852 345.3896 91.7633 Q345.5146 91.8414 345.749 91.8414 Q345.9365 91.8414 346.2178 91.8102 ZM347.2549 92.7477 L347.2549 84.1539 L348.3018 84.1539 L348.3018 87.232 Q349.0361 86.3883 350.1611 86.3883 Q350.8643 86.3883 351.3721 86.6617 Q351.8799 86.9352 352.0986 87.4117 Q352.3174 87.8883 352.3174 88.8102 L352.3174 92.7477 L351.2705 92.7477 L351.2705 88.8102 Q351.2705 88.0133 350.9268 87.6539 Q350.583 87.2945 349.958 87.2945 Q349.4893 87.2945 349.0752 87.5367 Q348.6611 87.7789 348.4814 88.193 Q348.3018 88.607 348.3018 89.3414 L348.3018 92.7477 L347.2549 92.7477 ZM358.1787 90.7477 L359.2725 90.8727 Q359.0225 91.8258 358.3193 92.357 Q357.6162 92.8883 356.5381 92.8883 Q355.1787 92.8883 354.374 92.0445 Q353.5693 91.2008 353.5693 89.6852 Q353.5693 88.1227 354.3818 87.2555 Q355.1943 86.3883 356.4756 86.3883 Q357.7256 86.3883 358.5146 87.232 Q359.3037 88.0758 359.3037 89.6227 Q359.3037 89.7164 359.3037 89.9039 L354.6631 89.9039 Q354.7256 90.9352 355.2412 91.4742 Q355.7568 92.0133 356.5381 92.0133 Q357.1162 92.0133 357.5303 91.7086 Q357.9443 91.4039 358.1787 90.7477 ZM354.7256 89.0445 L358.1943 89.0445 Q358.1318 88.2477 357.8037 87.857 Q357.2881 87.2477 356.4912 87.2477 Q355.7568 87.2477 355.2646 87.732 Q354.7725 88.2164 354.7256 89.0445 ZM363.5146 90.8883 L364.5459 90.732 Q364.6396 91.357 365.0381 91.6852 Q365.4365 92.0133 366.1709 92.0133 Q366.8896 92.0133 367.2412 91.7242 Q367.5928 91.4352 367.5928 91.0289 Q367.5928 90.6695 367.2803 90.4664 Q367.0615 90.3258 366.2021 90.107 Q365.0459 89.8102 364.6006 89.5992 Q364.1553 89.3883 363.9209 89.0133 Q363.6865 88.6383 363.6865 88.1695 Q363.6865 87.7633 363.874 87.4039 Q364.0615 87.0445 364.3896 86.8102 Q364.6396 86.6383 365.0615 86.5133 Q365.4834 86.3883 365.9834 86.3883 Q366.7021 86.3883 367.2568 86.5992 Q367.8115 86.8102 368.0771 87.1695 Q368.3428 87.5289 368.4365 88.1227 L367.4053 88.2633 Q367.3428 87.7945 367.0068 87.5211 Q366.6709 87.2477 366.0459 87.2477 Q365.3271 87.2477 365.0146 87.4898 Q364.7021 87.732 364.7021 88.0602 Q364.7021 88.2633 364.8271 88.4195 Q364.9678 88.5914 365.2334 88.7008 Q365.3896 88.7633 366.1709 88.9664 Q367.2959 89.2789 367.7334 89.4664 Q368.1709 89.6539 368.4209 90.0133 Q368.6709 90.3727 368.6709 90.9195 Q368.6709 91.4508 368.3662 91.9117 Q368.0615 92.3727 367.4834 92.6305 Q366.9053 92.8883 366.1709 92.8883 Q364.9521 92.8883 364.3193 92.3805 Q363.6865 91.8727 363.5146 90.8883 ZM369.5459 89.6383 Q369.5459 87.9039 370.499 87.0758 Q371.2959 86.3883 372.4521 86.3883 Q373.7334 86.3883 374.5537 87.2242 Q375.374 88.0602 375.374 89.5445 Q375.374 90.7477 375.0146 91.4352 Q374.6553 92.1227 373.96 92.5055 Q373.2646 92.8883 372.4521 92.8883 Q371.1553 92.8883 370.3506 92.0523 Q369.5459 91.2164 369.5459 89.6383 ZM370.624 89.6383 Q370.624 90.8258 371.1475 91.4195 Q371.6709 92.0133 372.4521 92.0133 Q373.249 92.0133 373.7646 91.4195 Q374.2803 90.8258 374.2803 89.607 Q374.2803 88.4508 373.7568 87.857 Q373.2334 87.2633 372.4521 87.2633 Q371.6709 87.2633 371.1475 87.8492 Q370.624 88.4352 370.624 89.6383 ZM380.6885 92.7477 L380.6885 91.8258 Q379.9541 92.8883 378.7041 92.8883 Q378.1572 92.8883 377.6807 92.6773 Q377.2041 92.4664 376.9697 92.1461 Q376.7354 91.8258 376.6416 91.357 Q376.5791 91.0602 376.5791 90.3727 L376.5791 86.5289 L377.6416 86.5289 L377.6416 89.982 Q377.6416 90.7945 377.7041 91.0914 Q377.7979 91.4977 378.1182 91.7398 Q378.4385 91.982 378.9229 91.982 Q379.3916 91.982 379.8057 91.7398 Q380.2197 91.4977 380.3994 91.0758 Q380.5791 90.6539 380.5791 89.857 L380.5791 86.5289 L381.626 86.5289 L381.626 92.7477 L380.6885 92.7477 ZM383.2686 92.7477 L383.2686 86.5289 L384.2217 86.5289 L384.2217 87.4664 Q384.5811 86.8102 384.8857 86.5992 Q385.1904 86.3883 385.5654 86.3883 Q386.0967 86.3883 386.6436 86.7164 L386.2842 87.7008 Q385.8936 87.4664 385.5186 87.4664 Q385.1592 87.4664 384.8857 87.6773 Q384.6123 87.8883 384.5029 88.2633 Q384.3154 88.8258 384.3154 89.482 L384.3154 92.7477 L383.2686 92.7477 ZM391.3428 90.4664 L392.374 90.607 Q392.2021 91.6695 391.499 92.2789 Q390.7959 92.8883 389.7803 92.8883 Q388.499 92.8883 387.7256 92.0523 Q386.9521 91.2164 386.9521 89.6539 Q386.9521 88.6539 387.2881 87.8961 Q387.624 87.1383 388.3037 86.7633 Q388.9834 86.3883 389.7959 86.3883 Q390.7959 86.3883 391.4443 86.8961 Q392.0928 87.4039 392.2803 88.357 L391.249 88.5133 Q391.1084 87.8883 390.7334 87.568 Q390.3584 87.2477 389.8271 87.2477 Q389.0303 87.2477 388.5303 87.818 Q388.0303 88.3883 388.0303 89.6227 Q388.0303 90.8883 388.5146 91.4508 Q388.999 92.0133 389.7646 92.0133 Q390.3896 92.0133 390.8037 91.6383 Q391.2178 91.2633 391.3428 90.4664 ZM397.5303 90.7477 L398.624 90.8727 Q398.374 91.8258 397.6709 92.357 Q396.9678 92.8883 395.8896 92.8883 Q394.5303 92.8883 393.7256 92.0445 Q392.9209 91.2008 392.9209 89.6852 Q392.9209 88.1227 393.7334 87.2555 Q394.5459 86.3883 395.8271 86.3883 Q397.0771 86.3883 397.8662 87.232 Q398.6553 88.0758 398.6553 89.6227 Q398.6553 89.7164 398.6553 89.9039 L394.0146 89.9039 Q394.0771 90.9352 394.5928 91.4742 Q395.1084 92.0133 395.8896 92.0133 Q396.4678 92.0133 396.8818 91.7086 Q397.2959 91.4039 397.5303 90.7477 ZM394.0771 89.0445 L397.5459 89.0445 Q397.4834 88.2477 397.1553 87.857 Q396.6396 87.2477 395.8428 87.2477 Q395.1084 87.2477 394.6162 87.732 Q394.124 88.2164 394.0771 89.0445 ZM407.3193 92.7477 L407.3193 91.9664 Q406.7256 92.8883 405.585 92.8883 Q404.835 92.8883 404.21 92.4742 Q403.585 92.0602 403.2412 91.3258 Q402.8975 90.5914 402.8975 89.6383 Q402.8975 88.7164 403.21 87.9508 Q403.5225 87.1852 404.1475 86.7867 Q404.7725 86.3883 405.5381 86.3883 Q406.1006 86.3883 406.5381 86.6227 Q406.9756 86.857 407.2568 87.232 L407.2568 84.1539 L408.3037 84.1539 L408.3037 92.7477 L407.3193 92.7477 ZM403.9912 89.6383 Q403.9912 90.8414 404.4912 91.4273 Q404.9912 92.0133 405.6787 92.0133 Q406.3662 92.0133 406.8506 91.4508 Q407.335 90.8883 407.335 89.732 Q407.335 88.4508 406.8428 87.857 Q406.3506 87.2633 405.6318 87.2633 Q404.9287 87.2633 404.46 87.8336 Q403.9912 88.4039 403.9912 89.6383 ZM409.5713 89.6383 Q409.5713 87.9039 410.5244 87.0758 Q411.3213 86.3883 412.4775 86.3883 Q413.7588 86.3883 414.5791 87.2242 Q415.3994 88.0602 415.3994 89.5445 Q415.3994 90.7477 415.04 91.4352 Q414.6807 92.1227 413.9854 92.5055 Q413.29 92.8883 412.4775 92.8883 Q411.1807 92.8883 410.376 92.0523 Q409.5713 91.2164 409.5713 89.6383 ZM410.6494 89.6383 Q410.6494 90.8258 411.1729 91.4195 Q411.6963 92.0133 412.4775 92.0133 Q413.2744 92.0133 413.79 91.4195 Q414.3057 90.8258 414.3057 89.607 Q414.3057 88.4508 413.7822 87.857 Q413.2588 87.2633 412.4775 87.2633 Q411.6963 87.2633 411.1729 87.8492 Q410.6494 88.4352 410.6494 89.6383 ZM420.6982 90.4664 L421.7295 90.607 Q421.5576 91.6695 420.8545 92.2789 Q420.1514 92.8883 419.1357 92.8883 Q417.8545 92.8883 417.0811 92.0523 Q416.3076 91.2164 416.3076 89.6539 Q416.3076 88.6539 416.6436 87.8961 Q416.9795 87.1383 417.6592 86.7633 Q418.3389 86.3883 419.1514 86.3883 Q420.1514 86.3883 420.7998 86.8961 Q421.4482 87.4039 421.6357 88.357 L420.6045 88.5133 Q420.4639 87.8883 420.0889 87.568 Q419.7139 87.2477 419.1826 87.2477 Q418.3857 87.2477 417.8857 87.818 Q417.3857 88.3883 417.3857 89.6227 Q417.3857 90.8883 417.8701 91.4508 Q418.3545 92.0133 419.1201 92.0133 Q419.7451 92.0133 420.1592 91.6383 Q420.5732 91.2633 420.6982 90.4664 ZM426.7139 92.7477 L426.7139 91.8258 Q425.9795 92.8883 424.7295 92.8883 Q424.1826 92.8883 423.7061 92.6773 Q423.2295 92.4664 422.9951 92.1461 Q422.7607 91.8258 422.667 91.357 Q422.6045 91.0602 422.6045 90.3727 L422.6045 86.5289 L423.667 86.5289 L423.667 89.982 Q423.667 90.7945 423.7295 91.0914 Q423.8232 91.4977 424.1436 91.7398 Q424.4639 91.982 424.9482 91.982 Q425.417 91.982 425.8311 91.7398 Q426.2451 91.4977 426.4248 91.0758 Q426.6045 90.6539 426.6045 89.857 L426.6045 86.5289 L427.6514 86.5289 L427.6514 92.7477 L426.7139 92.7477 ZM429.3096 92.7477 L429.3096 86.5289 L430.2471 86.5289 L430.2471 87.4039 Q430.5439 86.9352 431.0283 86.6617 Q431.5127 86.3883 432.1377 86.3883 Q432.8252 86.3883 433.2705 86.6695 Q433.7158 86.9508 433.8877 87.4664 Q434.6377 86.3883 435.8096 86.3883 Q436.7471 86.3883 437.2393 86.8961 Q437.7314 87.4039 437.7314 88.482 L437.7314 92.7477 L436.6846 92.7477 L436.6846 88.8258 Q436.6846 88.2008 436.583 87.9195 Q436.4814 87.6383 436.2158 87.4664 Q435.9502 87.2945 435.5752 87.2945 Q434.9189 87.2945 434.4893 87.732 Q434.0596 88.1695 434.0596 89.1383 L434.0596 92.7477 L432.9971 92.7477 L432.9971 88.7008 Q432.9971 87.9977 432.7393 87.6461 Q432.4814 87.2945 431.9033 87.2945 Q431.4502 87.2945 431.0752 87.5289 Q430.7002 87.7633 430.5283 88.2164 Q430.3564 88.6695 430.3564 89.5133 L430.3564 92.7477 L429.3096 92.7477 ZM443.5557 90.7477 L444.6494 90.8727 Q444.3994 91.8258 443.6963 92.357 Q442.9932 92.8883 441.915 92.8883 Q440.5557 92.8883 439.751 92.0445 Q438.9463 91.2008 438.9463 89.6852 Q438.9463 88.1227 439.7588 87.2555 Q440.5713 86.3883 441.8525 86.3883 Q443.1025 86.3883 443.8916 87.232 Q444.6807 88.0758 444.6807 89.6227 Q444.6807 89.7164 444.6807 89.9039 L440.04 89.9039 Q440.1025 90.9352 440.6182 91.4742 Q441.1338 92.0133 441.915 92.0133 Q442.4932 92.0133 442.9072 91.7086 Q443.3213 91.4039 443.5557 90.7477 ZM440.1025 89.0445 L443.5713 89.0445 Q443.5088 88.2477 443.1807 87.857 Q442.665 87.2477 441.8682 87.2477 Q441.1338 87.2477 440.6416 87.732 Q440.1494 88.2164 440.1025 89.0445 ZM445.9795 92.7477 L445.9795 86.5289 L446.917 86.5289 L446.917 87.4039 Q447.6045 86.3883 448.9014 86.3883 Q449.4639 86.3883 449.9404 86.5914 Q450.417 86.7945 450.6514 87.1227 Q450.8857 87.4508 450.9795 87.8883 Q451.0264 88.1852 451.0264 88.9195 L451.0264 92.7477 L449.9795 92.7477 L449.9795 88.9664 Q449.9795 88.3102 449.8545 87.9977 Q449.7295 87.6852 449.417 87.4898 Q449.1045 87.2945 448.6826 87.2945 Q448.0107 87.2945 447.5186 87.7242 Q447.0264 88.1539 447.0264 89.3414 L447.0264 92.7477 L445.9795 92.7477 ZM454.9502 91.8102 L455.1064 92.732 Q454.6533 92.8258 454.3096 92.8258 Q453.7314 92.8258 453.4189 92.6461 Q453.1064 92.4664 452.9736 92.1695 Q452.8408 91.8727 452.8408 90.9195 L452.8408 87.3414 L452.0752 87.3414 L452.0752 86.5289 L452.8408 86.5289 L452.8408 84.982 L453.8877 84.357 L453.8877 86.5289 L454.9502 86.5289 L454.9502 87.3414 L453.8877 87.3414 L453.8877 90.982 Q453.8877 91.4352 453.9424 91.5602 Q453.9971 91.6852 454.1221 91.7633 Q454.2471 91.8414 454.4814 91.8414 Q454.6689 91.8414 454.9502 91.8102 ZM463.3838 91.982 Q462.79 92.482 462.251 92.6852 Q461.7119 92.8883 461.0869 92.8883 Q460.0557 92.8883 459.5088 92.3883 Q458.9619 91.8883 458.9619 91.107 Q458.9619 90.6539 459.165 90.2711 Q459.3682 89.8883 459.7119 89.6617 Q460.0557 89.4352 460.4775 89.3258 Q460.7744 89.232 461.415 89.1539 Q462.6807 89.0133 463.29 88.7945 Q463.29 88.5758 463.29 88.5289 Q463.29 87.8727 462.9932 87.607 Q462.5869 87.2633 461.79 87.2633 Q461.0557 87.2633 460.6963 87.5211 Q460.3369 87.7789 460.165 88.4352 L459.1338 88.2945 Q459.2744 87.6383 459.6025 87.232 Q459.9307 86.8258 460.54 86.607 Q461.1494 86.3883 461.9463 86.3883 Q462.7432 86.3883 463.2432 86.5758 Q463.7432 86.7633 463.9775 87.0445 Q464.2119 87.3258 464.3057 87.7633 Q464.3525 88.0289 464.3525 88.732 L464.3525 90.1383 Q464.3525 91.607 464.4229 91.9977 Q464.4932 92.3883 464.6963 92.7477 L463.5869 92.7477 Q463.4307 92.4195 463.3838 91.982 ZM463.29 89.6227 Q462.7119 89.857 461.5713 90.0289 Q460.915 90.1227 460.6494 90.2398 Q460.3838 90.357 460.2354 90.5758 Q460.0869 90.7945 460.0869 91.0758 Q460.0869 91.4977 460.4072 91.7789 Q460.7275 92.0602 461.3369 92.0602 Q461.9463 92.0602 462.4229 91.7945 Q462.8994 91.5289 463.1182 91.0602 Q463.29 90.7008 463.29 90.0133 L463.29 89.6227 ZM465.9951 92.7477 L465.9951 86.5289 L466.9326 86.5289 L466.9326 87.4039 Q467.6201 86.3883 468.917 86.3883 Q469.4795 86.3883 469.9561 86.5914 Q470.4326 86.7945 470.667 87.1227 Q470.9014 87.4508 470.9951 87.8883 Q471.042 88.1852 471.042 88.9195 L471.042 92.7477 L469.9951 92.7477 L469.9951 88.9664 Q469.9951 88.3102 469.8701 87.9977 Q469.7451 87.6852 469.4326 87.4898 Q469.1201 87.2945 468.6982 87.2945 Q468.0264 87.2945 467.5342 87.7242 Q467.042 88.1539 467.042 89.3414 L467.042 92.7477 L465.9951 92.7477 ZM476.7002 92.7477 L476.7002 91.9664 Q476.1064 92.8883 474.9658 92.8883 Q474.2158 92.8883 473.5908 92.4742 Q472.9658 92.0602 472.6221 91.3258 Q472.2783 90.5914 472.2783 89.6383 Q472.2783 88.7164 472.5908 87.9508 Q472.9033 87.1852 473.5283 86.7867 Q474.1533 86.3883 474.9189 86.3883 Q475.4814 86.3883 475.9189 86.6227 Q476.3564 86.857 476.6377 87.232 L476.6377 84.1539 L477.6846 84.1539 L477.6846 92.7477 L476.7002 92.7477 ZM473.3721 89.6383 Q473.3721 90.8414 473.8721 91.4273 Q474.3721 92.0133 475.0596 92.0133 Q475.7471 92.0133 476.2314 91.4508 Q476.7158 90.8883 476.7158 89.732 Q476.7158 88.4508 476.2236 87.857 Q475.7314 87.2633 475.0127 87.2633 Q474.3096 87.2633 473.8408 87.8336 Q473.3721 88.4039 473.3721 89.6383 Z" clip-path="url(#clipPath3)" stroke-linecap="square" stroke="none"/>
      <path stroke-miterlimit="10" d="M322.8711 106.9039 L323.0273 107.8258 Q322.5742 107.9195 322.2305 107.9195 Q321.6523 107.9195 321.3398 107.7398 Q321.0273 107.5602 320.8945 107.2633 Q320.7617 106.9664 320.7617 106.0133 L320.7617 102.4352 L319.9961 102.4352 L319.9961 101.6227 L320.7617 101.6227 L320.7617 100.0758 L321.8086 99.4508 L321.8086 101.6227 L322.8711 101.6227 L322.8711 102.4352 L321.8086 102.4352 L321.8086 106.0758 Q321.8086 106.5289 321.8633 106.6539 Q321.918 106.7789 322.043 106.857 Q322.168 106.9352 322.4023 106.9352 Q322.5898 106.9352 322.8711 106.9039 ZM323.9082 107.8414 L323.9082 99.2477 L324.9551 99.2477 L324.9551 102.3258 Q325.6895 101.482 326.8145 101.482 Q327.5176 101.482 328.0254 101.7555 Q328.5332 102.0289 328.752 102.5055 Q328.9707 102.982 328.9707 103.9039 L328.9707 107.8414 L327.9238 107.8414 L327.9238 103.9039 Q327.9238 103.107 327.5801 102.7477 Q327.2363 102.3883 326.6113 102.3883 Q326.1426 102.3883 325.7285 102.6305 Q325.3145 102.8727 325.1348 103.2867 Q324.9551 103.7008 324.9551 104.4352 L324.9551 107.8414 L323.9082 107.8414 ZM334.832 105.8414 L335.9258 105.9664 Q335.6758 106.9195 334.9727 107.4508 Q334.2695 107.982 333.1914 107.982 Q331.832 107.982 331.0273 107.1383 Q330.2227 106.2945 330.2227 104.7789 Q330.2227 103.2164 331.0352 102.3492 Q331.8477 101.482 333.1289 101.482 Q334.3789 101.482 335.168 102.3258 Q335.957 103.1695 335.957 104.7164 Q335.957 104.8102 335.957 104.9977 L331.3164 104.9977 Q331.3789 106.0289 331.8945 106.568 Q332.4102 107.107 333.1914 107.107 Q333.7695 107.107 334.1836 106.8023 Q334.5977 106.4977 334.832 105.8414 ZM331.3789 104.1383 L334.8477 104.1383 Q334.7852 103.3414 334.457 102.9508 Q333.9414 102.3414 333.1445 102.3414 Q332.4102 102.3414 331.918 102.8258 Q331.4258 103.3102 331.3789 104.1383 ZM340.1992 104.732 Q340.1992 102.9977 341.1523 102.1695 Q341.9492 101.482 343.1055 101.482 Q344.3867 101.482 345.207 102.318 Q346.0273 103.1539 346.0273 104.6383 Q346.0273 105.8414 345.668 106.5289 Q345.3086 107.2164 344.6133 107.5992 Q343.918 107.982 343.1055 107.982 Q341.8086 107.982 341.0039 107.1461 Q340.1992 106.3102 340.1992 104.732 ZM341.2773 104.732 Q341.2773 105.9195 341.8008 106.5133 Q342.3242 107.107 343.1055 107.107 Q343.9023 107.107 344.418 106.5133 Q344.9336 105.9195 344.9336 104.7008 Q344.9336 103.5445 344.4102 102.9508 Q343.8867 102.357 343.1055 102.357 Q342.3242 102.357 341.8008 102.943 Q341.2773 103.5289 341.2773 104.732 ZM347.2637 107.8414 L347.2637 101.6227 L348.2012 101.6227 L348.2012 102.4977 Q348.8887 101.482 350.1855 101.482 Q350.748 101.482 351.2246 101.6852 Q351.7012 101.8883 351.9355 102.2164 Q352.1699 102.5445 352.2637 102.982 Q352.3105 103.2789 352.3105 104.0133 L352.3105 107.8414 L351.2637 107.8414 L351.2637 104.0602 Q351.2637 103.4039 351.1387 103.0914 Q351.0137 102.7789 350.7012 102.5836 Q350.3887 102.3883 349.9668 102.3883 Q349.2949 102.3883 348.8027 102.818 Q348.3105 103.2477 348.3105 104.4352 L348.3105 107.8414 L347.2637 107.8414 ZM353.9062 107.8414 L353.9062 99.2477 L354.9688 99.2477 L354.9688 107.8414 L353.9062 107.8414 ZM356.5566 110.232 L356.4316 109.2477 Q356.7754 109.3414 357.041 109.3414 Q357.3848 109.3414 357.5957 109.2242 Q357.8066 109.107 357.9473 108.9039 Q358.041 108.732 358.2754 108.107 Q358.291 108.0289 358.3691 107.857 L355.9941 101.6227 L357.1348 101.6227 L358.4316 105.2164 Q358.6816 105.9039 358.8848 106.6695 Q359.0723 105.9352 359.3223 105.2477 L360.6504 101.6227 L361.6973 101.6227 L359.3379 107.9508 Q358.9473 108.9664 358.7441 109.357 Q358.4629 109.8883 358.0957 110.1305 Q357.7285 110.3727 357.2285 110.3727 Q356.9316 110.3727 356.5566 110.232 ZM365.5469 104.732 Q365.5469 102.9977 366.5 102.1695 Q367.2969 101.482 368.4531 101.482 Q369.7344 101.482 370.5547 102.318 Q371.375 103.1539 371.375 104.6383 Q371.375 105.8414 371.0156 106.5289 Q370.6562 107.2164 369.9609 107.5992 Q369.2656 107.982 368.4531 107.982 Q367.1562 107.982 366.3516 107.1461 Q365.5469 106.3102 365.5469 104.732 ZM366.625 104.732 Q366.625 105.9195 367.1484 106.5133 Q367.6719 107.107 368.4531 107.107 Q369.25 107.107 369.7656 106.5133 Q370.2812 105.9195 370.2812 104.7008 Q370.2812 103.5445 369.7578 102.9508 Q369.2344 102.357 368.4531 102.357 Q367.6719 102.357 367.1484 102.943 Q366.625 103.5289 366.625 104.732 ZM372.6113 107.8414 L372.6113 101.6227 L373.5488 101.6227 L373.5488 102.4977 Q374.2363 101.482 375.5332 101.482 Q376.0957 101.482 376.5723 101.6852 Q377.0488 101.8883 377.2832 102.2164 Q377.5176 102.5445 377.6113 102.982 Q377.6582 103.2789 377.6582 104.0133 L377.6582 107.8414 L376.6113 107.8414 L376.6113 104.0602 Q376.6113 103.4039 376.4863 103.0914 Q376.3613 102.7789 376.0488 102.5836 Q375.7363 102.3883 375.3145 102.3883 Q374.6426 102.3883 374.1504 102.818 Q373.6582 103.2477 373.6582 104.4352 L373.6582 107.8414 L372.6113 107.8414 ZM383.5352 105.8414 L384.6289 105.9664 Q384.3789 106.9195 383.6758 107.4508 Q382.9727 107.982 381.8945 107.982 Q380.5352 107.982 379.7305 107.1383 Q378.9258 106.2945 378.9258 104.7789 Q378.9258 103.2164 379.7383 102.3492 Q380.5508 101.482 381.832 101.482 Q383.082 101.482 383.8711 102.3258 Q384.6602 103.1695 384.6602 104.7164 Q384.6602 104.8102 384.6602 104.9977 L380.0195 104.9977 Q380.082 106.0289 380.5977 106.568 Q381.1133 107.107 381.8945 107.107 Q382.4727 107.107 382.8867 106.8023 Q383.3008 106.4977 383.5352 105.8414 ZM380.082 104.1383 L383.5508 104.1383 Q383.4883 103.3414 383.1602 102.9508 Q382.6445 102.3414 381.8477 102.3414 Q381.1133 102.3414 380.6211 102.8258 Q380.1289 103.3102 380.082 104.1383 ZM391.5898 106.9039 L391.7461 107.8258 Q391.293 107.9195 390.9492 107.9195 Q390.3711 107.9195 390.0586 107.7398 Q389.7461 107.5602 389.6133 107.2633 Q389.4805 106.9664 389.4805 106.0133 L389.4805 102.4352 L388.7148 102.4352 L388.7148 101.6227 L389.4805 101.6227 L389.4805 100.0758 L390.5273 99.4508 L390.5273 101.6227 L391.5898 101.6227 L391.5898 102.4352 L390.5273 102.4352 L390.5273 106.0758 Q390.5273 106.5289 390.582 106.6539 Q390.6367 106.7789 390.7617 106.857 Q390.8867 106.9352 391.1211 106.9352 Q391.3086 106.9352 391.5898 106.9039 ZM392.627 107.8414 L392.627 99.2477 L393.6738 99.2477 L393.6738 102.3258 Q394.4082 101.482 395.5332 101.482 Q396.2363 101.482 396.7441 101.7555 Q397.252 102.0289 397.4707 102.5055 Q397.6895 102.982 397.6895 103.9039 L397.6895 107.8414 L396.6426 107.8414 L396.6426 103.9039 Q396.6426 103.107 396.2988 102.7477 Q395.9551 102.3883 395.3301 102.3883 Q394.8613 102.3883 394.4473 102.6305 Q394.0332 102.8727 393.8535 103.2867 Q393.6738 103.7008 393.6738 104.4352 L393.6738 107.8414 L392.627 107.8414 ZM403.3633 107.0758 Q402.7695 107.5758 402.2305 107.7789 Q401.6914 107.982 401.0664 107.982 Q400.0352 107.982 399.4883 107.482 Q398.9414 106.982 398.9414 106.2008 Q398.9414 105.7477 399.1445 105.3648 Q399.3477 104.982 399.6914 104.7555 Q400.0352 104.5289 400.457 104.4195 Q400.7539 104.3258 401.3945 104.2477 Q402.6602 104.107 403.2695 103.8883 Q403.2695 103.6695 403.2695 103.6227 Q403.2695 102.9664 402.9727 102.7008 Q402.5664 102.357 401.7695 102.357 Q401.0352 102.357 400.6758 102.6148 Q400.3164 102.8727 400.1445 103.5289 L399.1133 103.3883 Q399.2539 102.732 399.582 102.3258 Q399.9102 101.9195 400.5195 101.7008 Q401.1289 101.482 401.9258 101.482 Q402.7227 101.482 403.2227 101.6695 Q403.7227 101.857 403.957 102.1383 Q404.1914 102.4195 404.2852 102.857 Q404.332 103.1227 404.332 103.8258 L404.332 105.232 Q404.332 106.7008 404.4023 107.0914 Q404.4727 107.482 404.6758 107.8414 L403.5664 107.8414 Q403.4102 107.5133 403.3633 107.0758 ZM403.2695 104.7164 Q402.6914 104.9508 401.5508 105.1227 Q400.8945 105.2164 400.6289 105.3336 Q400.3633 105.4508 400.2148 105.6695 Q400.0664 105.8883 400.0664 106.1695 Q400.0664 106.5914 400.3867 106.8727 Q400.707 107.1539 401.3164 107.1539 Q401.9258 107.1539 402.4023 106.8883 Q402.8789 106.6227 403.0977 106.1539 Q403.2695 105.7945 403.2695 105.107 L403.2695 104.7164 ZM408.2715 106.9039 L408.4277 107.8258 Q407.9746 107.9195 407.6309 107.9195 Q407.0527 107.9195 406.7402 107.7398 Q406.4277 107.5602 406.2949 107.2633 Q406.1621 106.9664 406.1621 106.0133 L406.1621 102.4352 L405.3965 102.4352 L405.3965 101.6227 L406.1621 101.6227 L406.1621 100.0758 L407.209 99.4508 L407.209 101.6227 L408.2715 101.6227 L408.2715 102.4352 L407.209 102.4352 L407.209 106.0758 Q407.209 106.5289 407.2637 106.6539 Q407.3184 106.7789 407.4434 106.857 Q407.5684 106.9352 407.8027 106.9352 Q407.9902 106.9352 408.2715 106.9039 ZM412.2207 105.982 L413.252 105.8258 Q413.3457 106.4508 413.7441 106.7789 Q414.1426 107.107 414.877 107.107 Q415.5957 107.107 415.9473 106.818 Q416.2988 106.5289 416.2988 106.1227 Q416.2988 105.7633 415.9863 105.5602 Q415.7676 105.4195 414.9082 105.2008 Q413.752 104.9039 413.3066 104.693 Q412.8613 104.482 412.627 104.107 Q412.3926 103.732 412.3926 103.2633 Q412.3926 102.857 412.5801 102.4977 Q412.7676 102.1383 413.0957 101.9039 Q413.3457 101.732 413.7676 101.607 Q414.1895 101.482 414.6895 101.482 Q415.4082 101.482 415.9629 101.693 Q416.5176 101.9039 416.7832 102.2633 Q417.0488 102.6227 417.1426 103.2164 L416.1113 103.357 Q416.0488 102.8883 415.7129 102.6148 Q415.377 102.3414 414.752 102.3414 Q414.0332 102.3414 413.7207 102.5836 Q413.4082 102.8258 413.4082 103.1539 Q413.4082 103.357 413.5332 103.5133 Q413.6738 103.6852 413.9395 103.7945 Q414.0957 103.857 414.877 104.0602 Q416.002 104.3727 416.4395 104.5602 Q416.877 104.7477 417.127 105.107 Q417.377 105.4664 417.377 106.0133 Q417.377 106.5445 417.0723 107.0055 Q416.7676 107.4664 416.1895 107.7242 Q415.6113 107.982 414.877 107.982 Q413.6582 107.982 413.0254 107.4742 Q412.3926 106.9664 412.2207 105.982 ZM418.6426 107.8414 L418.6426 99.2477 L419.6895 99.2477 L419.6895 102.3258 Q420.4238 101.482 421.5488 101.482 Q422.252 101.482 422.7598 101.7555 Q423.2676 102.0289 423.4863 102.5055 Q423.7051 102.982 423.7051 103.9039 L423.7051 107.8414 L422.6582 107.8414 L422.6582 103.9039 Q422.6582 103.107 422.3145 102.7477 Q421.9707 102.3883 421.3457 102.3883 Q420.877 102.3883 420.4629 102.6305 Q420.0488 102.8727 419.8691 103.2867 Q419.6895 103.7008 419.6895 104.4352 L419.6895 107.8414 L418.6426 107.8414 ZM424.9258 104.732 Q424.9258 102.9977 425.8789 102.1695 Q426.6758 101.482 427.832 101.482 Q429.1133 101.482 429.9336 102.318 Q430.7539 103.1539 430.7539 104.6383 Q430.7539 105.8414 430.3945 106.5289 Q430.0352 107.2164 429.3398 107.5992 Q428.6445 107.982 427.832 107.982 Q426.5352 107.982 425.7305 107.1461 Q424.9258 106.3102 424.9258 104.732 ZM426.0039 104.732 Q426.0039 105.9195 426.5273 106.5133 Q427.0508 107.107 427.832 107.107 Q428.6289 107.107 429.1445 106.5133 Q429.6602 105.9195 429.6602 104.7008 Q429.6602 103.5445 429.1367 102.9508 Q428.6133 102.357 427.832 102.357 Q427.0508 102.357 426.5273 102.943 Q426.0039 103.5289 426.0039 104.732 ZM436.0684 107.8414 L436.0684 106.9195 Q435.334 107.982 434.084 107.982 Q433.5371 107.982 433.0605 107.7711 Q432.584 107.5602 432.3496 107.2398 Q432.1152 106.9195 432.0215 106.4508 Q431.959 106.1539 431.959 105.4664 L431.959 101.6227 L433.0215 101.6227 L433.0215 105.0758 Q433.0215 105.8883 433.084 106.1852 Q433.1777 106.5914 433.498 106.8336 Q433.8184 107.0758 434.3027 107.0758 Q434.7715 107.0758 435.1855 106.8336 Q435.5996 106.5914 435.7793 106.1695 Q435.959 105.7477 435.959 104.9508 L435.959 101.6227 L437.0059 101.6227 L437.0059 107.8414 L436.0684 107.8414 ZM438.6328 107.8414 L438.6328 99.2477 L439.6953 99.2477 L439.6953 107.8414 L438.6328 107.8414 ZM445.3613 107.8414 L445.3613 107.0602 Q444.7676 107.982 443.627 107.982 Q442.877 107.982 442.252 107.568 Q441.627 107.1539 441.2832 106.4195 Q440.9395 105.6852 440.9395 104.732 Q440.9395 103.8102 441.252 103.0445 Q441.5645 102.2789 442.1895 101.8805 Q442.8145 101.482 443.5801 101.482 Q444.1426 101.482 444.5801 101.7164 Q445.0176 101.9508 445.2988 102.3258 L445.2988 99.2477 L446.3457 99.2477 L446.3457 107.8414 L445.3613 107.8414 ZM442.0332 104.732 Q442.0332 105.9352 442.5332 106.5211 Q443.0332 107.107 443.7207 107.107 Q444.4082 107.107 444.8926 106.5445 Q445.377 105.982 445.377 104.8258 Q445.377 103.5445 444.8848 102.9508 Q444.3926 102.357 443.6738 102.357 Q442.9707 102.357 442.502 102.9273 Q442.0332 103.4977 442.0332 104.732 ZM452.3066 107.8414 L451.3223 107.8414 L451.3223 99.2477 L452.3848 99.2477 L452.3848 102.3102 Q453.0566 101.482 454.0879 101.482 Q454.666 101.482 455.1738 101.7086 Q455.6816 101.9352 456.0176 102.357 Q456.3535 102.7789 456.541 103.3727 Q456.7285 103.9664 456.7285 104.6383 Q456.7285 106.232 455.9316 107.107 Q455.1348 107.982 454.041 107.982 Q452.9316 107.982 452.3066 107.0602 L452.3066 107.8414 ZM452.291 104.6852 Q452.291 105.7945 452.6035 106.2945 Q453.1035 107.107 453.9473 107.107 Q454.6348 107.107 455.1426 106.5133 Q455.6504 105.9195 455.6504 104.7164 Q455.6504 103.4977 455.166 102.9195 Q454.6816 102.3414 453.9941 102.3414 Q453.3066 102.3414 452.7988 102.943 Q452.291 103.5445 452.291 104.6852 ZM462.2617 105.8414 L463.3555 105.9664 Q463.1055 106.9195 462.4023 107.4508 Q461.6992 107.982 460.6211 107.982 Q459.2617 107.982 458.457 107.1383 Q457.6523 106.2945 457.6523 104.7789 Q457.6523 103.2164 458.4648 102.3492 Q459.2773 101.482 460.5586 101.482 Q461.8086 101.482 462.5977 102.3258 Q463.3867 103.1695 463.3867 104.7164 Q463.3867 104.8102 463.3867 104.9977 L458.7461 104.9977 Q458.8086 106.0289 459.3242 106.568 Q459.8398 107.107 460.6211 107.107 Q461.1992 107.107 461.6133 106.8023 Q462.0273 106.4977 462.2617 105.8414 ZM458.8086 104.1383 L462.2773 104.1383 Q462.2148 103.3414 461.8867 102.9508 Q461.3711 102.3414 460.5742 102.3414 Q459.8398 102.3414 459.3477 102.8258 Q458.8555 103.3102 458.8086 104.1383 Z" clip-path="url(#clipPath3)" stroke-linecap="square" stroke="none"/>
      <path stroke-miterlimit="10" d="M345.9395 122.9352 L345.9395 116.7164 L346.877 116.7164 L346.877 117.5914 Q347.1738 117.1227 347.6582 116.8492 Q348.1426 116.5758 348.7676 116.5758 Q349.4551 116.5758 349.9004 116.857 Q350.3457 117.1383 350.5176 117.6539 Q351.2676 116.5758 352.4395 116.5758 Q353.377 116.5758 353.8691 117.0836 Q354.3613 117.5914 354.3613 118.6695 L354.3613 122.9352 L353.3145 122.9352 L353.3145 119.0133 Q353.3145 118.3883 353.2129 118.107 Q353.1113 117.8258 352.8457 117.6539 Q352.5801 117.482 352.2051 117.482 Q351.5488 117.482 351.1191 117.9195 Q350.6895 118.357 350.6895 119.3258 L350.6895 122.9352 L349.627 122.9352 L349.627 118.8883 Q349.627 118.1852 349.3691 117.8336 Q349.1113 117.482 348.5332 117.482 Q348.0801 117.482 347.7051 117.7164 Q347.3301 117.9508 347.1582 118.4039 Q346.9863 118.857 346.9863 119.7008 L346.9863 122.9352 L345.9395 122.9352 ZM359.998 122.1695 Q359.4043 122.6695 358.8652 122.8727 Q358.3262 123.0758 357.7012 123.0758 Q356.6699 123.0758 356.123 122.5758 Q355.5762 122.0758 355.5762 121.2945 Q355.5762 120.8414 355.7793 120.4586 Q355.9824 120.0758 356.3262 119.8492 Q356.6699 119.6227 357.0918 119.5133 Q357.3887 119.4195 358.0293 119.3414 Q359.2949 119.2008 359.9043 118.982 Q359.9043 118.7633 359.9043 118.7164 Q359.9043 118.0602 359.6074 117.7945 Q359.2012 117.4508 358.4043 117.4508 Q357.6699 117.4508 357.3105 117.7086 Q356.9512 117.9664 356.7793 118.6227 L355.748 118.482 Q355.8887 117.8258 356.2168 117.4195 Q356.5449 117.0133 357.1543 116.7945 Q357.7637 116.5758 358.5605 116.5758 Q359.3574 116.5758 359.8574 116.7633 Q360.3574 116.9508 360.5918 117.232 Q360.8262 117.5133 360.9199 117.9508 Q360.9668 118.2164 360.9668 118.9195 L360.9668 120.3258 Q360.9668 121.7945 361.0371 122.1852 Q361.1074 122.5758 361.3105 122.9352 L360.2012 122.9352 Q360.0449 122.607 359.998 122.1695 ZM359.9043 119.8102 Q359.3262 120.0445 358.1855 120.2164 Q357.5293 120.3102 357.2637 120.4273 Q356.998 120.5445 356.8496 120.7633 Q356.7012 120.982 356.7012 121.2633 Q356.7012 121.6852 357.0215 121.9664 Q357.3418 122.2477 357.9512 122.2477 Q358.5605 122.2477 359.0371 121.982 Q359.5137 121.7164 359.7324 121.2477 Q359.9043 120.8883 359.9043 120.2008 L359.9043 119.8102 ZM362.6094 122.9352 L362.6094 116.7164 L363.5469 116.7164 L363.5469 117.5914 Q364.2344 116.5758 365.5312 116.5758 Q366.0938 116.5758 366.5703 116.7789 Q367.0469 116.982 367.2812 117.3102 Q367.5156 117.6383 367.6094 118.0758 Q367.6562 118.3727 367.6562 119.107 L367.6562 122.9352 L366.6094 122.9352 L366.6094 119.1539 Q366.6094 118.4977 366.4844 118.1852 Q366.3594 117.8727 366.0469 117.6773 Q365.7344 117.482 365.3125 117.482 Q364.6406 117.482 364.1484 117.9117 Q363.6562 118.3414 363.6562 119.5289 L363.6562 122.9352 L362.6094 122.9352 ZM373.3613 122.9352 L373.3613 122.0133 Q372.627 123.0758 371.377 123.0758 Q370.8301 123.0758 370.3535 122.8648 Q369.877 122.6539 369.6426 122.3336 Q369.4082 122.0133 369.3145 121.5445 Q369.252 121.2477 369.252 120.5602 L369.252 116.7164 L370.3145 116.7164 L370.3145 120.1695 Q370.3145 120.982 370.377 121.2789 Q370.4707 121.6852 370.791 121.9273 Q371.1113 122.1695 371.5957 122.1695 Q372.0645 122.1695 372.4785 121.9273 Q372.8926 121.6852 373.0723 121.2633 Q373.252 120.8414 373.252 120.0445 L373.252 116.7164 L374.2988 116.7164 L374.2988 122.9352 L373.3613 122.9352 ZM380.0195 122.1695 Q379.4258 122.6695 378.8867 122.8727 Q378.3477 123.0758 377.7227 123.0758 Q376.6914 123.0758 376.1445 122.5758 Q375.5977 122.0758 375.5977 121.2945 Q375.5977 120.8414 375.8008 120.4586 Q376.0039 120.0758 376.3477 119.8492 Q376.6914 119.6227 377.1133 119.5133 Q377.4102 119.4195 378.0508 119.3414 Q379.3164 119.2008 379.9258 118.982 Q379.9258 118.7633 379.9258 118.7164 Q379.9258 118.0602 379.6289 117.7945 Q379.2227 117.4508 378.4258 117.4508 Q377.6914 117.4508 377.332 117.7086 Q376.9727 117.9664 376.8008 118.6227 L375.7695 118.482 Q375.9102 117.8258 376.2383 117.4195 Q376.5664 117.0133 377.1758 116.7945 Q377.7852 116.5758 378.582 116.5758 Q379.3789 116.5758 379.8789 116.7633 Q380.3789 116.9508 380.6133 117.232 Q380.8477 117.5133 380.9414 117.9508 Q380.9883 118.2164 380.9883 118.9195 L380.9883 120.3258 Q380.9883 121.7945 381.0586 122.1852 Q381.1289 122.5758 381.332 122.9352 L380.2227 122.9352 Q380.0664 122.607 380.0195 122.1695 ZM379.9258 119.8102 Q379.3477 120.0445 378.207 120.2164 Q377.5508 120.3102 377.2852 120.4273 Q377.0195 120.5445 376.8711 120.7633 Q376.7227 120.982 376.7227 121.2633 Q376.7227 121.6852 377.043 121.9664 Q377.3633 122.2477 377.9727 122.2477 Q378.582 122.2477 379.0586 121.982 Q379.5352 121.7164 379.7539 121.2477 Q379.9258 120.8883 379.9258 120.2008 L379.9258 119.8102 ZM382.5996 122.9352 L382.5996 114.3414 L383.6621 114.3414 L383.6621 122.9352 L382.5996 122.9352 ZM385.2656 122.9352 L385.2656 114.3414 L386.3281 114.3414 L386.3281 122.9352 L385.2656 122.9352 ZM387.916 125.3258 L387.791 124.3414 Q388.1348 124.4352 388.4004 124.4352 Q388.7441 124.4352 388.9551 124.318 Q389.166 124.2008 389.3066 123.9977 Q389.4004 123.8258 389.6348 123.2008 Q389.6504 123.1227 389.7285 122.9508 L387.3535 116.7164 L388.4941 116.7164 L389.791 120.3102 Q390.041 120.9977 390.2441 121.7633 Q390.4316 121.0289 390.6816 120.3414 L392.0098 116.7164 L393.0566 116.7164 L390.6973 123.0445 Q390.3066 124.0602 390.1035 124.4508 Q389.8223 124.982 389.4551 125.2242 Q389.0879 125.4664 388.5879 125.4664 Q388.291 125.4664 387.916 125.3258 ZM397.2969 122.9352 L397.2969 116.7164 L398.2344 116.7164 L398.2344 117.5914 Q398.5312 117.1227 399.0156 116.8492 Q399.5 116.5758 400.125 116.5758 Q400.8125 116.5758 401.2578 116.857 Q401.7031 117.1383 401.875 117.6539 Q402.625 116.5758 403.7969 116.5758 Q404.7344 116.5758 405.2266 117.0836 Q405.7188 117.5914 405.7188 118.6695 L405.7188 122.9352 L404.6719 122.9352 L404.6719 119.0133 Q404.6719 118.3883 404.5703 118.107 Q404.4688 117.8258 404.2031 117.6539 Q403.9375 117.482 403.5625 117.482 Q402.9062 117.482 402.4766 117.9195 Q402.0469 118.357 402.0469 119.3258 L402.0469 122.9352 L400.9844 122.9352 L400.9844 118.8883 Q400.9844 118.1852 400.7266 117.8336 Q400.4688 117.482 399.8906 117.482 Q399.4375 117.482 399.0625 117.7164 Q398.6875 117.9508 398.5156 118.4039 Q398.3438 118.857 398.3438 119.7008 L398.3438 122.9352 L397.2969 122.9352 ZM406.9023 119.8258 Q406.9023 118.0914 407.8555 117.2633 Q408.6523 116.5758 409.8086 116.5758 Q411.0898 116.5758 411.9102 117.4117 Q412.7305 118.2477 412.7305 119.732 Q412.7305 120.9352 412.3711 121.6227 Q412.0117 122.3102 411.3164 122.693 Q410.6211 123.0758 409.8086 123.0758 Q408.5117 123.0758 407.707 122.2398 Q406.9023 121.4039 406.9023 119.8258 ZM407.9805 119.8258 Q407.9805 121.0133 408.5039 121.607 Q409.0273 122.2008 409.8086 122.2008 Q410.6055 122.2008 411.1211 121.607 Q411.6367 121.0133 411.6367 119.7945 Q411.6367 118.6383 411.1133 118.0445 Q410.5898 117.4508 409.8086 117.4508 Q409.0273 117.4508 408.5039 118.0367 Q407.9805 118.6227 407.9805 119.8258 ZM417.998 122.9352 L417.998 122.1539 Q417.4043 123.0758 416.2637 123.0758 Q415.5137 123.0758 414.8887 122.6617 Q414.2637 122.2477 413.9199 121.5133 Q413.5762 120.7789 413.5762 119.8258 Q413.5762 118.9039 413.8887 118.1383 Q414.2012 117.3727 414.8262 116.9742 Q415.4512 116.5758 416.2168 116.5758 Q416.7793 116.5758 417.2168 116.8102 Q417.6543 117.0445 417.9355 117.4195 L417.9355 114.3414 L418.9824 114.3414 L418.9824 122.9352 L417.998 122.9352 ZM414.6699 119.8258 Q414.6699 121.0289 415.1699 121.6148 Q415.6699 122.2008 416.3574 122.2008 Q417.0449 122.2008 417.5293 121.6383 Q418.0137 121.0758 418.0137 119.9195 Q418.0137 118.6383 417.5215 118.0445 Q417.0293 117.4508 416.3105 117.4508 Q415.6074 117.4508 415.1387 118.0211 Q414.6699 118.5914 414.6699 119.8258 ZM420.6406 115.5602 L420.6406 114.3414 L421.7031 114.3414 L421.7031 115.5602 L420.6406 115.5602 ZM420.6406 122.9352 L420.6406 116.7164 L421.7031 116.7164 L421.7031 122.9352 L420.6406 122.9352 ZM423.5566 122.9352 L423.5566 117.5289 L422.6191 117.5289 L422.6191 116.7164 L423.5566 116.7164 L423.5566 116.0445 Q423.5566 115.4195 423.666 115.1227 Q423.8223 114.7008 424.2051 114.4508 Q424.5879 114.2008 425.2754 114.2008 Q425.7285 114.2008 426.2598 114.3102 L426.1035 115.2164 Q425.7754 115.1695 425.4785 115.1695 Q424.9941 115.1695 424.7988 115.3727 Q424.6035 115.5758 424.6035 116.1383 L424.6035 116.7164 L425.8223 116.7164 L425.8223 117.5289 L424.6035 117.5289 L424.6035 122.9352 L423.5566 122.9352 ZM426.6406 115.5602 L426.6406 114.3414 L427.7031 114.3414 L427.7031 115.5602 L426.6406 115.5602 ZM426.6406 122.9352 L426.6406 116.7164 L427.7031 116.7164 L427.7031 122.9352 L426.6406 122.9352 ZM433.5566 120.9352 L434.6504 121.0602 Q434.4004 122.0133 433.6973 122.5445 Q432.9941 123.0758 431.916 123.0758 Q430.5566 123.0758 429.752 122.232 Q428.9473 121.3883 428.9473 119.8727 Q428.9473 118.3102 429.7598 117.443 Q430.5723 116.5758 431.8535 116.5758 Q433.1035 116.5758 433.8926 117.4195 Q434.6816 118.2633 434.6816 119.8102 Q434.6816 119.9039 434.6816 120.0914 L430.041 120.0914 Q430.1035 121.1227 430.6191 121.6617 Q431.1348 122.2008 431.916 122.2008 Q432.4941 122.2008 432.9082 121.8961 Q433.3223 121.5914 433.5566 120.9352 ZM430.1035 119.232 L433.5723 119.232 Q433.5098 118.4352 433.1816 118.0445 Q432.666 117.4352 431.8691 117.4352 Q431.1348 117.4352 430.6426 117.9195 Q430.1504 118.4039 430.1035 119.232 ZM440.0117 122.9352 L440.0117 122.1539 Q439.418 123.0758 438.2773 123.0758 Q437.5273 123.0758 436.9023 122.6617 Q436.2773 122.2477 435.9336 121.5133 Q435.5898 120.7789 435.5898 119.8258 Q435.5898 118.9039 435.9023 118.1383 Q436.2148 117.3727 436.8398 116.9742 Q437.4648 116.5758 438.2305 116.5758 Q438.793 116.5758 439.2305 116.8102 Q439.668 117.0445 439.9492 117.4195 L439.9492 114.3414 L440.9961 114.3414 L440.9961 122.9352 L440.0117 122.9352 ZM436.6836 119.8258 Q436.6836 121.0289 437.1836 121.6148 Q437.6836 122.2008 438.3711 122.2008 Q439.0586 122.2008 439.543 121.6383 Q440.0273 121.0758 440.0273 119.9195 Q440.0273 118.6383 439.5352 118.0445 Q439.043 117.4508 438.3242 117.4508 Q437.6211 117.4508 437.1523 118.0211 Q436.6836 118.5914 436.6836 119.8258 Z" clip-path="url(#clipPath3)" stroke-linecap="square" stroke="none"/>
    </g>
    <g text-rendering="geometricPrecision" stroke-miterlimit="1.45" shape-rendering="geometricPrecision" transform="matrix(1,0,0,1,-144,-63)" stroke-linecap="butt">
      <path fill="none" d="M215 125.9291 L215 246 L272.005 246" clip-path="url(#clipPath2)"/>
    </g>
    <g text-rendering="geometricPrecision" stroke-miterlimit="1.45" shape-rendering="geometricPrecision" transform="matrix(1,0,0,1,-144,-63)" stroke-linecap="butt">
      <path d="M280.005 246 L268.005 241 L271.005 246 L268.005 251 Z" stroke="none" clip-path="url(#clipPath2)"/>
      <path fill="none" d="M447.0098 246 L498.9754 246" clip-path="url(#clipPath2)"/>
      <path d="M506.9754 246 L494.9754 241 L497.9754 246 L494.9754 251 Z" clip-path="url(#clipPath2)" stroke="none"/>
      <path fill="none" d="M215 125.923 L215 442 L235.9677 442" clip-path="url(#clipPath2)"/>
      <path d="M243.9677 442 L231.9677 437 L234.9677 442 L231.9677 447 Z" clip-path="url(#clipPath2)" stroke="none"/>
      <path fill="none" d="M483.0137 442 L512.4734 442" clip-path="url(#clipPath2)"/>
      <path d="M520.4734 442 L508.4734 437 L511.4734 442 L508.4734 447 Z" clip-path="url(#clipPath2)" stroke="none"/>
      <path fill="none" d="M571.3884 464.2029 L571.1959 502.5133" clip-path="url(#clipPath2)"/>
      <path d="M571.1557 510.5132 L576.2159 498.5385 L571.2009 501.5133 L566.2161 498.4882 Z" clip-path="url(#clipPath2)" stroke="none"/>
      <path fill="none" d="M446.9901 246 L477 246 L477 327 L498.9707 327" clip-path="url(#clipPath2)"/>
      <path d="M506.9707 327 L494.9707 322 L497.9707 327 L494.9707 332 Z" clip-path="url(#clipPath2)" stroke="none"/>
      <path fill="none" d="M691.0242 541.5 L713.0493 541.5" clip-path="url(#clipPath2)"/>
      <path d="M721.0493 541.5 L709.0493 536.5 L712.0493 541.5 L709.0493 546.5 Z" clip-path="url(#clipPath2)" stroke="none"/>
      <path fill="none" stroke-dasharray="6,2" d="M300.0228 105.6832 L270.0074 105.6832" clip-path="url(#clipPath2)"/>
    </g>
  </g>
</svg>
