<?xml version="1.0" encoding="UTF-8"?><svg xmlns="http://www.w3.org/2000/svg" xmlns:xlink="http://www.w3.org/1999/xlink" fill-opacity="1" color-rendering="auto" color-interpolation="auto" text-rendering="auto" stroke="black" stroke-linecap="square" width="1725" stroke-miterlimit="10" shape-rendering="auto" stroke-opacity="1" fill="black" stroke-dasharray="none" font-weight="normal" stroke-width="1" height="1067" font-family="'Dialog'" font-style="normal" stroke-linejoin="miter" font-size="12px" stroke-dashoffset="0" image-rendering="auto">
  <!--Generated by ySVG 2.5-->
  <defs id="genericDefs"/>
  <g>
    <defs id="defs1">
      <linearGradient x1="426.8176" gradientUnits="userSpaceOnUse" x2="543.5149" y1="568.9136" y2="612.316" id="linearGradient1" spreadMethod="reflect">
        <stop stop-opacity="1" stop-color="rgb(232,238,247)" offset="0%"/>
        <stop stop-opacity="1" stop-color="rgb(183,201,227)" offset="100%"/>
      </linearGradient>
      <linearGradient x1="426.8176" gradientUnits="userSpaceOnUse" x2="543.5149" y1="446.9632" y2="490.3656" id="linearGradient2" spreadMethod="reflect">
        <stop stop-opacity="1" stop-color="rgb(232,238,247)" offset="0%"/>
        <stop stop-opacity="1" stop-color="rgb(183,201,227)" offset="100%"/>
      </linearGradient>
      <linearGradient x1="426.8176" gradientUnits="userSpaceOnUse" x2="543.5149" y1="342.2529" y2="385.6552" id="linearGradient3" spreadMethod="reflect">
        <stop stop-opacity="1" stop-color="rgb(232,238,247)" offset="0%"/>
        <stop stop-opacity="1" stop-color="rgb(183,201,227)" offset="100%"/>
      </linearGradient>
      <linearGradient x1="426.8176" gradientUnits="userSpaceOnUse" x2="543.5149" y1="659.3136" y2="702.7159" id="linearGradient4" spreadMethod="reflect">
        <stop stop-opacity="1" stop-color="rgb(232,238,247)" offset="0%"/>
        <stop stop-opacity="1" stop-color="rgb(183,201,227)" offset="100%"/>
      </linearGradient>
      <linearGradient x1="277.5338" gradientUnits="userSpaceOnUse" x2="421.5338" y1="839.2648" y2="895.2648" id="linearGradient5" spreadMethod="reflect">
        <stop stop-opacity="1" stop-color="rgb(232,238,247)" offset="0%"/>
        <stop stop-opacity="1" stop-color="rgb(183,201,227)" offset="100%"/>
      </linearGradient>
      <linearGradient x1="1048.9081" gradientUnits="userSpaceOnUse" x2="1225.6846" y1="682.4148" y2="752.4148" id="linearGradient6" spreadMethod="reflect">
        <stop stop-opacity="1" stop-color="rgb(232,238,247)" offset="0%"/>
        <stop stop-opacity="1" stop-color="rgb(183,201,227)" offset="100%"/>
      </linearGradient>
      <linearGradient x1="289.0338" gradientUnits="userSpaceOnUse" x2="410.0338" y1="615.959" y2="655.959" id="linearGradient7" spreadMethod="reflect">
        <stop stop-opacity="1" stop-color="rgb(232,238,247)" offset="0%"/>
        <stop stop-opacity="1" stop-color="rgb(183,201,227)" offset="100%"/>
      </linearGradient>
      <linearGradient x1="1368.5081" gradientUnits="userSpaceOnUse" x2="1508.5081" y1="809.4" y2="874.4" id="linearGradient8" spreadMethod="reflect">
        <stop stop-opacity="1" stop-color="rgb(232,238,247)" offset="0%"/>
        <stop stop-opacity="1" stop-color="rgb(183,201,227)" offset="100%"/>
      </linearGradient>
      <linearGradient x1="805.2" gradientUnits="userSpaceOnUse" x2="907.7" y1="338.329" y2="389.579" id="linearGradient9" spreadMethod="reflect">
        <stop stop-opacity="1" stop-color="rgb(232,238,247)" offset="0%"/>
        <stop stop-opacity="1" stop-color="rgb(183,201,227)" offset="100%"/>
      </linearGradient>
      <linearGradient x1="1761.6331" gradientUnits="userSpaceOnUse" x2="1864.1331" y1="338.329" y2="389.579" id="linearGradient10" spreadMethod="reflect">
        <stop stop-opacity="1" stop-color="rgb(232,238,247)" offset="0%"/>
        <stop stop-opacity="1" stop-color="rgb(183,201,227)" offset="100%"/>
      </linearGradient>
      <linearGradient x1="426.8176" gradientUnits="userSpaceOnUse" x2="543.5149" y1="985.3636" y2="1028.766" id="linearGradient11" spreadMethod="reflect">
        <stop stop-opacity="1" stop-color="rgb(232,238,247)" offset="0%"/>
        <stop stop-opacity="1" stop-color="rgb(183,201,227)" offset="100%"/>
      </linearGradient>
      <linearGradient x1="647.0735" gradientUnits="userSpaceOnUse" x2="878.85" y1="972.0648" y2="1042.0648" id="linearGradient12" spreadMethod="reflect">
        <stop stop-opacity="1" stop-color="rgb(232,238,247)" offset="0%"/>
        <stop stop-opacity="1" stop-color="rgb(183,201,227)" offset="100%"/>
      </linearGradient>
      <linearGradient x1="426.8176" gradientUnits="userSpaceOnUse" x2="543.5149" y1="1220.1877" y2="1263.5901" id="linearGradient13" spreadMethod="reflect">
        <stop stop-opacity="1" stop-color="rgb(232,238,247)" offset="0%"/>
        <stop stop-opacity="1" stop-color="rgb(183,201,227)" offset="100%"/>
      </linearGradient>
      <linearGradient x1="611.7117" gradientUnits="userSpaceOnUse" x2="914.2117" y1="1171.8889" y2="1221.8889" id="linearGradient14" spreadMethod="reflect">
        <stop stop-opacity="1" stop-color="rgb(232,238,247)" offset="0%"/>
        <stop stop-opacity="1" stop-color="rgb(183,201,227)" offset="100%"/>
      </linearGradient>
      <linearGradient x1="624.2117" gradientUnits="userSpaceOnUse" x2="901.7117" y1="1269.3333" y2="1309.3333" id="linearGradient15" spreadMethod="reflect">
        <stop stop-opacity="1" stop-color="rgb(232,238,247)" offset="0%"/>
        <stop stop-opacity="1" stop-color="rgb(183,201,227)" offset="100%"/>
      </linearGradient>
      <linearGradient x1="1584.6143" gradientUnits="userSpaceOnUse" x2="1941.6331" y1="1232.2258" y2="1275.6282" id="linearGradient16" spreadMethod="reflect">
        <stop stop-opacity="1" stop-color="rgb(232,238,247)" offset="0%"/>
        <stop stop-opacity="1" stop-color="rgb(183,201,227)" offset="100%"/>
      </linearGradient>
      <clipPath clipPathUnits="userSpaceOnUse" id="clipPath1">
        <path d="M0 0 L1725 0 L1725 1067 L0 1067 L0 0 Z"/>
      </clipPath>
      <clipPath clipPathUnits="userSpaceOnUse" id="clipPath2">
        <path d="M247 273 L1972 273 L1972 1340 L247 1340 L247 273 Z"/>
      </clipPath>
    </defs>
    <g fill="rgb(245,245,245)" text-rendering="geometricPrecision" shape-rendering="geometricPrecision" transform="matrix(1,0,0,1,-247,-273)" stroke="rgb(245,245,245)">
      <rect x="262.5338" y="288.5258" clip-path="url(#clipPath2)" width="1694.0992" rx="4" ry="4" height="621.739" stroke="none"/>
    </g>
    <g fill="rgb(235,235,235)" text-rendering="geometricPrecision" shape-rendering="geometricPrecision" transform="matrix(1,0,0,1,-247,-273)" stroke="rgb(235,235,235)">
      <rect x="262.5338" width="1694.0992" height="22.3765" y="288.5258" clip-path="url(#clipPath2)" stroke="none"/>
    </g>
    <g font-size="15px" stroke-linecap="butt" transform="matrix(1,0,0,1,-247,-273)" text-rendering="geometricPrecision" font-family="sans-serif" shape-rendering="geometricPrecision" stroke-miterlimit="1.45">
      <text x="963.674" xml:space="preserve" y="305.6064" clip-path="url(#clipPath2)" stroke="none">Basic Locomotion - no jumping or crouching</text>
      <rect x="262.5338" y="288.5258" clip-path="url(#clipPath2)" fill="none" width="1694.0992" stroke-dasharray="6,2" rx="4" ry="4" height="621.739"/>
    </g>
    <g fill="url(#linearGradient1)" text-rendering="geometricPrecision" shape-rendering="geometricPrecision" transform="matrix(1,0,0,1,-247,-273)" stroke="url(#linearGradient1)">
      <path d="M437.8852 568.9136 L543.5149 568.9136 L532.4473 612.316 L426.8176 612.316 Z" stroke="none" clip-path="url(#clipPath2)"/>
    </g>
    <g text-rendering="geometricPrecision" stroke-miterlimit="1.45" shape-rendering="geometricPrecision" transform="matrix(1,0,0,1,-247,-273)" stroke-linecap="butt">
      <path fill="none" d="M437.8852 568.9136 L543.5149 568.9136 L532.4473 612.316 L426.8176 612.316 Z" clip-path="url(#clipPath2)"/>
      <text x="444.8156" xml:space="preserve" y="580.6275" clip-path="url(#clipPath2)" font-family="sans-serif" stroke="none">Left thumbstick</text>
      <text x="468.8274" xml:space="preserve" y="595.3287" clip-path="url(#clipPath2)" font-family="sans-serif" stroke="none">Y axis</text>
      <text x="433.9875" xml:space="preserve" y="610.0298" clip-path="url(#clipPath2)" font-family="sans-serif" stroke="none">(+-forward velocity)</text>
    </g>
    <g fill="url(#linearGradient2)" text-rendering="geometricPrecision" shape-rendering="geometricPrecision" transform="matrix(1,0,0,1,-247,-273)" stroke="url(#linearGradient2)">
      <path d="M437.8852 446.9632 L543.5149 446.9632 L532.4473 490.3656 L426.8176 490.3656 Z" stroke="none" clip-path="url(#clipPath2)"/>
    </g>
    <g text-rendering="geometricPrecision" stroke-miterlimit="1.45" shape-rendering="geometricPrecision" transform="matrix(1,0,0,1,-247,-273)" stroke-linecap="butt">
      <path fill="none" d="M437.8852 446.9632 L543.5149 446.9632 L532.4473 490.3656 L426.8176 490.3656 Z" clip-path="url(#clipPath2)"/>
      <text x="440.8166" xml:space="preserve" y="466.0277" clip-path="url(#clipPath2)" font-family="sans-serif" stroke="none">Right thumbstick</text>
      <text x="433.1526" xml:space="preserve" y="480.7289" clip-path="url(#clipPath2)" font-family="sans-serif" stroke="none">X axis (rot left/right)</text>
    </g>
    <g fill="url(#linearGradient3)" text-rendering="geometricPrecision" shape-rendering="geometricPrecision" transform="matrix(1,0,0,1,-247,-273)" stroke="url(#linearGradient3)">
      <path d="M437.8852 342.2529 L543.5149 342.2529 L532.4473 385.6552 L426.8176 385.6552 Z" stroke="none" clip-path="url(#clipPath2)"/>
    </g>
    <g text-rendering="geometricPrecision" stroke-miterlimit="1.45" shape-rendering="geometricPrecision" transform="matrix(1,0,0,1,-247,-273)" stroke-linecap="butt">
      <path fill="none" d="M437.8852 342.2529 L543.5149 342.2529 L532.4473 385.6552 L426.8176 385.6552 Z" clip-path="url(#clipPath2)"/>
      <text x="440.8166" xml:space="preserve" y="361.3173" clip-path="url(#clipPath2)" font-family="sans-serif" stroke="none">Right thumbstick</text>
      <text x="440.4797" xml:space="preserve" y="376.0185" clip-path="url(#clipPath2)" font-family="sans-serif" stroke="none">Y axis (up/down)</text>
    </g>
    <g fill="url(#linearGradient4)" text-rendering="geometricPrecision" shape-rendering="geometricPrecision" transform="matrix(1,0,0,1,-247,-273)" stroke="url(#linearGradient4)">
      <path d="M437.8852 659.3136 L543.5149 659.3136 L532.4473 702.7159 L426.8176 702.7159 Z" stroke="none" clip-path="url(#clipPath2)"/>
    </g>
    <g text-rendering="geometricPrecision" stroke-miterlimit="1.45" shape-rendering="geometricPrecision" transform="matrix(1,0,0,1,-247,-273)" stroke-linecap="butt">
      <path fill="none" d="M437.8852 659.3136 L543.5149 659.3136 L532.4473 702.7159 L426.8176 702.7159 Z" clip-path="url(#clipPath2)"/>
      <text x="444.8156" xml:space="preserve" y="671.0275" clip-path="url(#clipPath2)" font-family="sans-serif" stroke="none">Left thumbstick</text>
      <text x="468.8274" xml:space="preserve" y="685.7286" clip-path="url(#clipPath2)" font-family="sans-serif" stroke="none">X axis</text>
      <text x="440.2307" xml:space="preserve" y="700.4298" clip-path="url(#clipPath2)" font-family="sans-serif" stroke="none">("strafe" velocity)</text>
    </g>
    <g fill="rgb(255,204,0)" text-rendering="geometricPrecision" shape-rendering="geometricPrecision" transform="matrix(1,0,0,1,-247,-273)" stroke="rgb(255,204,0)">
      <path d="M687.0222 325.9023 L732.4222 402.0058 L641.6222 402.0058 Z" fill-rule="evenodd" clip-path="url(#clipPath2)" stroke="none"/>
    </g>
    <g text-rendering="geometricPrecision" stroke-miterlimit="1.45" shape-rendering="geometricPrecision" font-family="sans-serif" transform="matrix(1,0,0,1,-247,-273)" stroke-linecap="butt">
      <text x="672.6785" xml:space="preserve" y="363.9667" clip-path="url(#clipPath2)" stroke="none">Head</text>
      <text x="659.0027" xml:space="preserve" y="378.6679" clip-path="url(#clipPath2)" stroke="none">orientation</text>
      <text x="661.6863" xml:space="preserve" y="393.3691" clip-path="url(#clipPath2)" stroke="none">WRT feet</text>
      <path fill="none" d="M687.0222 325.9023 L732.4222 402.0058 L641.6222 402.0058 Z" clip-path="url(#clipPath2)" fill-rule="evenodd"/>
    </g>
    <g fill="rgb(255,204,0)" text-rendering="geometricPrecision" shape-rendering="geometricPrecision" transform="matrix(1,0,0,1,-247,-273)" stroke="rgb(255,204,0)">
      <path d="M687.0222 424.3626 L740.8105 512.9661 L633.2338 512.9661 Z" fill-rule="evenodd" clip-path="url(#clipPath2)" stroke="none"/>
    </g>
    <g text-rendering="geometricPrecision" stroke-miterlimit="1.45" shape-rendering="geometricPrecision" font-family="sans-serif" transform="matrix(1,0,0,1,-247,-273)" stroke-linecap="butt">
      <text x="675.0164" xml:space="preserve" y="460.2259" clip-path="url(#clipPath2)" stroke="none">Feet</text>
      <text x="659.0027" xml:space="preserve" y="474.9271" clip-path="url(#clipPath2)" stroke="none">orientation</text>
      <text x="654.0017" xml:space="preserve" y="489.6283" clip-path="url(#clipPath2)" stroke="none">about Y axis</text>
      <text x="662.3513" xml:space="preserve" y="504.3294" clip-path="url(#clipPath2)" stroke="none">(in world)</text>
      <path fill="none" d="M687.0222 424.3626 L740.8105 512.9661 L633.2338 512.9661 Z" clip-path="url(#clipPath2)" fill-rule="evenodd"/>
    </g>
    <g fill="rgb(255,204,0)" text-rendering="geometricPrecision" shape-rendering="geometricPrecision" transform="matrix(1,0,0,1,-247,-273)" stroke="rgb(255,204,0)">
      <rect x="765.8338" y="593.6148" clip-path="url(#clipPath2)" width="160.0508" rx="4" ry="4" height="43.2" stroke="none"/>
    </g>
    <g stroke-linecap="butt" transform="matrix(1,0,0,1,-247,-273)" text-rendering="geometricPrecision" font-family="sans-serif" shape-rendering="geometricPrecision" font-weight="bold" stroke-miterlimit="1.45">
      <text x="767.8593" xml:space="preserve" y="612.5781" clip-path="url(#clipPath2)" stroke="none">2D locomotion (translation)</text>
      <text x="769.5145" xml:space="preserve" y="627.2792" clip-path="url(#clipPath2)" stroke="none">intention (desired velocity)</text>
      <rect x="765.8338" y="593.6148" clip-path="url(#clipPath2)" fill="none" width="160.0508" rx="4" ry="4" height="43.2"/>
    </g>
    <g fill="url(#linearGradient5)" text-rendering="geometricPrecision" shape-rendering="geometricPrecision" transform="matrix(1,0,0,1,-247,-273)" stroke="url(#linearGradient5)">
      <path d="M284.5338 839.2648 L421.5338 839.2648 Q407.5338 867.2648 421.5338 895.2648 L284.5338 895.2648 Q270.5338 867.2648 284.5338 839.2648 Z" stroke="none" clip-path="url(#clipPath2)"/>
    </g>
    <g text-rendering="geometricPrecision" stroke-miterlimit="1.45" shape-rendering="geometricPrecision" transform="matrix(1,0,0,1,-247,-273)" stroke-linecap="butt">
      <path fill="none" d="M284.5338 839.2648 L421.5338 839.2648 Q407.5338 867.2648 421.5338 895.2648 L284.5338 895.2648 Q270.5338 867.2648 284.5338 839.2648 Z" clip-path="url(#clipPath2)"/>
      <text x="322.8503" xml:space="preserve" y="857.2775" clip-path="url(#clipPath2)" font-family="sans-serif" stroke="none">Map data:</text>
      <text x="312.8454" xml:space="preserve" y="871.9786" clip-path="url(#clipPath2)" font-family="sans-serif" stroke="none">ground/floors,</text>
      <text x="317.1842" xml:space="preserve" y="886.6798" clip-path="url(#clipPath2)" font-family="sans-serif" stroke="none">obstructions</text>
    </g>
    <g fill="rgb(255,204,0)" text-rendering="geometricPrecision" shape-rendering="geometricPrecision" transform="matrix(1,0,0,1,-247,-273)" stroke="rgb(255,204,0)">
      <circle r="33.4" clip-path="url(#clipPath2)" cx="349.5338" cy="775.8648" stroke="none"/>
    </g>
    <g text-rendering="geometricPrecision" stroke-miterlimit="1.45" shape-rendering="geometricPrecision" font-family="sans-serif" transform="matrix(1,0,0,1,-247,-273)" stroke-linecap="butt">
      <text x="326.1901" xml:space="preserve" y="765.8775" clip-path="url(#clipPath2)" stroke="none">Previous</text>
      <text x="317.1784" xml:space="preserve" y="780.5787" clip-path="url(#clipPath2)" stroke="none">feet position</text>
      <text x="328.859" xml:space="preserve" y="795.2798" clip-path="url(#clipPath2)" stroke="none">in world</text>
      <circle fill="none" r="33.4" clip-path="url(#clipPath2)" cx="349.5338" cy="775.8648"/>
    </g>
    <g fill="rgb(255,204,0)" text-rendering="geometricPrecision" shape-rendering="geometricPrecision" transform="matrix(1,0,0,1,-247,-273)" stroke="rgb(255,204,0)">
      <circle r="39" clip-path="url(#clipPath2)" cx="1409.8089" cy="717.4148" stroke="none"/>
    </g>
    <g text-rendering="geometricPrecision" stroke-miterlimit="1.45" shape-rendering="geometricPrecision" font-family="sans-serif" transform="matrix(1,0,0,1,-247,-273)" stroke-linecap="butt">
      <text x="1375.4553" xml:space="preserve" y="714.7781" clip-path="url(#clipPath2)" stroke="none">Feet position</text>
      <text x="1389.134" xml:space="preserve" y="729.4792" clip-path="url(#clipPath2)" stroke="none">in world</text>
      <circle fill="none" r="39" clip-path="url(#clipPath2)" cx="1409.8089" cy="717.4148"/>
    </g>
    <g fill="url(#linearGradient6)" text-rendering="geometricPrecision" shape-rendering="geometricPrecision" transform="matrix(1,0,0,1,-247,-273)" stroke="url(#linearGradient6)">
      <path d="M1048.9081 682.4148 L1225.6846 682.4148 L1225.6846 752.4148 L1048.9081 752.4148 Z" stroke="none" clip-path="url(#clipPath2)"/>
    </g>
    <g text-rendering="geometricPrecision" stroke-miterlimit="1.45" shape-rendering="geometricPrecision" transform="matrix(1,0,0,1,-247,-273)" stroke-linecap="butt">
      <path fill="none" d="M1048.9081 682.4148 L1225.6846 682.4148 L1225.6846 752.4148 L1048.9081 752.4148 Z" clip-path="url(#clipPath2)"/>
      <text x="1086.9351" xml:space="preserve" y="700.0769" clip-path="url(#clipPath2)" font-family="sans-serif" stroke="none">Collision detection,</text>
      <text x="1057.5854" xml:space="preserve" y="714.7781" clip-path="url(#clipPath2)" font-family="sans-serif" stroke="none">ground surface following, etc :</text>
      <text x="1075.9341" xml:space="preserve" y="729.4792" clip-path="url(#clipPath2)" font-family="sans-serif" stroke="none">Can we walk that way?</text>
      <text x="1078.5913" xml:space="preserve" y="744.1804" clip-path="url(#clipPath2)" font-family="sans-serif" stroke="none">Where do we end up?</text>
    </g>
    <g fill="url(#linearGradient7)" text-rendering="geometricPrecision" shape-rendering="geometricPrecision" transform="matrix(1,0,0,1,-247,-273)" stroke="url(#linearGradient7)">
      <rect x="289.0338" width="121" height="40" y="615.959" clip-path="url(#clipPath2)" stroke="none"/>
    </g>
    <g text-rendering="geometricPrecision" stroke-miterlimit="1.45" shape-rendering="geometricPrecision" transform="matrix(1,0,0,1,-247,-273)" stroke-linecap="butt">
      <path fill="none" d="M304.1588 615.959 L289.0338 615.959 L289.0338 655.959 L304.1588 655.959" clip-path="url(#clipPath2)"/>
      <text x="307.5866" xml:space="preserve" y="633.3223" clip-path="url(#clipPath2)" font-family="sans-serif" stroke="none">"relative to feet"</text>
      <text x="290.5036" xml:space="preserve" y="648.0235" clip-path="url(#clipPath2)" font-family="sans-serif" stroke="none">(along feet-local axes)</text>
    </g>
    <g fill="rgb(255,204,0)" text-rendering="geometricPrecision" shape-rendering="geometricPrecision" transform="matrix(1,0,0,1,-247,-273)" stroke="rgb(255,204,0)">
      <path d="M1429.7581 452.3547 L1452.8234 429.2894 L1485.4427 429.2894 L1508.5081 452.3547 L1508.5081 484.9741 L1485.4427 508.0394 L1452.8234 508.0394 L1429.7581 484.9741 Z" fill-rule="evenodd" clip-path="url(#clipPath2)" stroke="none"/>
    </g>
    <g stroke-linecap="butt" transform="matrix(1,0,0,1,-247,-273)" text-rendering="geometricPrecision" font-family="sans-serif" shape-rendering="geometricPrecision" font-weight="bold" stroke-miterlimit="1.45">
      <text x="1441.1252" xml:space="preserve" y="466.0277" clip-path="url(#clipPath2)" stroke="none">Feet pose</text>
      <text x="1446.135" xml:space="preserve" y="480.7289" clip-path="url(#clipPath2)" stroke="none">in world</text>
      <path fill="none" d="M1429.7581 452.3547 L1452.8234 429.2894 L1485.4427 429.2894 L1508.5081 452.3547 L1508.5081 484.9741 L1485.4427 508.0394 L1452.8234 508.0394 L1429.7581 484.9741 Z" fill-rule="evenodd" clip-path="url(#clipPath2)"/>
    </g>
    <g fill="rgb(255,204,0)" text-rendering="geometricPrecision" shape-rendering="geometricPrecision" transform="matrix(1,0,0,1,-247,-273)" stroke="rgb(255,204,0)">
      <path d="M1872.8831 349.7155 L1893.0195 329.579 L1921.4967 329.579 L1941.6331 349.7155 L1941.6331 378.1926 L1921.4967 398.329 L1893.0195 398.329 L1872.8831 378.1926 Z" fill-rule="evenodd" clip-path="url(#clipPath2)" stroke="none"/>
    </g>
    <g stroke-linecap="butt" transform="matrix(1,0,0,1,-247,-273)" text-rendering="geometricPrecision" font-family="sans-serif" shape-rendering="geometricPrecision" font-weight="bold" stroke-miterlimit="1.45">
      <text x="1876.9153" xml:space="preserve" y="361.3173" clip-path="url(#clipPath2)" stroke="none">Head pose</text>
      <text x="1884.26" xml:space="preserve" y="376.0185" clip-path="url(#clipPath2)" stroke="none">in world</text>
      <path fill="none" d="M1872.8831 349.7155 L1893.0195 329.579 L1921.4967 329.579 L1941.6331 349.7155 L1941.6331 378.1926 L1921.4967 398.329 L1893.0195 398.329 L1872.8831 378.1926 Z" fill-rule="evenodd" clip-path="url(#clipPath2)"/>
    </g>
    <g fill="url(#linearGradient8)" text-rendering="geometricPrecision" shape-rendering="geometricPrecision" transform="matrix(1,0,0,1,-247,-273)" stroke="url(#linearGradient8)">
      <path d="M1368.5081 809.4 L1508.5081 809.4 L1508.5081 874.4 L1368.5081 874.4 Z" stroke="none" clip-path="url(#clipPath2)"/>
    </g>
    <g text-rendering="geometricPrecision" stroke-miterlimit="1.45" shape-rendering="geometricPrecision" transform="matrix(1,0,0,1,-247,-273)" stroke-linecap="butt">
      <path fill="none" d="M1368.5081 809.4 L1508.5081 809.4 L1508.5081 874.4 L1368.5081 874.4 Z" clip-path="url(#clipPath2)"/>
      <text x="1395.8196" xml:space="preserve" y="831.9127" clip-path="url(#clipPath2)" font-family="sans-serif" stroke="none">Step simulation:</text>
      <text x="1381.4875" xml:space="preserve" y="846.6139" clip-path="url(#clipPath2)" font-family="sans-serif" stroke="none">nasty in VR, common</text>
      <text x="1411.8274" xml:space="preserve" y="861.3151" clip-path="url(#clipPath2)" font-family="sans-serif" stroke="none">in non-VR</text>
    </g>
    <g fill="rgb(255,204,0)" text-rendering="geometricPrecision" shape-rendering="geometricPrecision" transform="matrix(1,0,0,1,-247,-273)" stroke="rgb(255,204,0)">
      <ellipse rx="46.45" ry="45.6055" clip-path="url(#clipPath2)" cx="1671.8331" cy="724.0202" stroke="none"/>
    </g>
    <g text-rendering="geometricPrecision" stroke-miterlimit="1.45" shape-rendering="geometricPrecision" font-family="sans-serif" transform="matrix(1,0,0,1,-247,-273)" stroke-linecap="butt">
      <text x="1635.1417" xml:space="preserve" y="706.6824" clip-path="url(#clipPath2)" stroke="none">Head position</text>
      <text x="1646.4972" xml:space="preserve" y="721.3835" clip-path="url(#clipPath2)" stroke="none">WRT feet</text>
      <text x="1634.4825" xml:space="preserve" y="736.0847" clip-path="url(#clipPath2)" stroke="none">(generally just</text>
      <text x="1649.4855" xml:space="preserve" y="750.7859" clip-path="url(#clipPath2)" stroke="none">along Y)</text>
      <ellipse rx="46.45" fill="none" ry="45.6055" clip-path="url(#clipPath2)" cx="1671.8331" cy="724.0202"/>
    </g>
    <g fill="rgb(255,204,0)" text-rendering="geometricPrecision" shape-rendering="geometricPrecision" transform="matrix(1,0,0,1,-247,-273)" stroke="rgb(255,204,0)">
      <path d="M1004.8252 325.9023 L1050.2252 402.0058 L959.4252 402.0058 Z" fill-rule="evenodd" clip-path="url(#clipPath2)" stroke="none"/>
    </g>
    <g text-rendering="geometricPrecision" stroke-miterlimit="1.45" shape-rendering="geometricPrecision" font-family="sans-serif" transform="matrix(1,0,0,1,-247,-273)" stroke-linecap="butt">
      <text x="990.4814" xml:space="preserve" y="363.9667" clip-path="url(#clipPath2)" stroke="none">Head</text>
      <text x="976.8057" xml:space="preserve" y="378.6679" clip-path="url(#clipPath2)" stroke="none">orientation</text>
      <text x="975.1592" xml:space="preserve" y="393.3691" clip-path="url(#clipPath2)" stroke="none">WRT world</text>
      <path fill="none" d="M1004.8252 325.9023 L1050.2252 402.0058 L959.4252 402.0058 Z" clip-path="url(#clipPath2)" fill-rule="evenodd"/>
    </g>
    <g fill="url(#linearGradient9)" text-rendering="geometricPrecision" shape-rendering="geometricPrecision" transform="matrix(1,0,0,1,-247,-273)" stroke="url(#linearGradient9)">
      <circle r="25.625" clip-path="url(#clipPath2)" cx="856.45" cy="363.954" stroke="none"/>
    </g>
    <g text-rendering="geometricPrecision" stroke-miterlimit="1.45" shape-rendering="geometricPrecision" transform="matrix(1,0,0,1,-247,-273)" stroke-linecap="butt">
      <circle fill="none" r="25.625" clip-path="url(#clipPath2)" cx="856.45" cy="363.954"/>
      <text x="832.4383" xml:space="preserve" y="368.6679" clip-path="url(#clipPath2)" font-family="sans-serif" stroke="none">Combine</text>
    </g>
    <g fill="url(#linearGradient10)" text-rendering="geometricPrecision" shape-rendering="geometricPrecision" transform="matrix(1,0,0,1,-247,-273)" stroke="url(#linearGradient10)">
      <circle r="25.625" clip-path="url(#clipPath2)" cx="1812.8831" cy="363.954" stroke="none"/>
    </g>
    <g text-rendering="geometricPrecision" stroke-miterlimit="1.45" shape-rendering="geometricPrecision" transform="matrix(1,0,0,1,-247,-273)" stroke-linecap="butt">
      <circle fill="none" r="25.625" clip-path="url(#clipPath2)" cx="1812.8831" cy="363.954"/>
      <text x="1788.8713" xml:space="preserve" y="368.6679" clip-path="url(#clipPath2)" font-family="sans-serif" stroke="none">Combine</text>
    </g>
    <g fill="rgb(255,204,0)" text-rendering="geometricPrecision" shape-rendering="geometricPrecision" transform="matrix(1,0,0,1,-247,-273)" stroke="rgb(255,204,0)">
      <rect x="1248.0467" y="696.6548" clip-path="url(#clipPath2)" width="100.4" rx="4" ry="4" height="41.52" stroke="none"/>
    </g>
    <g stroke-linecap="butt" transform="matrix(1,0,0,1,-247,-273)" text-rendering="geometricPrecision" font-family="sans-serif" shape-rendering="geometricPrecision" font-weight="bold" stroke-miterlimit="1.45">
      <text x="1251.568" xml:space="preserve" y="714.7781" clip-path="url(#clipPath2)" stroke="none">3D Translational</text>
      <text x="1275.2369" xml:space="preserve" y="729.4792" clip-path="url(#clipPath2)" stroke="none">Velocity</text>
      <rect x="1248.0467" y="696.6548" clip-path="url(#clipPath2)" fill="none" width="100.4" rx="4" ry="4" height="41.52"/>
      <path fill="none" d="M537.9465 363.954 L656.3478 363.954" clip-path="url(#clipPath2)"/>
      <path d="M664.3478 363.954 L652.3478 358.954 L655.3478 363.954 L652.3478 368.954 Z" stroke="none" clip-path="url(#clipPath2)"/>
      <path fill="none" d="M537.9465 468.6644 L652.126 468.6644" clip-path="url(#clipPath2)"/>
      <path d="M660.126 468.6644 L648.126 463.6644 L651.126 468.6644 L648.126 473.6644 Z" stroke="none" clip-path="url(#clipPath2)"/>
      <path fill="none" d="M537.0775 594.1552 L757.8553 609.2127" clip-path="url(#clipPath2)"/>
      <path d="M765.8368 609.7571 L754.2048 603.9521 L756.8577 609.1447 L753.5244 613.929 Z" stroke="none" clip-path="url(#clipPath2)"/>
      <path fill="none" d="M735.0494 512.9766 L816.5786 588.1991" clip-path="url(#clipPath2)"/>
      <path d="M822.4583 593.624 L817.0292 581.8118 L815.8436 587.521 L810.2482 589.1615 Z" stroke="none" clip-path="url(#clipPath2)"/>
      <path fill="none" d="M540.5999 670.9022 L757.9852 631.2454" clip-path="url(#clipPath2)"/>
      <path d="M765.8553 629.8096 L753.1528 627.0444 L757.0015 631.4248 L754.9475 636.882 Z" stroke="none" clip-path="url(#clipPath2)"/>
      <path fill="none" d="M907.441 636.81 L1041.3347 683.7633" clip-path="url(#clipPath2)"/>
      <path d="M1048.8839 686.4107 L1039.2147 677.7213 L1040.391 683.4324 L1035.9054 687.1578 Z" stroke="none" clip-path="url(#clipPath2)"/>
      <path fill="none" d="M382.8423 773.3934 L1040.9518 724.5633" clip-path="url(#clipPath2)"/>
      <path d="M1048.9298 723.9714 L1036.5928 719.873 L1039.9545 724.6373 L1037.3326 729.8456 Z" stroke="none" clip-path="url(#clipPath2)"/>
      <path fill="none" d="M415.934 854.634 L1041.0721 735.7188" clip-path="url(#clipPath2)"/>
      <path d="M1048.9313 734.2238 L1036.2084 731.5543 L1040.0898 735.9056 L1038.077 741.3781 Z" stroke="none" clip-path="url(#clipPath2)"/>
      <path fill="none" stroke-dasharray="6,2" d="M409.3697 615.9548 L419.8064 612.4657" clip-path="url(#clipPath2)"/>
      <path stroke-dasharray="6,2" d="M427.3936 609.9292 L414.4275 608.9919 L418.858 612.7828 L417.5981 618.476 Z" clip-path="url(#clipPath2)" stroke="none"/>
      <path fill="none" stroke-dasharray="6,2" d="M409.7671 655.9679 L428.8666 662.3126" clip-path="url(#clipPath2)"/>
      <path stroke-dasharray="6,2" d="M436.4587 664.8346 L426.6468 656.3066 L427.9176 661.9974 L423.4943 665.7967 Z" clip-path="url(#clipPath2)" stroke="none"/>
      <path fill="none" d="M1418.8562 679.4787 L1457.881 515.8452" clip-path="url(#clipPath2)"/>
      <path d="M1459.7368 508.0634 L1452.0895 518.5761 L1457.649 516.8179 L1461.8167 520.8959 Z" stroke="none" clip-path="url(#clipPath2)"/>
      <path fill="none" d="M713.8977 468.6644 L1421.7211 468.6644" clip-path="url(#clipPath2)"/>
      <path d="M1429.7211 468.6644 L1417.7211 463.6644 L1420.7211 468.6644 L1417.7211 473.6644 Z" stroke="none" clip-path="url(#clipPath2)"/>
      <path fill="none" d="M1508.5198 841.9 L1534.5455 841.9 L1630.7982 759.2542" clip-path="url(#clipPath2)"/>
      <path d="M1636.8678 754.0426 L1624.5062 758.0664 L1630.0396 759.9056 L1631.0206 765.6534 Z" stroke="none" clip-path="url(#clipPath2)"/>
      <path fill="none" d="M709.7311 363.954 L822.8387 363.954" clip-path="url(#clipPath2)"/>
      <path d="M830.8387 363.954 L818.8387 358.954 L821.8387 363.954 L818.8387 368.954 Z" stroke="none" clip-path="url(#clipPath2)"/>
      <path fill="none" d="M706.5875 456.5726 L827.8752 381.614" clip-path="url(#clipPath2)"/>
      <path d="M834.6804 377.4081 L821.8439 379.4636 L827.0245 382.1397 L827.1012 387.9701 Z" stroke="none" clip-path="url(#clipPath2)"/>
      <path fill="none" d="M882.0607 363.954 L974.1365 363.954" clip-path="url(#clipPath2)"/>
      <path d="M982.1365 363.954 L970.1365 358.954 L973.1365 363.954 L970.1365 368.954 Z" stroke="none" clip-path="url(#clipPath2)"/>
      <path fill="none" d="M1439.1316 691.7014 L1787.592 386.132" clip-path="url(#clipPath2)"/>
      <path d="M1793.6069 380.8575 L1781.288 385.01 L1786.8402 386.7914 L1787.8812 392.5287 Z" stroke="none" clip-path="url(#clipPath2)"/>
      <path fill="none" d="M1027.5616 363.954 L1779.2394 363.954" clip-path="url(#clipPath2)"/>
      <path d="M1787.2394 363.954 L1775.2394 358.954 L1778.2394 363.954 L1775.2394 368.954 Z" stroke="none" clip-path="url(#clipPath2)"/>
      <path fill="none" d="M1688.5074 681.4545 L1800.6278 395.2387" clip-path="url(#clipPath2)"/>
      <path d="M1803.5458 387.7898 L1794.5133 397.1394 L1800.2631 396.1698 L1803.8243 400.7868 Z" stroke="none" clip-path="url(#clipPath2)"/>
      <path fill="none" d="M1838.5505 363.954 L1864.8707 363.954" clip-path="url(#clipPath2)"/>
      <path d="M1872.8707 363.954 L1860.8707 358.954 L1863.8707 363.954 L1860.8707 368.954 Z" stroke="none" clip-path="url(#clipPath2)"/>
      <path fill="none" d="M1225.6698 717.4148 L1240.0311 717.4148" clip-path="url(#clipPath2)"/>
      <path d="M1248.0311 717.4148 L1236.0311 712.4148 L1239.0311 717.4148 L1236.0311 722.4148 Z" stroke="none" clip-path="url(#clipPath2)"/>
      <path fill="none" d="M1321.635 738.1724 L1395.9164 804.0988" clip-path="url(#clipPath2)"/>
      <path d="M1401.8997 809.4092 L1396.2437 797.704 L1395.1685 803.435 L1389.6057 805.1832 Z" stroke="none" clip-path="url(#clipPath2)"/>
      <path fill="none" d="M1348.4442 717.4148 L1362.8088 717.4148" clip-path="url(#clipPath2)"/>
      <path d="M1370.8088 717.4148 L1358.8088 712.4148 L1361.8088 717.4148 L1358.8088 722.4148 Z" stroke="none" clip-path="url(#clipPath2)"/>
    </g>
    <g fill="rgb(245,245,245)" text-rendering="geometricPrecision" shape-rendering="geometricPrecision" transform="matrix(1,0,0,1,-247,-273)" stroke="rgb(245,245,245)">
      <rect x="262.5338" y="934.6883" clip-path="url(#clipPath2)" width="631.3162" rx="4" ry="4" height="122.3765" stroke="none"/>
      <rect x="262.5338" y="934.6883" clip-path="url(#clipPath2)" fill="rgb(235,235,235)" width="631.3162" height="22.3765" stroke="none"/>
    </g>
    <g font-size="15px" stroke-linecap="butt" transform="matrix(1,0,0,1,-247,-273)" text-rendering="geometricPrecision" font-family="sans-serif" shape-rendering="geometricPrecision" stroke-miterlimit="1.45">
      <text x="529.0903" xml:space="preserve" y="951.7689" clip-path="url(#clipPath2)" stroke="none">Adding "Jump"</text>
      <rect x="262.5338" y="934.6883" clip-path="url(#clipPath2)" fill="none" width="631.3162" stroke-dasharray="6,2" rx="4" ry="4" height="122.3765"/>
    </g>
    <g fill="url(#linearGradient11)" text-rendering="geometricPrecision" shape-rendering="geometricPrecision" transform="matrix(1,0,0,1,-247,-273)" stroke="url(#linearGradient11)">
      <path d="M437.8852 985.3636 L543.5149 985.3636 L532.4473 1028.766 L426.8176 1028.766 Z" stroke="none" clip-path="url(#clipPath2)"/>
    </g>
    <g text-rendering="geometricPrecision" stroke-miterlimit="1.45" shape-rendering="geometricPrecision" transform="matrix(1,0,0,1,-247,-273)" stroke-linecap="butt">
      <path fill="none" d="M437.8852 985.3636 L543.5149 985.3636 L532.4473 1028.766 L426.8176 1028.766 Z" clip-path="url(#clipPath2)"/>
      <text x="481.1643" xml:space="preserve" y="1004.428" clip-path="url(#clipPath2)" font-family="sans-serif" stroke="none">A</text>
      <text x="468.1653" xml:space="preserve" y="1019.1292" clip-path="url(#clipPath2)" font-family="sans-serif" stroke="none">(jump)</text>
    </g>
    <g fill="url(#linearGradient12)" text-rendering="geometricPrecision" shape-rendering="geometricPrecision" transform="matrix(1,0,0,1,-247,-273)" stroke="url(#linearGradient12)">
      <path d="M647.0735 972.0648 L878.85 972.0648 L878.85 1042.0648 L647.0735 1042.0648 Z" stroke="none" clip-path="url(#clipPath2)"/>
    </g>
    <g text-rendering="geometricPrecision" stroke-miterlimit="1.45" shape-rendering="geometricPrecision" transform="matrix(1,0,0,1,-247,-273)" stroke-linecap="butt">
      <path fill="none" d="M647.0735 972.0648 L878.85 972.0648 L878.85 1042.0648 L647.0735 1042.0648 Z" clip-path="url(#clipPath2)"/>
      <text x="693.5926" xml:space="preserve" y="989.7269" clip-path="url(#clipPath2)" font-family="sans-serif" stroke="none">May affect ground surface</text>
      <text x="677.242" xml:space="preserve" y="1004.428" clip-path="url(#clipPath2)" font-family="sans-serif" stroke="none">following and collision detection:</text>
      <text x="655.5711" xml:space="preserve" y="1019.1292" clip-path="url(#clipPath2)" font-family="sans-serif" stroke="none">provides a third dimension of locomotion</text>
      <text x="671.2391" xml:space="preserve" y="1033.8304" clip-path="url(#clipPath2)" font-family="sans-serif" stroke="none">intent to affect the feet in the world</text>
    </g>
    <g text-rendering="geometricPrecision" stroke-miterlimit="1.45" shape-rendering="geometricPrecision" transform="matrix(1,0,0,1,-247,-273)" stroke-linecap="butt">
      <path fill="none" d="M537.965 1007.0648 L639.0851 1007.0648" clip-path="url(#clipPath2)"/>
      <path d="M647.0851 1007.0648 L635.0851 1002.0648 L638.0851 1007.0648 L635.0851 1012.0648 Z" clip-path="url(#clipPath2)" stroke="none"/>
      <path fill="none" d="M878.8255 1007.0648 L910.25 1007.0648 L1104.9502 758.6797" clip-path="url(#clipPath2)"/>
      <path d="M1109.8856 752.3835 L1098.5474 758.7431 L1104.3333 759.4667 L1106.4176 764.9124 Z" clip-path="url(#clipPath2)" stroke="none"/>
    </g>
    <g fill="rgb(245,245,245)" text-rendering="geometricPrecision" shape-rendering="geometricPrecision" transform="matrix(1,0,0,1,-247,-273)" stroke="rgb(245,245,245)">
      <rect x="262.5338" y="1072.0648" clip-path="url(#clipPath2)" width="685.4279" rx="4" ry="4" height="252.2684" stroke="none"/>
      <rect x="262.5338" y="1072.0648" clip-path="url(#clipPath2)" fill="rgb(235,235,235)" width="685.4279" height="22.3765" stroke="none"/>
    </g>
    <g font-size="15px" stroke-linecap="butt" transform="matrix(1,0,0,1,-247,-273)" text-rendering="geometricPrecision" font-family="sans-serif" shape-rendering="geometricPrecision" stroke-miterlimit="1.45">
      <text x="550.3088" xml:space="preserve" y="1089.1454" clip-path="url(#clipPath2)" stroke="none">Adding "Crouch"</text>
      <rect x="262.5338" y="1072.0648" clip-path="url(#clipPath2)" fill="none" width="685.4279" stroke-dasharray="6,2" rx="4" ry="4" height="252.2684"/>
    </g>
    <g fill="url(#linearGradient13)" text-rendering="geometricPrecision" shape-rendering="geometricPrecision" transform="matrix(1,0,0,1,-247,-273)" stroke="url(#linearGradient13)">
      <path d="M437.8852 1220.1877 L543.5149 1220.1877 L532.4473 1263.5901 L426.8176 1263.5901 Z" stroke="none" clip-path="url(#clipPath2)"/>
    </g>
    <g text-rendering="geometricPrecision" stroke-miterlimit="1.45" shape-rendering="geometricPrecision" transform="matrix(1,0,0,1,-247,-273)" stroke-linecap="butt">
      <path fill="none" d="M437.8852 1220.1877 L543.5149 1220.1877 L532.4473 1263.5901 L426.8176 1263.5901 Z" clip-path="url(#clipPath2)"/>
      <text x="432.1535" xml:space="preserve" y="1239.2522" clip-path="url(#clipPath2)" font-family="sans-serif" stroke="none">Click left thumbstick</text>
      <text x="463.1613" xml:space="preserve" y="1253.9534" clip-path="url(#clipPath2)" font-family="sans-serif" stroke="none">(crouch)</text>
    </g>
    <g fill="rgb(255,204,0)" text-rendering="geometricPrecision" shape-rendering="geometricPrecision" transform="matrix(1,0,0,1,-247,-273)" stroke="rgb(255,204,0)">
      <circle r="43.5562" clip-path="url(#clipPath2)" cx="349.5338" cy="1152.9975" stroke="none"/>
    </g>
    <g text-rendering="geometricPrecision" stroke-miterlimit="1.45" shape-rendering="geometricPrecision" font-family="sans-serif" transform="matrix(1,0,0,1,-247,-273)" stroke-linecap="butt">
      <text x="326.1901" xml:space="preserve" y="1143.0101" clip-path="url(#clipPath2)" stroke="none">Previous</text>
      <text x="313.8385" xml:space="preserve" y="1157.7113" clip-path="url(#clipPath2)" stroke="none">head position</text>
      <text x="311.8463" xml:space="preserve" y="1172.4125" clip-path="url(#clipPath2)" stroke="none">relative to feet</text>
      <circle fill="none" r="43.5562" clip-path="url(#clipPath2)" cx="349.5338" cy="1152.9975"/>
    </g>
    <g fill="url(#linearGradient14)" text-rendering="geometricPrecision" shape-rendering="geometricPrecision" transform="matrix(1,0,0,1,-247,-273)" stroke="url(#linearGradient14)">
      <path d="M611.7117 1171.8889 L914.2117 1171.8889 L914.2117 1221.8889 L611.7117 1221.8889 Z" stroke="none" clip-path="url(#clipPath2)"/>
    </g>
    <g text-rendering="geometricPrecision" stroke-miterlimit="1.45" shape-rendering="geometricPrecision" transform="matrix(1,0,0,1,-247,-273)" stroke-linecap="butt">
      <path fill="none" d="M611.7117 1171.8889 L914.2117 1171.8889 L914.2117 1221.8889 L611.7117 1221.8889 Z" clip-path="url(#clipPath2)"/>
      <text x="615.8856" xml:space="preserve" y="1194.2522" clip-path="url(#clipPath2)" font-family="sans-serif" stroke="none">May affect collision detection (ducking under obstacles)</text>
      <text x="640.5447" xml:space="preserve" y="1208.9534" clip-path="url(#clipPath2)" font-family="sans-serif" stroke="none">without conveying any additional foot intention</text>
    </g>
    <g fill="url(#linearGradient15)" text-rendering="geometricPrecision" shape-rendering="geometricPrecision" transform="matrix(1,0,0,1,-247,-273)" stroke="url(#linearGradient15)">
      <path d="M624.2117 1269.3333 L901.7117 1269.3333 L901.7117 1309.3333 L624.2117 1309.3333 Z" stroke="none" clip-path="url(#clipPath2)"/>
    </g>
    <g text-rendering="geometricPrecision" stroke-miterlimit="1.45" shape-rendering="geometricPrecision" transform="matrix(1,0,0,1,-247,-273)" stroke-linecap="butt">
      <path fill="none" d="M624.2117 1269.3333 L901.7117 1269.3333 L901.7117 1309.3333 L624.2117 1309.3333 Z" clip-path="url(#clipPath2)"/>
      <text x="626.8777" xml:space="preserve" y="1286.6965" clip-path="url(#clipPath2)" font-family="sans-serif" stroke="none">Affects the position of the torso (and thus the head)</text>
      <text x="715.2664" xml:space="preserve" y="1301.3977" clip-path="url(#clipPath2)" font-family="sans-serif" stroke="none">relative to the feet</text>
    </g>
    <g fill="url(#linearGradient16)" text-rendering="geometricPrecision" shape-rendering="geometricPrecision" transform="matrix(1,0,0,1,-247,-273)" stroke="url(#linearGradient16)">
      <rect x="1584.6142" width="357.0189" height="43.4023" y="1232.2258" clip-path="url(#clipPath2)" stroke="none"/>
    </g>
    <g text-rendering="geometricPrecision" stroke-miterlimit="1.45" shape-rendering="geometricPrecision" transform="matrix(1,0,0,1,-247,-273)" stroke-linecap="butt">
      <path fill="none" d="M1629.2416 1232.2258 L1584.6143 1232.2258 L1584.6143 1275.6282 L1629.2416 1275.6282" clip-path="url(#clipPath2)"/>
      <text x="1589.7125" xml:space="preserve" y="1251.2903" clip-path="url(#clipPath2)" font-family="sans-serif" stroke="none">Control reference: TF2 XBOX360 version or controller on PC, per</text>
      <text x="1589.7125" xml:space="preserve" y="1265.9915" clip-path="url(#clipPath2)" font-family="sans-serif" stroke="none">http://wiki.teamfortress.com/wiki/Xbox_360_controls</text>
    </g>
    <g text-rendering="geometricPrecision" stroke-miterlimit="1.45" shape-rendering="geometricPrecision" transform="matrix(1,0,0,1,-247,-273)" stroke-linecap="butt">
      <path fill="none" d="M540.2709 1232.9625 L603.8405 1222.6649" clip-path="url(#clipPath2)"/>
      <path d="M611.7375 1221.3857 L599.0925 1218.3689 L602.8533 1222.8248 L600.6914 1228.2402 Z" clip-path="url(#clipPath2)" stroke="none"/>
      <path fill="none" d="M392.8467 1157.5958 L603.7888 1179.9904" clip-path="url(#clipPath2)"/>
      <path d="M611.744 1180.835 L600.3389 1174.5959 L602.7943 1179.8848 L599.2832 1184.5402 Z" clip-path="url(#clipPath2)" stroke="none"/>
      <path fill="none" d="M914.207 1196.8889 L931.35 1196.8889 L1119.1179 759.7368" clip-path="url(#clipPath2)"/>
      <path d="M1122.2753 752.3862 L1112.9452 761.4388 L1118.7233 760.6556 L1122.1334 765.3854 Z" clip-path="url(#clipPath2)" stroke="none"/>
      <path fill="none" d="M535.7947 1250.5358 L637.9706 1267.9862" clip-path="url(#clipPath2)"/>
      <path d="M645.8564 1269.333 L634.8694 1262.3842 L636.9849 1267.8179 L633.186 1272.2415 Z" clip-path="url(#clipPath2)" stroke="none"/>
      <path fill="none" d="M901.695 1289.3333 L1242.6 1289.3333 L1639.2332 766.9553" clip-path="url(#clipPath2)"/>
      <path d="M1644.0709 760.5838 L1632.832 767.1174 L1638.6284 767.7517 L1640.7964 773.1647 Z" clip-path="url(#clipPath2)" stroke="none"/>
    </g>
  </g>
</svg>
