<?xml version="1.0" encoding="UTF-8"?><svg xmlns="http://www.w3.org/2000/svg" xmlns:xlink="http://www.w3.org/1999/xlink" fill-opacity="1" color-rendering="auto" color-interpolation="auto" text-rendering="auto" stroke="black" stroke-linecap="square" width="1128" stroke-miterlimit="10" shape-rendering="auto" stroke-opacity="1" fill="black" stroke-dasharray="none" font-weight="normal" stroke-width="1" height="710" font-family="'Dialog'" font-style="normal" stroke-linejoin="miter" font-size="12px" stroke-dashoffset="0" image-rendering="auto">
  <!--Generated by ySVG 2.5-->
  <defs id="genericDefs"/>
  <g>
    <defs id="defs1">
      <linearGradient x1="-212.4408" gradientUnits="userSpaceOnUse" x2="-132.4408" y1="322.7483" y2="362.7483" id="linearGradient1" spreadMethod="reflect">
        <stop stop-opacity="1" stop-color="rgb(232,238,247)" offset="0%"/>
        <stop stop-opacity="1" stop-color="rgb(183,201,227)" offset="100%"/>
      </linearGradient>
      <linearGradient x1="-212.4408" gradientUnits="userSpaceOnUse" x2="-132.4408" y1="632.5295" y2="672.5295" id="linearGradient2" spreadMethod="reflect">
        <stop stop-opacity="1" stop-color="rgb(232,238,247)" offset="0%"/>
        <stop stop-opacity="1" stop-color="rgb(183,201,227)" offset="100%"/>
      </linearGradient>
      <linearGradient x1="-223.6908" gradientUnits="userSpaceOnUse" x2="-121.1908" y1="699.9242" y2="751.1742" id="linearGradient3" spreadMethod="reflect">
        <stop stop-opacity="1" stop-color="rgb(232,238,247)" offset="0%"/>
        <stop stop-opacity="1" stop-color="rgb(183,201,227)" offset="100%"/>
      </linearGradient>
      <linearGradient x1="-229.1283" gradientUnits="userSpaceOnUse" x2="-115.7533" y1="845.5636" y2="888.9659" id="linearGradient4" spreadMethod="reflect">
        <stop stop-opacity="1" stop-color="rgb(232,238,247)" offset="0%"/>
        <stop stop-opacity="1" stop-color="rgb(183,201,227)" offset="100%"/>
      </linearGradient>
      <linearGradient x1="-197.4408" gradientUnits="userSpaceOnUse" x2="-147.4408" y1="916.3607" y2="946.3607" id="linearGradient5" spreadMethod="reflect">
        <stop stop-opacity="1" stop-color="rgb(232,238,247)" offset="0%"/>
        <stop stop-opacity="1" stop-color="rgb(183,201,227)" offset="100%"/>
      </linearGradient>
      <linearGradient x1="45.026" gradientUnits="userSpaceOnUse" x2="341.1373" y1="456.0232" y2="486.0232" id="linearGradient6" spreadMethod="reflect">
        <stop stop-opacity="1" stop-color="rgb(232,238,247)" offset="0%"/>
        <stop stop-opacity="1" stop-color="rgb(183,201,227)" offset="100%"/>
      </linearGradient>
      <linearGradient x1="45.026" gradientUnits="userSpaceOnUse" x2="341.1373" y1="515.2956" y2="570.8203" id="linearGradient7" spreadMethod="reflect">
        <stop stop-opacity="1" stop-color="rgb(232,238,247)" offset="0%"/>
        <stop stop-opacity="1" stop-color="rgb(183,201,227)" offset="100%"/>
      </linearGradient>
      <linearGradient x1="45.026" gradientUnits="userSpaceOnUse" x2="341.1373" y1="600.0927" y2="643.495" id="linearGradient8" spreadMethod="reflect">
        <stop stop-opacity="1" stop-color="rgb(232,238,247)" offset="0%"/>
        <stop stop-opacity="1" stop-color="rgb(183,201,227)" offset="100%"/>
      </linearGradient>
      <linearGradient x1="45.026" gradientUnits="userSpaceOnUse" x2="341.1373" y1="672.7674" y2="716.1697" id="linearGradient9" spreadMethod="reflect">
        <stop stop-opacity="1" stop-color="rgb(232,238,247)" offset="0%"/>
        <stop stop-opacity="1" stop-color="rgb(183,201,227)" offset="100%"/>
      </linearGradient>
      <linearGradient x1="45.026" gradientUnits="userSpaceOnUse" x2="341.1373" y1="746.1697" y2="789.5721" id="linearGradient10" spreadMethod="reflect">
        <stop stop-opacity="1" stop-color="rgb(232,238,247)" offset="0%"/>
        <stop stop-opacity="1" stop-color="rgb(183,201,227)" offset="100%"/>
      </linearGradient>
      <linearGradient x1="488.0416" gradientUnits="userSpaceOnUse" x2="829.0416" y1="750.9436" y2="806.4683" id="linearGradient11" spreadMethod="reflect">
        <stop stop-opacity="1" stop-color="rgb(232,238,247)" offset="0%"/>
        <stop stop-opacity="1" stop-color="rgb(183,201,227)" offset="100%"/>
      </linearGradient>
      <clipPath clipPathUnits="userSpaceOnUse" id="clipPath1">
        <path d="M0 0 L1128 0 L1128 710 L0 710 L0 0 Z"/>
      </clipPath>
      <clipPath clipPathUnits="userSpaceOnUse" id="clipPath2">
        <path d="M-268 267 L860 267 L860 977 L-268 977 L-268 267 Z"/>
      </clipPath>
      <clipPath clipPathUnits="userSpaceOnUse" id="clipPath3">
        <path d="M51.026 517.2956 L51.026 568.8203 L343.1373 568.8203 L343.1373 517.2956 Z"/>
      </clipPath>
    </defs>
    <g fill="rgb(245,245,245)" text-rendering="geometricPrecision" shape-rendering="geometricPrecision" transform="matrix(1,0,0,1,268,-267)" stroke="rgb(245,245,245)">
      <rect x="-252.2318" y="282.227" clip-path="url(#clipPath2)" width="170.2285" rx="4" ry="4" height="679.1337" stroke="none"/>
    </g>
    <g fill="rgb(235,235,235)" text-rendering="geometricPrecision" shape-rendering="geometricPrecision" transform="matrix(1,0,0,1,268,-267)" stroke="rgb(235,235,235)">
      <rect x="-252.2318" width="170.2285" height="22.3765" y="282.227" clip-path="url(#clipPath2)" stroke="none"/>
    </g>
    <g font-size="15px" stroke-linecap="butt" transform="matrix(1,0,0,1,268,-267)" text-rendering="geometricPrecision" font-family="sans-serif" shape-rendering="geometricPrecision" stroke-miterlimit="1.45">
      <text x="-192.1444" xml:space="preserve" y="299.3076" clip-path="url(#clipPath2)" stroke="none">Legend</text>
      <rect x="-252.2318" y="282.227" clip-path="url(#clipPath2)" fill="none" width="170.2285" stroke-dasharray="6,2" rx="4" ry="4" height="679.1337"/>
    </g>
    <g fill="rgb(255,204,0)" text-rendering="geometricPrecision" shape-rendering="geometricPrecision" transform="matrix(1,0,0,1,268,-267)" stroke="rgb(255,204,0)">
      <path d="M-172.4408 390.143 L-132.4408 433.5454 L-212.4408 433.5454 Z" fill-rule="evenodd" clip-path="url(#clipPath2)" stroke="none"/>
    </g>
    <g text-rendering="geometricPrecision" stroke-miterlimit="1.45" shape-rendering="geometricPrecision" font-family="sans-serif" transform="matrix(1,0,0,1,268,-267)" stroke-linecap="butt">
      <text x="-200.4603" xml:space="preserve" y="424.9087" clip-path="url(#clipPath2)" stroke="none">orientation</text>
      <path fill="none" d="M-172.4408 390.143 L-132.4408 433.5454 L-212.4408 433.5454 Z" clip-path="url(#clipPath2)" fill-rule="evenodd"/>
    </g>
    <g fill="url(#linearGradient1)" text-rendering="geometricPrecision" shape-rendering="geometricPrecision" transform="matrix(1,0,0,1,268,-267)" stroke="url(#linearGradient1)">
      <path d="M-202.2408 322.7483 L-132.4408 322.7483 L-142.6408 362.7483 L-212.4408 362.7483 Z" stroke="none" clip-path="url(#clipPath2)"/>
    </g>
    <g text-rendering="geometricPrecision" stroke-miterlimit="1.45" shape-rendering="geometricPrecision" transform="matrix(1,0,0,1,268,-267)" stroke-linecap="butt">
      <path fill="none" d="M-202.2408 322.7483 L-132.4408 322.7483 L-142.6408 362.7483 L-212.4408 362.7483 Z" clip-path="url(#clipPath2)"/>
      <text x="-185.4515" xml:space="preserve" y="347.4622" clip-path="url(#clipPath2)" font-family="sans-serif" stroke="none">input</text>
    </g>
    <g fill="rgb(255,204,0)" text-rendering="geometricPrecision" shape-rendering="geometricPrecision" transform="matrix(1,0,0,1,268,-267)" stroke="rgb(255,204,0)">
      <circle r="33.4" clip-path="url(#clipPath2)" cx="-172.4408" cy="494.3401" stroke="none"/>
    </g>
    <g text-rendering="geometricPrecision" stroke-miterlimit="1.45" shape-rendering="geometricPrecision" font-family="sans-serif" transform="matrix(1,0,0,1,268,-267)" stroke-linecap="butt">
      <text x="-193.1214" xml:space="preserve" y="491.7034" clip-path="url(#clipPath2)" stroke="none">position</text>
      <text x="-204.1195" xml:space="preserve" y="506.4045" clip-path="url(#clipPath2)" stroke="none">(translation)</text>
      <circle fill="none" r="33.4" clip-path="url(#clipPath2)" cx="-172.4408" cy="494.3401"/>
    </g>
    <g fill="url(#linearGradient2)" text-rendering="geometricPrecision" shape-rendering="geometricPrecision" transform="matrix(1,0,0,1,268,-267)" stroke="url(#linearGradient2)">
      <path d="M-207.4408 632.5295 L-132.4408 632.5295 Q-142.4408 652.5295 -132.4408 672.5295 L-207.4408 672.5295 Q-217.4408 652.5295 -207.4408 632.5295 Z" stroke="none" clip-path="url(#clipPath2)"/>
    </g>
    <g text-rendering="geometricPrecision" stroke-miterlimit="1.45" shape-rendering="geometricPrecision" transform="matrix(1,0,0,1,268,-267)" stroke-linecap="butt">
      <path fill="none" d="M-207.4408 632.5295 L-132.4408 632.5295 Q-142.4408 652.5295 -132.4408 672.5295 L-207.4408 672.5295 Q-217.4408 652.5295 -207.4408 632.5295 Z" clip-path="url(#clipPath2)"/>
      <text x="-198.7874" xml:space="preserve" y="657.2433" clip-path="url(#clipPath2)" font-family="sans-serif" stroke="none">Env. Data</text>
    </g>
    <g fill="rgb(255,204,0)" text-rendering="geometricPrecision" shape-rendering="geometricPrecision" transform="matrix(1,0,0,1,268,-267)" stroke="rgb(255,204,0)">
      <path d="M-197.4408 569.7794 L-182.7961 555.1348 L-162.0854 555.1348 L-147.4408 569.7794 L-147.4408 590.4901 L-162.0854 605.1348 L-182.7961 605.1348 L-197.4408 590.4901 Z" fill-rule="evenodd" clip-path="url(#clipPath2)" stroke="none"/>
    </g>
    <g text-rendering="geometricPrecision" stroke-miterlimit="1.45" shape-rendering="geometricPrecision" font-family="sans-serif" transform="matrix(1,0,0,1,268,-267)" stroke-linecap="butt">
      <text x="-186.1165" xml:space="preserve" y="584.8486" clip-path="url(#clipPath2)" stroke="none">Pose</text>
      <path fill="none" d="M-197.4408 569.7794 L-182.7961 555.1348 L-162.0854 555.1348 L-147.4408 569.7794 L-147.4408 590.4901 L-162.0854 605.1348 L-182.7961 605.1348 L-197.4408 590.4901 Z" clip-path="url(#clipPath2)" fill-rule="evenodd"/>
    </g>
    <g fill="url(#linearGradient3)" text-rendering="geometricPrecision" shape-rendering="geometricPrecision" transform="matrix(1,0,0,1,268,-267)" stroke="url(#linearGradient3)">
      <circle r="25.625" clip-path="url(#clipPath2)" cx="-172.4408" cy="725.5492" stroke="none"/>
    </g>
    <g text-rendering="geometricPrecision" stroke-miterlimit="1.45" shape-rendering="geometricPrecision" transform="matrix(1,0,0,1,268,-267)" stroke-linecap="butt">
      <circle fill="none" r="25.625" clip-path="url(#clipPath2)" cx="-172.4408" cy="725.5492"/>
      <text x="-196.4525" xml:space="preserve" y="730.2631" clip-path="url(#clipPath2)" font-family="sans-serif" stroke="none">Combine</text>
    </g>
    <g fill="url(#linearGradient4)" text-rendering="geometricPrecision" shape-rendering="geometricPrecision" transform="matrix(1,0,0,1,268,-267)" stroke="url(#linearGradient4)">
      <path d="M-229.1283 845.5636 L-115.7533 845.5636 L-115.7533 888.9659 L-229.1283 888.9659 Z" stroke="none" clip-path="url(#clipPath2)"/>
    </g>
    <g text-rendering="geometricPrecision" stroke-miterlimit="1.45" shape-rendering="geometricPrecision" transform="matrix(1,0,0,1,268,-267)" stroke-linecap="butt">
      <path fill="none" d="M-229.1283 845.5636 L-115.7533 845.5636 L-115.7533 888.9659 L-229.1283 888.9659 Z" clip-path="url(#clipPath2)"/>
      <text x="-207.4593" xml:space="preserve" y="864.6281" clip-path="url(#clipPath2)" font-family="sans-serif" stroke="none">Some kind of</text>
      <text x="-222.1283" xml:space="preserve" y="879.3292" clip-path="url(#clipPath2)" font-family="sans-serif" stroke="none">process, logic, etc.</text>
    </g>
    <g fill="rgb(255,204,0)" text-rendering="geometricPrecision" shape-rendering="geometricPrecision" transform="matrix(1,0,0,1,268,-267)" stroke="rgb(255,204,0)">
      <rect x="-217.0408" y="778.5689" clip-path="url(#clipPath2)" width="89.2" rx="4" ry="4" height="39.6" stroke="none"/>
    </g>
    <g text-rendering="geometricPrecision" stroke-miterlimit="1.45" shape-rendering="geometricPrecision" font-family="sans-serif" transform="matrix(1,0,0,1,268,-267)" stroke-linecap="butt">
      <text x="-211.7953" xml:space="preserve" y="795.7322" clip-path="url(#clipPath2)" stroke="none">Other quantity/</text>
      <text x="-202.1214" xml:space="preserve" y="810.4333" clip-path="url(#clipPath2)" stroke="none">information</text>
      <rect x="-217.0408" y="778.5689" clip-path="url(#clipPath2)" fill="none" width="89.2" rx="4" ry="4" height="39.6"/>
    </g>
    <g fill="url(#linearGradient5)" text-rendering="geometricPrecision" shape-rendering="geometricPrecision" transform="matrix(1,0,0,1,268,-267)" stroke="url(#linearGradient5)">
      <rect x="-197.4408" width="50" height="30" y="916.3607" clip-path="url(#clipPath2)" stroke="none"/>
    </g>
    <g text-rendering="geometricPrecision" stroke-miterlimit="1.45" shape-rendering="geometricPrecision" transform="matrix(1,0,0,1,268,-267)" stroke-linecap="butt">
      <path fill="none" d="M-191.1908 916.3607 L-197.4408 916.3607 L-197.4408 946.3607 L-191.1908 946.3607" clip-path="url(#clipPath2)"/>
      <text x="-191.4408" xml:space="preserve" y="936.0745" clip-path="url(#clipPath2)" font-family="sans-serif" stroke="none">Note</text>
    </g>
    <g fill="rgb(245,245,245)" text-rendering="geometricPrecision" shape-rendering="geometricPrecision" transform="matrix(1,0,0,1,268,-267)" stroke="rgb(245,245,245)">
      <rect x="30.026" y="418.6467" clip-path="url(#clipPath2)" width="330.1113" rx="4" ry="4" height="385.9253" stroke="none"/>
      <rect x="30.026" y="418.6467" clip-path="url(#clipPath2)" fill="rgb(235,235,235)" width="330.1113" height="22.3765" stroke="none"/>
    </g>
    <g font-size="15px" stroke-linecap="butt" transform="matrix(1,0,0,1,268,-267)" text-rendering="geometricPrecision" font-family="sans-serif" shape-rendering="geometricPrecision" stroke-miterlimit="1.45">
      <text x="261.421" xml:space="preserve" y="435.7273" clip-path="url(#clipPath2)" stroke="none">General Notes</text>
      <rect x="30.026" y="418.6467" clip-path="url(#clipPath2)" fill="none" width="330.1113" stroke-dasharray="6,2" rx="4" ry="4" height="385.9253"/>
    </g>
    <g fill="url(#linearGradient6)" text-rendering="geometricPrecision" shape-rendering="geometricPrecision" transform="matrix(1,0,0,1,268,-267)" stroke="url(#linearGradient6)">
      <rect x="45.026" width="296.1113" height="30" y="456.0232" clip-path="url(#clipPath2)" stroke="none"/>
    </g>
    <g text-rendering="geometricPrecision" stroke-miterlimit="1.45" shape-rendering="geometricPrecision" transform="matrix(1,0,0,1,268,-267)" stroke-linecap="butt">
      <path fill="none" d="M82.0399 456.0232 L45.026 456.0232 L45.026 486.0232 L82.0399 486.0232" clip-path="url(#clipPath2)"/>
      <text x="51.026" xml:space="preserve" y="475.7371" clip-path="url(#clipPath2)" font-family="sans-serif" stroke="none">WRT=With respect to</text>
    </g>
    <g fill="url(#linearGradient7)" text-rendering="geometricPrecision" shape-rendering="geometricPrecision" transform="matrix(1,0,0,1,268,-267)" stroke="url(#linearGradient7)">
      <rect x="45.026" width="296.1113" height="55.5247" y="515.2956" clip-path="url(#clipPath2)" stroke="none"/>
    </g>
    <g text-rendering="geometricPrecision" stroke-miterlimit="1.45" shape-rendering="geometricPrecision" transform="matrix(1,0,0,1,268,-267)" stroke-linecap="butt">
      <path fill="none" d="M82.0399 515.2956 L45.026 515.2956 L45.026 570.8203 L82.0399 570.8203" clip-path="url(#clipPath2)"/>
      <path stroke-miterlimit="10" d="M51.8697 523.8132 L51.5729 522.1725 L51.5729 520.7663 L52.776 520.7663 L52.776 522.1725 L52.5104 523.8132 L51.8697 523.8132 ZM53.8072 523.8132 L53.526 522.1725 L53.526 520.7663 L54.7291 520.7663 L54.7291 522.1725 L54.4479 523.8132 L53.8072 523.8132 ZM57.7076 529.36 L55.4264 520.7663 L56.5983 520.7663 L57.9108 526.4069 Q58.1139 527.2819 58.2701 528.1569 Q58.5983 526.7819 58.6608 526.5632 L60.2858 520.7663 L61.6608 520.7663 L62.8951 525.11 Q63.3483 526.735 63.567 528.1569 Q63.7233 527.3444 63.9889 526.2819 L65.3326 520.7663 L66.4733 520.7663 L64.1295 529.36 L63.0201 529.36 L61.2233 522.8132 Q60.9889 522.0007 60.942 521.8132 Q60.817 522.3913 60.692 522.8132 L58.8795 529.36 L57.7076 529.36 ZM67.5494 529.36 L67.5494 520.7663 L71.3619 520.7663 Q72.5182 520.7663 73.1119 521.0007 Q73.7057 521.235 74.065 521.821 Q74.4244 522.4069 74.4244 523.11 Q74.4244 524.0319 73.8307 524.6569 Q73.2369 525.2819 72.0025 525.4538 Q72.4557 525.6725 72.69 525.8757 Q73.19 526.3288 73.6275 527.0163 L75.1275 529.36 L73.69 529.36 L72.565 527.5788 Q72.065 526.7975 71.7447 526.3913 Q71.4244 525.985 71.1666 525.821 Q70.9088 525.6569 70.6432 525.5788 Q70.4557 525.5475 70.0182 525.5475 L68.69 525.5475 L68.69 529.36 L67.5494 529.36 ZM68.69 524.5632 L71.1432 524.5632 Q71.9088 524.5632 72.3541 524.3991 Q72.7994 524.235 73.026 523.8835 Q73.2525 523.5319 73.2525 523.11 Q73.2525 522.5007 72.8072 522.11 Q72.3619 521.7194 71.4088 521.7194 L68.69 521.7194 L68.69 524.5632 ZM78.3873 529.36 L78.3873 521.7819 L75.5592 521.7819 L75.5592 520.7663 L82.3717 520.7663 L82.3717 521.7819 L79.5279 521.7819 L79.5279 529.36 L78.3873 529.36 ZM83.4518 523.8132 L83.1549 522.1725 L83.1549 520.7663 L84.358 520.7663 L84.358 522.1725 L84.0924 523.8132 L83.4518 523.8132 ZM85.3893 523.8132 L85.108 522.1725 L85.108 520.7663 L86.3111 520.7663 L86.3111 522.1725 L86.0299 523.8132 L85.3893 523.8132 ZM87.9303 529.36 L87.9303 528.1569 L89.1334 528.1569 L89.1334 529.36 Q89.1334 530.0163 88.899 530.4304 Q88.6647 530.8444 88.1647 531.0632 L87.8678 530.61 Q88.1959 530.4694 88.3522 530.1804 Q88.5084 529.8913 88.5397 529.36 L87.9303 529.36 ZM94.3795 523.8132 L94.0826 522.1725 L94.0826 520.7663 L95.2858 520.7663 L95.2858 522.1725 L95.0201 523.8132 L94.3795 523.8132 ZM96.317 523.8132 L96.0358 522.1725 L96.0358 520.7663 L97.2389 520.7663 L97.2389 522.1725 L96.9576 523.8132 L96.317 523.8132 ZM98.5924 521.985 L98.5924 520.7663 L99.6549 520.7663 L99.6549 521.985 L98.5924 521.985 ZM98.5924 529.36 L98.5924 523.1413 L99.6549 523.1413 L99.6549 529.36 L98.5924 529.36 ZM101.2584 529.36 L101.2584 523.1413 L102.1959 523.1413 L102.1959 524.0163 Q102.8834 523.0007 104.1803 523.0007 Q104.7428 523.0007 105.2193 523.2038 Q105.6959 523.4069 105.9303 523.735 Q106.1647 524.0632 106.2584 524.5007 Q106.3053 524.7975 106.3053 525.5319 L106.3053 529.36 L105.2584 529.36 L105.2584 525.5788 Q105.2584 524.9225 105.1334 524.61 Q105.0084 524.2975 104.6959 524.1022 Q104.3834 523.9069 103.9615 523.9069 Q103.2897 523.9069 102.7975 524.3366 Q102.3053 524.7663 102.3053 525.9538 L102.3053 529.36 L101.2584 529.36 ZM107.9791 523.8132 L107.6822 522.1725 L107.6822 520.7663 L108.8854 520.7663 L108.8854 522.1725 L108.6197 523.8132 L107.9791 523.8132 ZM109.9166 523.8132 L109.6354 522.1725 L109.6354 520.7663 L110.8385 520.7663 L110.8385 522.1725 L110.5572 523.8132 L109.9166 523.8132 ZM112.4576 529.36 L112.4576 528.1569 L113.6608 528.1569 L113.6608 529.36 Q113.6608 530.0163 113.4264 530.4304 Q113.192 530.8444 112.692 531.0632 L112.3951 530.61 Q112.7233 530.4694 112.8795 530.1804 Q113.0358 529.8913 113.067 529.36 L112.4576 529.36 ZM122.9225 528.5944 Q122.3287 529.0944 121.7897 529.2975 Q121.2506 529.5007 120.6256 529.5007 Q119.5943 529.5007 119.0475 529.0007 Q118.5006 528.5007 118.5006 527.7194 Q118.5006 527.2663 118.7037 526.8835 Q118.9068 526.5007 119.2506 526.2741 Q119.5943 526.0475 120.0162 525.9382 Q120.3131 525.8444 120.9537 525.7663 Q122.2193 525.6257 122.8287 525.4069 Q122.8287 525.1882 122.8287 525.1413 Q122.8287 524.485 122.5318 524.2194 Q122.1256 523.8757 121.3287 523.8757 Q120.5943 523.8757 120.235 524.1335 Q119.8756 524.3913 119.7037 525.0475 L118.6725 524.9069 Q118.8131 524.2507 119.1412 523.8444 Q119.4693 523.4382 120.0787 523.2194 Q120.6881 523.0007 121.485 523.0007 Q122.2818 523.0007 122.7818 523.1882 Q123.2818 523.3757 123.5162 523.6569 Q123.7506 523.9382 123.8443 524.3757 Q123.8912 524.6413 123.8912 525.3444 L123.8912 526.7507 Q123.8912 528.2194 123.9615 528.61 Q124.0318 529.0007 124.235 529.36 L123.1256 529.36 Q122.9693 529.0319 122.9225 528.5944 ZM122.8287 526.235 Q122.2506 526.4694 121.11 526.6413 Q120.4537 526.735 120.1881 526.8522 Q119.9225 526.9694 119.774 527.1882 Q119.6256 527.4069 119.6256 527.6882 Q119.6256 528.11 119.9459 528.3913 Q120.2662 528.6725 120.8756 528.6725 Q121.485 528.6725 121.9615 528.4069 Q122.4381 528.1413 122.6568 527.6725 Q122.8287 527.3132 122.8287 526.6257 L122.8287 526.235 ZM125.5338 529.36 L125.5338 523.1413 L126.4713 523.1413 L126.4713 524.0163 Q127.1588 523.0007 128.4557 523.0007 Q129.0182 523.0007 129.4947 523.2038 Q129.9713 523.4069 130.2057 523.735 Q130.44 524.0632 130.5338 524.5007 Q130.5807 524.7975 130.5807 525.5319 L130.5807 529.36 L129.5338 529.36 L129.5338 525.5788 Q129.5338 524.9225 129.4088 524.61 Q129.2838 524.2975 128.9713 524.1022 Q128.6588 523.9069 128.2369 523.9069 Q127.565 523.9069 127.0729 524.3366 Q126.5807 524.7663 126.5807 525.9538 L126.5807 529.36 L125.5338 529.36 ZM136.2389 529.36 L136.2389 528.5788 Q135.6451 529.5007 134.5045 529.5007 Q133.7545 529.5007 133.1295 529.0866 Q132.5045 528.6725 132.1608 527.9382 Q131.817 527.2038 131.817 526.2507 Q131.817 525.3288 132.1295 524.5632 Q132.442 523.7975 133.067 523.3991 Q133.692 523.0007 134.4576 523.0007 Q135.0201 523.0007 135.4576 523.235 Q135.8951 523.4694 136.1764 523.8444 L136.1764 520.7663 L137.2233 520.7663 L137.2233 529.36 L136.2389 529.36 ZM132.9108 526.2507 Q132.9108 527.4538 133.4108 528.0397 Q133.9108 528.6257 134.5983 528.6257 Q135.2858 528.6257 135.7701 528.0632 Q136.2545 527.5007 136.2545 526.3444 Q136.2545 525.0632 135.7623 524.4694 Q135.2701 523.8757 134.5514 523.8757 Q133.8483 523.8757 133.3795 524.446 Q132.9108 525.0163 132.9108 526.2507 ZM142.2623 523.8132 L141.9654 522.1725 L141.9654 520.7663 L143.1686 520.7663 L143.1686 522.1725 L142.9029 523.8132 L142.2623 523.8132 ZM144.1998 523.8132 L143.9186 522.1725 L143.9186 520.7663 L145.1217 520.7663 L145.1217 522.1725 L144.8404 523.8132 L144.1998 523.8132 ZM146.4596 529.36 L146.4596 523.1413 L147.4127 523.1413 L147.4127 524.0788 Q147.7721 523.4225 148.0768 523.2116 Q148.3815 523.0007 148.7565 523.0007 Q149.2877 523.0007 149.8346 523.3288 L149.4752 524.3132 Q149.0846 524.0788 148.7096 524.0788 Q148.3502 524.0788 148.0768 524.2897 Q147.8033 524.5007 147.694 524.8757 Q147.5065 525.4382 147.5065 526.0944 L147.5065 529.36 L146.4596 529.36 ZM154.7213 527.36 L155.815 527.485 Q155.565 528.4382 154.8619 528.9694 Q154.1588 529.5007 153.0807 529.5007 Q151.7213 529.5007 150.9166 528.6569 Q150.1119 527.8132 150.1119 526.2975 Q150.1119 524.735 150.9244 523.8679 Q151.7369 523.0007 153.0182 523.0007 Q154.2682 523.0007 155.0572 523.8444 Q155.8463 524.6882 155.8463 526.235 Q155.8463 526.3288 155.8463 526.5163 L151.2057 526.5163 Q151.2682 527.5475 151.7838 528.0866 Q152.2994 528.6257 153.0807 528.6257 Q153.6588 528.6257 154.0729 528.321 Q154.4869 528.0163 154.7213 527.36 ZM151.2682 525.6569 L154.7369 525.6569 Q154.6744 524.86 154.3463 524.4694 Q153.8307 523.86 153.0338 523.86 Q152.2994 523.86 151.8072 524.3444 Q151.315 524.8288 151.2682 525.6569 ZM157.1139 529.36 L157.1139 520.7663 L158.1764 520.7663 L158.1764 529.36 L157.1139 529.36 ZM163.8736 528.5944 Q163.2799 529.0944 162.7408 529.2975 Q162.2018 529.5007 161.5768 529.5007 Q160.5455 529.5007 159.9986 529.0007 Q159.4518 528.5007 159.4518 527.7194 Q159.4518 527.2663 159.6549 526.8835 Q159.858 526.5007 160.2018 526.2741 Q160.5455 526.0475 160.9674 525.9382 Q161.2643 525.8444 161.9049 525.7663 Q163.1705 525.6257 163.7799 525.4069 Q163.7799 525.1882 163.7799 525.1413 Q163.7799 524.485 163.483 524.2194 Q163.0768 523.8757 162.2799 523.8757 Q161.5455 523.8757 161.1861 524.1335 Q160.8268 524.3913 160.6549 525.0475 L159.6236 524.9069 Q159.7643 524.2507 160.0924 523.8444 Q160.4205 523.4382 161.0299 523.2194 Q161.6393 523.0007 162.4361 523.0007 Q163.233 523.0007 163.733 523.1882 Q164.233 523.3757 164.4674 523.6569 Q164.7018 523.9382 164.7955 524.3757 Q164.8424 524.6413 164.8424 525.3444 L164.8424 526.7507 Q164.8424 528.2194 164.9127 528.61 Q164.983 529.0007 165.1861 529.36 L164.0768 529.36 Q163.9205 529.0319 163.8736 528.5944 ZM163.7799 526.235 Q163.2018 526.4694 162.0611 526.6413 Q161.4049 526.735 161.1393 526.8522 Q160.8736 526.9694 160.7252 527.1882 Q160.5768 527.4069 160.5768 527.6882 Q160.5768 528.11 160.8971 528.3913 Q161.2174 528.6725 161.8268 528.6725 Q162.4361 528.6725 162.9127 528.4069 Q163.3893 528.1413 163.608 527.6725 Q163.7799 527.3132 163.7799 526.6257 L163.7799 526.235 ZM168.7818 528.4225 L168.9381 529.3444 Q168.485 529.4382 168.1412 529.4382 Q167.5631 529.4382 167.2506 529.2585 Q166.9381 529.0788 166.8053 528.7819 Q166.6725 528.485 166.6725 527.5319 L166.6725 523.9538 L165.9068 523.9538 L165.9068 523.1413 L166.6725 523.1413 L166.6725 521.5944 L167.7193 520.9694 L167.7193 523.1413 L168.7818 523.1413 L168.7818 523.9538 L167.7193 523.9538 L167.7193 527.5944 Q167.7193 528.0475 167.774 528.1725 Q167.8287 528.2975 167.9537 528.3757 Q168.0787 528.4538 168.3131 528.4538 Q168.5006 528.4538 168.7818 528.4225 ZM169.819 521.985 L169.819 520.7663 L170.8815 520.7663 L170.8815 521.985 L169.819 521.985 ZM169.819 529.36 L169.819 523.1413 L170.8815 523.1413 L170.8815 529.36 L169.819 529.36 ZM174.2037 529.36 L171.8443 523.1413 L172.9537 523.1413 L174.2975 526.86 Q174.5006 527.4694 174.6881 528.11 Q174.8287 527.6257 175.0787 526.9382 L176.4693 523.1413 L177.5475 523.1413 L175.1881 529.36 L174.2037 529.36 ZM182.735 527.36 L183.8287 527.485 Q183.5787 528.4382 182.8756 528.9694 Q182.1725 529.5007 181.0943 529.5007 Q179.735 529.5007 178.9303 528.6569 Q178.1256 527.8132 178.1256 526.2975 Q178.1256 524.735 178.9381 523.8679 Q179.7506 523.0007 181.0318 523.0007 Q182.2818 523.0007 183.0709 523.8444 Q183.86 524.6882 183.86 526.235 Q183.86 526.3288 183.86 526.5163 L179.2193 526.5163 Q179.2818 527.5475 179.7975 528.0866 Q180.3131 528.6257 181.0943 528.6257 Q181.6725 528.6257 182.0865 528.321 Q182.5006 528.0163 182.735 527.36 ZM179.2818 525.6569 L182.7506 525.6569 Q182.6881 524.86 182.36 524.4694 Q181.8443 523.86 181.0475 523.86 Q180.3131 523.86 179.8209 524.3444 Q179.3287 524.8288 179.2818 525.6569 ZM190.7897 528.4225 L190.9459 529.3444 Q190.4928 529.4382 190.149 529.4382 Q189.5709 529.4382 189.2584 529.2585 Q188.9459 529.0788 188.8131 528.7819 Q188.6803 528.485 188.6803 527.5319 L188.6803 523.9538 L187.9147 523.9538 L187.9147 523.1413 L188.6803 523.1413 L188.6803 521.5944 L189.7272 520.9694 L189.7272 523.1413 L190.7897 523.1413 L190.7897 523.9538 L189.7272 523.9538 L189.7272 527.5944 Q189.7272 528.0475 189.7818 528.1725 Q189.8365 528.2975 189.9615 528.3757 Q190.0865 528.4538 190.3209 528.4538 Q190.5084 528.4538 190.7897 528.4225 ZM191.4361 526.2507 Q191.4361 524.5163 192.3893 523.6882 Q193.1861 523.0007 194.3424 523.0007 Q195.6236 523.0007 196.444 523.8366 Q197.2643 524.6725 197.2643 526.1569 Q197.2643 527.36 196.9049 528.0475 Q196.5455 528.735 195.8502 529.1179 Q195.1549 529.5007 194.3424 529.5007 Q193.0455 529.5007 192.2408 528.6647 Q191.4361 527.8288 191.4361 526.2507 ZM192.5143 526.2507 Q192.5143 527.4382 193.0377 528.0319 Q193.5611 528.6257 194.3424 528.6257 Q195.1393 528.6257 195.6549 528.0319 Q196.1705 527.4382 196.1705 526.2194 Q196.1705 525.0632 195.6471 524.4694 Q195.1236 523.8757 194.3424 523.8757 Q193.5611 523.8757 193.0377 524.4616 Q192.5143 525.0475 192.5143 526.2507 ZM198.5475 523.8132 L198.2506 522.1725 L198.2506 520.7663 L199.4537 520.7663 L199.4537 522.1725 L199.1881 523.8132 L198.5475 523.8132 ZM200.485 523.8132 L200.2037 522.1725 L200.2037 520.7663 L201.4068 520.7663 L201.4068 522.1725 L201.1256 523.8132 L200.485 523.8132 ZM210.1568 528.5944 Q209.5631 529.0944 209.024 529.2975 Q208.485 529.5007 207.86 529.5007 Q206.8287 529.5007 206.2818 529.0007 Q205.735 528.5007 205.735 527.7194 Q205.735 527.2663 205.9381 526.8835 Q206.1412 526.5007 206.485 526.2741 Q206.8287 526.0475 207.2506 525.9382 Q207.5475 525.8444 208.1881 525.7663 Q209.4537 525.6257 210.0631 525.4069 Q210.0631 525.1882 210.0631 525.1413 Q210.0631 524.485 209.7662 524.2194 Q209.36 523.8757 208.5631 523.8757 Q207.8287 523.8757 207.4693 524.1335 Q207.11 524.3913 206.9381 525.0475 L205.9068 524.9069 Q206.0475 524.2507 206.3756 523.8444 Q206.7037 523.4382 207.3131 523.2194 Q207.9225 523.0007 208.7193 523.0007 Q209.5162 523.0007 210.0162 523.1882 Q210.5162 523.3757 210.7506 523.6569 Q210.985 523.9382 211.0787 524.3757 Q211.1256 524.6413 211.1256 525.3444 L211.1256 526.7507 Q211.1256 528.2194 211.1959 528.61 Q211.2662 529.0007 211.4693 529.36 L210.36 529.36 Q210.2037 529.0319 210.1568 528.5944 ZM210.0631 526.235 Q209.485 526.4694 208.3443 526.6413 Q207.6881 526.735 207.4225 526.8522 Q207.1568 526.9694 207.0084 527.1882 Q206.86 527.4069 206.86 527.6882 Q206.86 528.11 207.1803 528.3913 Q207.5006 528.6725 208.11 528.6725 Q208.7193 528.6725 209.1959 528.4069 Q209.6725 528.1413 209.8912 527.6725 Q210.0631 527.3132 210.0631 526.6257 L210.0631 526.235 ZM212.7369 529.36 L212.7369 520.7663 L213.7994 520.7663 L213.7994 529.36 L212.7369 529.36 ZM215.4029 529.36 L215.4029 520.7663 L216.4654 520.7663 L216.4654 529.36 L215.4029 529.36 ZM225.4654 529.36 L225.4654 528.5788 Q224.8717 529.5007 223.7311 529.5007 Q222.9811 529.5007 222.3561 529.0866 Q221.7311 528.6725 221.3873 527.9382 Q221.0436 527.2038 221.0436 526.2507 Q221.0436 525.3288 221.3561 524.5632 Q221.6686 523.7975 222.2936 523.3991 Q222.9186 523.0007 223.6842 523.0007 Q224.2467 523.0007 224.6842 523.235 Q225.1217 523.4694 225.4029 523.8444 L225.4029 520.7663 L226.4498 520.7663 L226.4498 529.36 L225.4654 529.36 ZM222.1373 526.2507 Q222.1373 527.4538 222.6373 528.0397 Q223.1373 528.6257 223.8248 528.6257 Q224.5123 528.6257 224.9967 528.0632 Q225.4811 527.5007 225.4811 526.3444 Q225.4811 525.0632 224.9889 524.4694 Q224.4967 523.8757 223.7779 523.8757 Q223.0748 523.8757 222.6061 524.446 Q222.1373 525.0163 222.1373 526.2507 ZM232.358 527.36 L233.4518 527.485 Q233.2018 528.4382 232.4986 528.9694 Q231.7955 529.5007 230.7174 529.5007 Q229.358 529.5007 228.5533 528.6569 Q227.7486 527.8132 227.7486 526.2975 Q227.7486 524.735 228.5611 523.8679 Q229.3736 523.0007 230.6549 523.0007 Q231.9049 523.0007 232.694 523.8444 Q233.483 524.6882 233.483 526.235 Q233.483 526.3288 233.483 526.5163 L228.8424 526.5163 Q228.9049 527.5475 229.4205 528.0866 Q229.9361 528.6257 230.7174 528.6257 Q231.2955 528.6257 231.7096 528.321 Q232.1236 528.0163 232.358 527.36 ZM228.9049 525.6569 L232.3736 525.6569 Q232.3111 524.86 231.983 524.4694 Q231.4674 523.86 230.6705 523.86 Q229.9361 523.86 229.444 524.3444 Q228.9518 524.8288 228.9049 525.6569 ZM234.7818 529.36 L234.7818 523.1413 L235.7193 523.1413 L235.7193 524.0163 Q236.4068 523.0007 237.7037 523.0007 Q238.2662 523.0007 238.7428 523.2038 Q239.2193 523.4069 239.4537 523.735 Q239.6881 524.0632 239.7818 524.5007 Q239.8287 524.7975 239.8287 525.5319 L239.8287 529.36 L238.7818 529.36 L238.7818 525.5788 Q238.7818 524.9225 238.6568 524.61 Q238.5318 524.2975 238.2193 524.1022 Q237.9068 523.9069 237.485 523.9069 Q236.8131 523.9069 236.3209 524.3366 Q235.8287 524.7663 235.8287 525.9538 L235.8287 529.36 L234.7818 529.36 ZM241.065 526.2507 Q241.065 524.5163 242.0182 523.6882 Q242.815 523.0007 243.9713 523.0007 Q245.2525 523.0007 246.0729 523.8366 Q246.8932 524.6725 246.8932 526.1569 Q246.8932 527.36 246.5338 528.0475 Q246.1744 528.735 245.4791 529.1179 Q244.7838 529.5007 243.9713 529.5007 Q242.6744 529.5007 241.8697 528.6647 Q241.065 527.8288 241.065 526.2507 ZM242.1432 526.2507 Q242.1432 527.4382 242.6666 528.0319 Q243.19 528.6257 243.9713 528.6257 Q244.7682 528.6257 245.2838 528.0319 Q245.7994 527.4382 245.7994 526.2194 Q245.7994 525.0632 245.276 524.4694 Q244.7525 523.8757 243.9713 523.8757 Q243.19 523.8757 242.6666 524.4616 Q242.1432 525.0475 242.1432 526.2507 ZM250.4264 528.4225 L250.5826 529.3444 Q250.1295 529.4382 249.7858 529.4382 Q249.2076 529.4382 248.8951 529.2585 Q248.5826 529.0788 248.4498 528.7819 Q248.317 528.485 248.317 527.5319 L248.317 523.9538 L247.5514 523.9538 L247.5514 523.1413 L248.317 523.1413 L248.317 521.5944 L249.3639 520.9694 L249.3639 523.1413 L250.4264 523.1413 L250.4264 523.9538 L249.3639 523.9538 L249.3639 527.5944 Q249.3639 528.0475 249.4186 528.1725 Q249.4733 528.2975 249.5983 528.3757 Q249.7233 528.4538 249.9576 528.4538 Q250.1451 528.4538 250.4264 528.4225 ZM255.7135 527.36 L256.8073 527.485 Q256.5573 528.4382 255.8541 528.9694 Q255.151 529.5007 254.0729 529.5007 Q252.7135 529.5007 251.9088 528.6569 Q251.1041 527.8132 251.1041 526.2975 Q251.1041 524.735 251.9166 523.8679 Q252.7291 523.0007 254.0104 523.0007 Q255.2604 523.0007 256.0494 523.8444 Q256.8385 524.6882 256.8385 526.235 Q256.8385 526.3288 256.8385 526.5163 L252.1979 526.5163 Q252.2604 527.5475 252.776 528.0866 Q253.2916 528.6257 254.0729 528.6257 Q254.651 528.6257 255.065 528.321 Q255.4791 528.0163 255.7135 527.36 ZM252.2604 525.6569 L255.7291 525.6569 Q255.6666 524.86 255.3385 524.4694 Q254.8229 523.86 254.026 523.86 Q253.2916 523.86 252.7994 524.3444 Q252.3072 524.8288 252.2604 525.6569 ZM261.4713 531.7507 L261.4713 523.1413 L262.4244 523.1413 L262.4244 523.9382 Q262.7682 523.4694 263.1979 523.235 Q263.6276 523.0007 264.2369 523.0007 Q265.0338 523.0007 265.6432 523.4069 Q266.2526 523.8132 266.5573 524.5632 Q266.8619 525.3132 266.8619 526.2038 Q266.8619 527.1569 266.526 527.9225 Q266.1901 528.6882 265.5338 529.0944 Q264.8776 529.5007 264.1588 529.5007 Q263.6276 529.5007 263.2057 529.2741 Q262.7838 529.0475 262.5182 528.7194 L262.5182 531.7507 L261.4713 531.7507 ZM262.4244 526.2819 Q262.4244 527.485 262.9088 528.0554 Q263.3932 528.6257 264.0807 528.6257 Q264.7838 528.6257 265.2838 528.0319 Q265.7838 527.4382 265.7838 526.1882 Q265.7838 525.0007 265.2994 524.4147 Q264.8151 523.8288 264.1276 523.8288 Q263.4557 523.8288 262.9401 524.4538 Q262.4244 525.0788 262.4244 526.2819 ZM272.2076 528.5944 Q271.6139 529.0944 271.0748 529.2975 Q270.5358 529.5007 269.9108 529.5007 Q268.8795 529.5007 268.3326 529.0007 Q267.7858 528.5007 267.7858 527.7194 Q267.7858 527.2663 267.9889 526.8835 Q268.192 526.5007 268.5358 526.2741 Q268.8795 526.0475 269.3014 525.9382 Q269.5983 525.8444 270.2389 525.7663 Q271.5045 525.6257 272.1139 525.4069 Q272.1139 525.1882 272.1139 525.1413 Q272.1139 524.485 271.817 524.2194 Q271.4108 523.8757 270.6139 523.8757 Q269.8795 523.8757 269.5201 524.1335 Q269.1608 524.3913 268.9889 525.0475 L267.9576 524.9069 Q268.0983 524.2507 268.4264 523.8444 Q268.7545 523.4382 269.3639 523.2194 Q269.9733 523.0007 270.7701 523.0007 Q271.567 523.0007 272.067 523.1882 Q272.567 523.3757 272.8014 523.6569 Q273.0358 523.9382 273.1295 524.3757 Q273.1764 524.6413 273.1764 525.3444 L273.1764 526.7507 Q273.1764 528.2194 273.2467 528.61 Q273.317 529.0007 273.5201 529.36 L272.4108 529.36 Q272.2545 529.0319 272.2076 528.5944 ZM272.1139 526.235 Q271.5358 526.4694 270.3951 526.6413 Q269.7389 526.735 269.4733 526.8522 Q269.2076 526.9694 269.0592 527.1882 Q268.9108 527.4069 268.9108 527.6882 Q268.9108 528.11 269.2311 528.3913 Q269.5514 528.6725 270.1608 528.6725 Q270.7701 528.6725 271.2467 528.4069 Q271.7233 528.1413 271.942 527.6725 Q272.1139 527.3132 272.1139 526.6257 L272.1139 526.235 ZM274.8033 529.36 L274.8033 523.1413 L275.7565 523.1413 L275.7565 524.0788 Q276.1158 523.4225 276.4205 523.2116 Q276.7252 523.0007 277.1002 523.0007 Q277.6315 523.0007 278.1783 523.3288 L277.819 524.3132 Q277.4283 524.0788 277.0533 524.0788 Q276.694 524.0788 276.4205 524.2897 Q276.1471 524.5007 276.0377 524.8757 Q275.8502 525.4382 275.8502 526.0944 L275.8502 529.36 L274.8033 529.36 ZM283.0651 527.36 L284.1588 527.485 Q283.9088 528.4382 283.2057 528.9694 Q282.5026 529.5007 281.4244 529.5007 Q280.0651 529.5007 279.2604 528.6569 Q278.4557 527.8132 278.4557 526.2975 Q278.4557 524.735 279.2682 523.8679 Q280.0807 523.0007 281.3619 523.0007 Q282.6119 523.0007 283.401 523.8444 Q284.1901 524.6882 284.1901 526.235 Q284.1901 526.3288 284.1901 526.5163 L279.5494 526.5163 Q279.6119 527.5475 280.1276 528.0866 Q280.6432 528.6257 281.4244 528.6257 Q282.0026 528.6257 282.4166 528.321 Q282.8307 528.0163 283.0651 527.36 ZM279.6119 525.6569 L283.0807 525.6569 Q283.0182 524.86 282.6901 524.4694 Q282.1744 523.86 281.3776 523.86 Q280.6432 523.86 280.151 524.3444 Q279.6588 524.8288 279.6119 525.6569 ZM285.4889 529.36 L285.4889 523.1413 L286.4264 523.1413 L286.4264 524.0163 Q287.1139 523.0007 288.4108 523.0007 Q288.9733 523.0007 289.4498 523.2038 Q289.9264 523.4069 290.1608 523.735 Q290.3951 524.0632 290.4889 524.5007 Q290.5358 524.7975 290.5358 525.5319 L290.5358 529.36 L289.4889 529.36 L289.4889 525.5788 Q289.4889 524.9225 289.3639 524.61 Q289.2389 524.2975 288.9264 524.1022 Q288.6139 523.9069 288.192 523.9069 Q287.5201 523.9069 287.028 524.3366 Q286.5358 524.7663 286.5358 525.9538 L286.5358 529.36 L285.4889 529.36 ZM294.4596 528.4225 L294.6158 529.3444 Q294.1627 529.4382 293.819 529.4382 Q293.2408 529.4382 292.9283 529.2585 Q292.6158 529.0788 292.483 528.7819 Q292.3502 528.485 292.3502 527.5319 L292.3502 523.9538 L291.5846 523.9538 L291.5846 523.1413 L292.3502 523.1413 L292.3502 521.5944 L293.3971 520.9694 L293.3971 523.1413 L294.4596 523.1413 L294.4596 523.9538 L293.3971 523.9538 L293.3971 527.5944 Q293.3971 528.0475 293.4518 528.1725 Q293.5065 528.2975 293.6315 528.3757 Q293.7565 528.4538 293.9908 528.4538 Q294.1783 528.4538 294.4596 528.4225 Z" clip-path="url(#clipPath3)" stroke-linecap="square" stroke="none"/>
      <path stroke-miterlimit="10" d="M55.8854 542.1725 L56.9166 542.3132 Q56.7447 543.3757 56.0416 543.985 Q55.3385 544.5944 54.3229 544.5944 Q53.0416 544.5944 52.2682 543.7585 Q51.4947 542.9225 51.4947 541.36 Q51.4947 540.36 51.8307 539.6022 Q52.1666 538.8444 52.8463 538.4694 Q53.526 538.0944 54.3385 538.0944 Q55.3385 538.0944 55.9869 538.6022 Q56.6354 539.11 56.8229 540.0632 L55.7916 540.2194 Q55.651 539.5944 55.276 539.2741 Q54.901 538.9538 54.3697 538.9538 Q53.5729 538.9538 53.0729 539.5241 Q52.5729 540.0944 52.5729 541.3288 Q52.5729 542.5944 53.0572 543.1569 Q53.5416 543.7194 54.3072 543.7194 Q54.9322 543.7194 55.3463 543.3444 Q55.7604 542.9694 55.8854 542.1725 ZM57.4322 541.3444 Q57.4322 539.61 58.3854 538.7819 Q59.1822 538.0944 60.3385 538.0944 Q61.6197 538.0944 62.4401 538.9304 Q63.2604 539.7663 63.2604 541.2507 Q63.2604 542.4538 62.901 543.1413 Q62.5416 543.8288 61.8463 544.2116 Q61.151 544.5944 60.3385 544.5944 Q59.0416 544.5944 58.2369 543.7585 Q57.4322 542.9225 57.4322 541.3444 ZM58.5104 541.3444 Q58.5104 542.5319 59.0338 543.1257 Q59.5572 543.7194 60.3385 543.7194 Q61.1354 543.7194 61.651 543.1257 Q62.1666 542.5319 62.1666 541.3132 Q62.1666 540.1569 61.6432 539.5632 Q61.1197 538.9694 60.3385 538.9694 Q59.5572 538.9694 59.0338 539.5554 Q58.5104 540.1413 58.5104 541.3444 ZM64.1061 541.3444 Q64.1061 539.61 65.0592 538.7819 Q65.8561 538.0944 67.0123 538.0944 Q68.2936 538.0944 69.1139 538.9304 Q69.9342 539.7663 69.9342 541.2507 Q69.9342 542.4538 69.5748 543.1413 Q69.2154 543.8288 68.5201 544.2116 Q67.8248 544.5944 67.0123 544.5944 Q65.7154 544.5944 64.9108 543.7585 Q64.1061 542.9225 64.1061 541.3444 ZM65.1842 541.3444 Q65.1842 542.5319 65.7076 543.1257 Q66.2311 543.7194 67.0123 543.7194 Q67.8092 543.7194 68.3248 543.1257 Q68.8404 542.5319 68.8404 541.3132 Q68.8404 540.1569 68.317 539.5632 Q67.7936 538.9694 67.0123 538.9694 Q66.2311 538.9694 65.7076 539.5554 Q65.1842 540.1413 65.1842 541.3444 ZM71.1549 544.4538 L71.1549 538.235 L72.108 538.235 L72.108 539.1725 Q72.4674 538.5163 72.7721 538.3054 Q73.0768 538.0944 73.4518 538.0944 Q73.983 538.0944 74.5299 538.4225 L74.1705 539.4069 Q73.7799 539.1725 73.4049 539.1725 Q73.0455 539.1725 72.7721 539.3835 Q72.4986 539.5944 72.3893 539.9694 Q72.2018 540.5319 72.2018 541.1882 L72.2018 544.4538 L71.1549 544.4538 ZM79.1979 544.4538 L79.1979 543.6725 Q78.6041 544.5944 77.4635 544.5944 Q76.7135 544.5944 76.0885 544.1804 Q75.4635 543.7663 75.1197 543.0319 Q74.776 542.2975 74.776 541.3444 Q74.776 540.4225 75.0885 539.6569 Q75.401 538.8913 76.026 538.4929 Q76.651 538.0944 77.4166 538.0944 Q77.9791 538.0944 78.4166 538.3288 Q78.8541 538.5632 79.1354 538.9382 L79.1354 535.86 L80.1822 535.86 L80.1822 544.4538 L79.1979 544.4538 ZM75.8697 541.3444 Q75.8697 542.5475 76.3697 543.1335 Q76.8697 543.7194 77.5572 543.7194 Q78.2447 543.7194 78.7291 543.1569 Q79.2135 542.5944 79.2135 541.4382 Q79.2135 540.1569 78.7213 539.5632 Q78.2291 538.9694 77.5104 538.9694 Q76.8072 538.9694 76.3385 539.5397 Q75.8697 540.11 75.8697 541.3444 ZM81.8404 537.0788 L81.8404 535.86 L82.9029 535.86 L82.9029 537.0788 L81.8404 537.0788 ZM81.8404 544.4538 L81.8404 538.235 L82.9029 538.235 L82.9029 544.4538 L81.8404 544.4538 ZM84.5065 544.4538 L84.5065 538.235 L85.444 538.235 L85.444 539.11 Q86.1315 538.0944 87.4283 538.0944 Q87.9908 538.0944 88.4674 538.2975 Q88.944 538.5007 89.1783 538.8288 Q89.4127 539.1569 89.5065 539.5944 Q89.5533 539.8913 89.5533 540.6257 L89.5533 544.4538 L88.5065 544.4538 L88.5065 540.6725 Q88.5065 540.0163 88.3815 539.7038 Q88.2565 539.3913 87.944 539.196 Q87.6315 539.0007 87.2096 539.0007 Q86.5377 539.0007 86.0455 539.4304 Q85.5533 539.86 85.5533 541.0475 L85.5533 544.4538 L84.5065 544.4538 ZM95.2428 543.6882 Q94.649 544.1882 94.11 544.3913 Q93.5709 544.5944 92.9459 544.5944 Q91.9147 544.5944 91.3678 544.0944 Q90.8209 543.5944 90.8209 542.8132 Q90.8209 542.36 91.024 541.9772 Q91.2272 541.5944 91.5709 541.3679 Q91.9147 541.1413 92.3365 541.0319 Q92.6334 540.9382 93.274 540.86 Q94.5397 540.7194 95.149 540.5007 Q95.149 540.2819 95.149 540.235 Q95.149 539.5788 94.8522 539.3132 Q94.4459 538.9694 93.649 538.9694 Q92.9147 538.9694 92.5553 539.2272 Q92.1959 539.485 92.024 540.1413 L90.9928 540.0007 Q91.1334 539.3444 91.4615 538.9382 Q91.7897 538.5319 92.399 538.3132 Q93.0084 538.0944 93.8053 538.0944 Q94.6022 538.0944 95.1022 538.2819 Q95.6022 538.4694 95.8365 538.7507 Q96.0709 539.0319 96.1647 539.4694 Q96.2115 539.735 96.2115 540.4382 L96.2115 541.8444 Q96.2115 543.3132 96.2818 543.7038 Q96.3522 544.0944 96.5553 544.4538 L95.4459 544.4538 Q95.2897 544.1257 95.2428 543.6882 ZM95.149 541.3288 Q94.5709 541.5632 93.4303 541.735 Q92.774 541.8288 92.5084 541.946 Q92.2428 542.0632 92.0943 542.2819 Q91.9459 542.5007 91.9459 542.7819 Q91.9459 543.2038 92.2662 543.485 Q92.5865 543.7663 93.1959 543.7663 Q93.8053 543.7663 94.2818 543.5007 Q94.7584 543.235 94.9772 542.7663 Q95.149 542.4069 95.149 541.7194 L95.149 541.3288 ZM100.151 543.5163 L100.3072 544.4382 Q99.8541 544.5319 99.5104 544.5319 Q98.9322 544.5319 98.6197 544.3522 Q98.3072 544.1725 98.1744 543.8757 Q98.0416 543.5788 98.0416 542.6257 L98.0416 539.0475 L97.276 539.0475 L97.276 538.235 L98.0416 538.235 L98.0416 536.6882 L99.0885 536.0632 L99.0885 538.235 L100.151 538.235 L100.151 539.0475 L99.0885 539.0475 L99.0885 542.6882 Q99.0885 543.1413 99.1432 543.2663 Q99.1979 543.3913 99.3229 543.4694 Q99.4479 543.5475 99.6822 543.5475 Q99.8697 543.5475 100.151 543.5163 ZM105.4381 542.4538 L106.5318 542.5788 Q106.2818 543.5319 105.5787 544.0632 Q104.8756 544.5944 103.7975 544.5944 Q102.4381 544.5944 101.6334 543.7507 Q100.8287 542.9069 100.8287 541.3913 Q100.8287 539.8288 101.6412 538.9616 Q102.4537 538.0944 103.735 538.0944 Q104.985 538.0944 105.774 538.9382 Q106.5631 539.7819 106.5631 541.3288 Q106.5631 541.4225 106.5631 541.61 L101.9225 541.61 Q101.985 542.6413 102.5006 543.1804 Q103.0162 543.7194 103.7975 543.7194 Q104.3756 543.7194 104.7897 543.4147 Q105.2037 543.11 105.4381 542.4538 ZM101.985 540.7507 L105.4537 540.7507 Q105.3912 539.9538 105.0631 539.5632 Q104.5475 538.9538 103.7506 538.9538 Q103.0162 538.9538 102.524 539.4382 Q102.0318 539.9225 101.985 540.7507 ZM110.774 542.5944 L111.8053 542.4382 Q111.899 543.0632 112.2975 543.3913 Q112.6959 543.7194 113.4303 543.7194 Q114.149 543.7194 114.5006 543.4304 Q114.8522 543.1413 114.8522 542.735 Q114.8522 542.3757 114.5397 542.1725 Q114.3209 542.0319 113.4615 541.8132 Q112.3053 541.5163 111.86 541.3054 Q111.4147 541.0944 111.1803 540.7194 Q110.9459 540.3444 110.9459 539.8757 Q110.9459 539.4694 111.1334 539.11 Q111.3209 538.7507 111.649 538.5163 Q111.899 538.3444 112.3209 538.2194 Q112.7428 538.0944 113.2428 538.0944 Q113.9615 538.0944 114.5162 538.3054 Q115.0709 538.5163 115.3365 538.8757 Q115.6022 539.235 115.6959 539.8288 L114.6647 539.9694 Q114.6022 539.5007 114.2662 539.2272 Q113.9303 538.9538 113.3053 538.9538 Q112.5865 538.9538 112.274 539.196 Q111.9615 539.4382 111.9615 539.7663 Q111.9615 539.9694 112.0865 540.1257 Q112.2272 540.2975 112.4928 540.4069 Q112.649 540.4694 113.4303 540.6725 Q114.5553 540.985 114.9928 541.1725 Q115.4303 541.36 115.6803 541.7194 Q115.9303 542.0788 115.9303 542.6257 Q115.9303 543.1569 115.6256 543.6179 Q115.3209 544.0788 114.7428 544.3366 Q114.1647 544.5944 113.4303 544.5944 Q112.2115 544.5944 111.5787 544.0866 Q110.9459 543.5788 110.774 542.5944 ZM117.149 546.8444 L117.024 545.86 Q117.3678 545.9538 117.6334 545.9538 Q117.9772 545.9538 118.1881 545.8366 Q118.399 545.7194 118.5397 545.5163 Q118.6334 545.3444 118.8678 544.7194 Q118.8834 544.6413 118.9615 544.4694 L116.5865 538.235 L117.7272 538.235 L119.024 541.8288 Q119.274 542.5163 119.4772 543.2819 Q119.6647 542.5475 119.9147 541.86 L121.2428 538.235 L122.2897 538.235 L119.9303 544.5632 Q119.5397 545.5788 119.3365 545.9694 Q119.0553 546.5007 118.6881 546.7429 Q118.3209 546.985 117.8209 546.985 Q117.524 546.985 117.149 546.8444 ZM122.774 542.5944 L123.8053 542.4382 Q123.899 543.0632 124.2975 543.3913 Q124.6959 543.7194 125.4303 543.7194 Q126.149 543.7194 126.5006 543.4304 Q126.8522 543.1413 126.8522 542.735 Q126.8522 542.3757 126.5397 542.1725 Q126.3209 542.0319 125.4615 541.8132 Q124.3053 541.5163 123.86 541.3054 Q123.4147 541.0944 123.1803 540.7194 Q122.9459 540.3444 122.9459 539.8757 Q122.9459 539.4694 123.1334 539.11 Q123.3209 538.7507 123.649 538.5163 Q123.899 538.3444 124.3209 538.2194 Q124.7428 538.0944 125.2428 538.0944 Q125.9615 538.0944 126.5162 538.3054 Q127.0709 538.5163 127.3365 538.8757 Q127.6022 539.235 127.6959 539.8288 L126.6647 539.9694 Q126.6022 539.5007 126.2662 539.2272 Q125.9303 538.9538 125.3053 538.9538 Q124.5865 538.9538 124.274 539.196 Q123.9615 539.4382 123.9615 539.7663 Q123.9615 539.9694 124.0865 540.1257 Q124.2272 540.2975 124.4928 540.4069 Q124.649 540.4694 125.4303 540.6725 Q126.5553 540.985 126.9928 541.1725 Q127.4303 541.36 127.6803 541.7194 Q127.9303 542.0788 127.9303 542.6257 Q127.9303 543.1569 127.6256 543.6179 Q127.3209 544.0788 126.7428 544.3366 Q126.1647 544.5944 125.4303 544.5944 Q124.2115 544.5944 123.5787 544.0866 Q122.9459 543.5788 122.774 542.5944 ZM131.4928 543.5163 L131.649 544.4382 Q131.1959 544.5319 130.8522 544.5319 Q130.274 544.5319 129.9615 544.3522 Q129.649 544.1725 129.5162 543.8757 Q129.3834 543.5788 129.3834 542.6257 L129.3834 539.0475 L128.6178 539.0475 L128.6178 538.235 L129.3834 538.235 L129.3834 536.6882 L130.4303 536.0632 L130.4303 538.235 L131.4928 538.235 L131.4928 539.0475 L130.4303 539.0475 L130.4303 542.6882 Q130.4303 543.1413 130.485 543.2663 Q130.5397 543.3913 130.6647 543.4694 Q130.7897 543.5475 131.024 543.5475 Q131.2115 543.5475 131.4928 543.5163 ZM136.7799 542.4538 L137.8736 542.5788 Q137.6236 543.5319 136.9205 544.0632 Q136.2174 544.5944 135.1393 544.5944 Q133.7799 544.5944 132.9752 543.7507 Q132.1705 542.9069 132.1705 541.3913 Q132.1705 539.8288 132.983 538.9616 Q133.7955 538.0944 135.0768 538.0944 Q136.3268 538.0944 137.1158 538.9382 Q137.9049 539.7819 137.9049 541.3288 Q137.9049 541.4225 137.9049 541.61 L133.2643 541.61 Q133.3268 542.6413 133.8424 543.1804 Q134.358 543.7194 135.1393 543.7194 Q135.7174 543.7194 136.1315 543.4147 Q136.5455 543.11 136.7799 542.4538 ZM133.3268 540.7507 L136.7955 540.7507 Q136.733 539.9538 136.4049 539.5632 Q135.8893 538.9538 135.0924 538.9538 Q134.358 538.9538 133.8658 539.4382 Q133.3736 539.9225 133.3268 540.7507 ZM139.2037 544.4538 L139.2037 538.235 L140.1412 538.235 L140.1412 539.11 Q140.4381 538.6413 140.9225 538.3679 Q141.4068 538.0944 142.0318 538.0944 Q142.7193 538.0944 143.1647 538.3757 Q143.61 538.6569 143.7818 539.1725 Q144.5318 538.0944 145.7037 538.0944 Q146.6412 538.0944 147.1334 538.6022 Q147.6256 539.11 147.6256 540.1882 L147.6256 544.4538 L146.5787 544.4538 L146.5787 540.5319 Q146.5787 539.9069 146.4772 539.6257 Q146.3756 539.3444 146.11 539.1725 Q145.8443 539.0007 145.4693 539.0007 Q144.8131 539.0007 144.3834 539.4382 Q143.9537 539.8757 143.9537 540.8444 L143.9537 544.4538 L142.8912 544.4538 L142.8912 540.4069 Q142.8912 539.7038 142.6334 539.3522 Q142.3756 539.0007 141.7975 539.0007 Q141.3443 539.0007 140.9693 539.235 Q140.5943 539.4694 140.4225 539.9225 Q140.2506 540.3757 140.2506 541.2194 L140.2506 544.4538 L139.2037 544.4538 ZM148.7779 542.5944 L149.8092 542.4382 Q149.9029 543.0632 150.3014 543.3913 Q150.6998 543.7194 151.4342 543.7194 Q152.1529 543.7194 152.5045 543.4304 Q152.8561 543.1413 152.8561 542.735 Q152.8561 542.3757 152.5436 542.1725 Q152.3248 542.0319 151.4654 541.8132 Q150.3092 541.5163 149.8639 541.3054 Q149.4186 541.0944 149.1842 540.7194 Q148.9498 540.3444 148.9498 539.8757 Q148.9498 539.4694 149.1373 539.11 Q149.3248 538.7507 149.6529 538.5163 Q149.9029 538.3444 150.3248 538.2194 Q150.7467 538.0944 151.2467 538.0944 Q151.9654 538.0944 152.5201 538.3054 Q153.0748 538.5163 153.3404 538.8757 Q153.6061 539.235 153.6998 539.8288 L152.6686 539.9694 Q152.6061 539.5007 152.2701 539.2272 Q151.9342 538.9538 151.3092 538.9538 Q150.5904 538.9538 150.2779 539.196 Q149.9654 539.4382 149.9654 539.7663 Q149.9654 539.9694 150.0904 540.1257 Q150.2311 540.2975 150.4967 540.4069 Q150.6529 540.4694 151.4342 540.6725 Q152.5592 540.985 152.9967 541.1725 Q153.4342 541.36 153.6842 541.7194 Q153.9342 542.0788 153.9342 542.6257 Q153.9342 543.1569 153.6295 543.6179 Q153.3248 544.0788 152.7467 544.3366 Q152.1686 544.5944 151.4342 544.5944 Q150.2154 544.5944 149.5826 544.0866 Q148.9498 543.5788 148.7779 542.5944 ZM155.4967 544.4538 L155.4967 543.2507 L156.6998 543.2507 L156.6998 544.4538 L155.4967 544.4538 ZM167.6334 535.86 L168.774 535.86 L168.774 540.8288 Q168.774 542.1257 168.4772 542.8835 Q168.1803 543.6413 167.4147 544.1179 Q166.649 544.5944 165.4147 544.5944 Q164.2115 544.5944 163.4381 544.1804 Q162.6647 543.7663 162.3365 542.9772 Q162.0084 542.1882 162.0084 540.8288 L162.0084 535.86 L163.149 535.86 L163.149 540.8132 Q163.149 541.9382 163.36 542.4694 Q163.5709 543.0007 164.0787 543.2897 Q164.5865 543.5788 165.3209 543.5788 Q166.5709 543.5788 167.1022 543.0085 Q167.6334 542.4382 167.6334 540.8132 L167.6334 535.86 ZM170.1119 542.5944 L171.1432 542.4382 Q171.2369 543.0632 171.6354 543.3913 Q172.0338 543.7194 172.7682 543.7194 Q173.4869 543.7194 173.8385 543.4304 Q174.19 543.1413 174.19 542.735 Q174.19 542.3757 173.8775 542.1725 Q173.6588 542.0319 172.7994 541.8132 Q171.6432 541.5163 171.1979 541.3054 Q170.7525 541.0944 170.5182 540.7194 Q170.2838 540.3444 170.2838 539.8757 Q170.2838 539.4694 170.4713 539.11 Q170.6588 538.7507 170.9869 538.5163 Q171.2369 538.3444 171.6588 538.2194 Q172.0807 538.0944 172.5807 538.0944 Q173.2994 538.0944 173.8541 538.3054 Q174.4088 538.5163 174.6744 538.8757 Q174.94 539.235 175.0338 539.8288 L174.0025 539.9694 Q173.94 539.5007 173.6041 539.2272 Q173.2682 538.9538 172.6432 538.9538 Q171.9244 538.9538 171.6119 539.196 Q171.2994 539.4382 171.2994 539.7663 Q171.2994 539.9694 171.4244 540.1257 Q171.565 540.2975 171.8307 540.4069 Q171.9869 540.4694 172.7682 540.6725 Q173.8932 540.985 174.3307 541.1725 Q174.7682 541.36 175.0182 541.7194 Q175.2682 542.0788 175.2682 542.6257 Q175.2682 543.1569 174.9635 543.6179 Q174.6588 544.0788 174.0807 544.3366 Q173.5025 544.5944 172.7682 544.5944 Q171.5494 544.5944 170.9166 544.0866 Q170.2838 543.5788 170.1119 542.5944 ZM180.5963 543.6882 Q180.0025 544.1882 179.4635 544.3913 Q178.9244 544.5944 178.2994 544.5944 Q177.2682 544.5944 176.7213 544.0944 Q176.1744 543.5944 176.1744 542.8132 Q176.1744 542.36 176.3775 541.9772 Q176.5807 541.5944 176.9244 541.3679 Q177.2682 541.1413 177.69 541.0319 Q177.9869 540.9382 178.6275 540.86 Q179.8932 540.7194 180.5025 540.5007 Q180.5025 540.2819 180.5025 540.235 Q180.5025 539.5788 180.2057 539.3132 Q179.7994 538.9694 179.0025 538.9694 Q178.2682 538.9694 177.9088 539.2272 Q177.5494 539.485 177.3775 540.1413 L176.3463 540.0007 Q176.4869 539.3444 176.815 538.9382 Q177.1432 538.5319 177.7525 538.3132 Q178.3619 538.0944 179.1588 538.0944 Q179.9557 538.0944 180.4557 538.2819 Q180.9557 538.4694 181.19 538.7507 Q181.4244 539.0319 181.5182 539.4694 Q181.565 539.735 181.565 540.4382 L181.565 541.8444 Q181.565 543.3132 181.6354 543.7038 Q181.7057 544.0944 181.9088 544.4538 L180.7994 544.4538 Q180.6432 544.1257 180.5963 543.6882 ZM180.5025 541.3288 Q179.9244 541.5632 178.7838 541.735 Q178.1275 541.8288 177.8619 541.946 Q177.5963 542.0632 177.4479 542.2819 Q177.2994 542.5007 177.2994 542.7819 Q177.2994 543.2038 177.6197 543.485 Q177.94 543.7663 178.5494 543.7663 Q179.1588 543.7663 179.6354 543.5007 Q180.1119 543.235 180.3307 542.7663 Q180.5025 542.4069 180.5025 541.7194 L180.5025 541.3288 ZM183.0045 544.9694 L184.0358 545.1257 Q184.0983 545.5944 184.3951 545.8132 Q184.7858 546.11 185.4576 546.11 Q186.192 546.11 186.5904 545.8132 Q186.9889 545.5163 187.1295 545.0007 Q187.2233 544.6725 187.2076 543.6413 Q186.5201 544.4538 185.4889 544.4538 Q184.2076 544.4538 183.5045 543.5241 Q182.8014 542.5944 182.8014 541.3132 Q182.8014 540.4225 183.1217 539.6647 Q183.442 538.9069 184.0514 538.5007 Q184.6608 538.0944 185.4889 538.0944 Q186.5983 538.0944 187.317 538.985 L187.317 538.235 L188.2858 538.235 L188.2858 543.61 Q188.2858 545.0632 187.9889 545.6725 Q187.692 546.2819 187.0514 546.6335 Q186.4108 546.985 185.4733 546.985 Q184.3639 546.985 183.6764 546.485 Q182.9889 545.985 183.0045 544.9694 ZM183.8795 541.235 Q183.8795 542.4538 184.3639 543.0163 Q184.8483 543.5788 185.5826 543.5788 Q186.317 543.5788 186.8092 543.0163 Q187.3014 542.4538 187.3014 541.2663 Q187.3014 540.1257 186.7936 539.5475 Q186.2858 538.9694 185.567 538.9694 Q184.8639 538.9694 184.3717 539.5397 Q183.8795 540.11 183.8795 541.235 ZM194.1315 542.4538 L195.2252 542.5788 Q194.9752 543.5319 194.2721 544.0632 Q193.569 544.5944 192.4908 544.5944 Q191.1315 544.5944 190.3268 543.7507 Q189.5221 542.9069 189.5221 541.3913 Q189.5221 539.8288 190.3346 538.9616 Q191.1471 538.0944 192.4283 538.0944 Q193.6783 538.0944 194.4674 538.9382 Q195.2565 539.7819 195.2565 541.3288 Q195.2565 541.4225 195.2565 541.61 L190.6158 541.61 Q190.6783 542.6413 191.194 543.1804 Q191.7096 543.7194 192.4908 543.7194 Q193.069 543.7194 193.483 543.4147 Q193.8971 543.11 194.1315 542.4538 ZM190.6783 540.7507 L194.1471 540.7507 Q194.0846 539.9538 193.7565 539.5632 Q193.2408 538.9538 192.444 538.9538 Q191.7096 538.9538 191.2174 539.4382 Q190.7252 539.9225 190.6783 540.7507 ZM199.8893 537.0788 L199.8893 535.86 L200.9518 535.86 L200.9518 537.0788 L199.8893 537.0788 ZM199.8893 544.4538 L199.8893 538.235 L200.9518 538.235 L200.9518 544.4538 L199.8893 544.4538 ZM202.1334 542.5944 L203.1647 542.4382 Q203.2584 543.0632 203.6568 543.3913 Q204.0553 543.7194 204.7897 543.7194 Q205.5084 543.7194 205.86 543.4304 Q206.2115 543.1413 206.2115 542.735 Q206.2115 542.3757 205.899 542.1725 Q205.6803 542.0319 204.8209 541.8132 Q203.6647 541.5163 203.2193 541.3054 Q202.774 541.0944 202.5397 540.7194 Q202.3053 540.3444 202.3053 539.8757 Q202.3053 539.4694 202.4928 539.11 Q202.6803 538.7507 203.0084 538.5163 Q203.2584 538.3444 203.6803 538.2194 Q204.1022 538.0944 204.6022 538.0944 Q205.3209 538.0944 205.8756 538.3054 Q206.4303 538.5163 206.6959 538.8757 Q206.9615 539.235 207.0553 539.8288 L206.024 539.9694 Q205.9615 539.5007 205.6256 539.2272 Q205.2897 538.9538 204.6647 538.9538 Q203.9459 538.9538 203.6334 539.196 Q203.3209 539.4382 203.3209 539.7663 Q203.3209 539.9694 203.4459 540.1257 Q203.5865 540.2975 203.8522 540.4069 Q204.0084 540.4694 204.7897 540.6725 Q205.9147 540.985 206.3522 541.1725 Q206.7897 541.36 207.0397 541.7194 Q207.2897 542.0788 207.2897 542.6257 Q207.2897 543.1569 206.985 543.6179 Q206.6803 544.0788 206.1022 544.3366 Q205.524 544.5944 204.7897 544.5944 Q203.5709 544.5944 202.9381 544.0866 Q202.3053 543.5788 202.1334 542.5944 ZM211.8893 544.4538 L211.8893 538.235 L212.8268 538.235 L212.8268 539.11 Q213.1236 538.6413 213.608 538.3679 Q214.0924 538.0944 214.7174 538.0944 Q215.4049 538.0944 215.8502 538.3757 Q216.2955 538.6569 216.4674 539.1725 Q217.2174 538.0944 218.3893 538.0944 Q219.3268 538.0944 219.819 538.6022 Q220.3111 539.11 220.3111 540.1882 L220.3111 544.4538 L219.2643 544.4538 L219.2643 540.5319 Q219.2643 539.9069 219.1627 539.6257 Q219.0611 539.3444 218.7955 539.1725 Q218.5299 539.0007 218.1549 539.0007 Q217.4986 539.0007 217.069 539.4382 Q216.6393 539.8757 216.6393 540.8444 L216.6393 544.4538 L215.5768 544.4538 L215.5768 540.4069 Q215.5768 539.7038 215.319 539.3522 Q215.0611 539.0007 214.483 539.0007 Q214.0299 539.0007 213.6549 539.235 Q213.2799 539.4694 213.108 539.9225 Q212.9361 540.3757 212.9361 541.2194 L212.9361 544.4538 L211.8893 544.4538 ZM221.4947 541.3444 Q221.4947 539.61 222.4479 538.7819 Q223.2447 538.0944 224.401 538.0944 Q225.6822 538.0944 226.5025 538.9304 Q227.3229 539.7663 227.3229 541.2507 Q227.3229 542.4538 226.9635 543.1413 Q226.6041 543.8288 225.9088 544.2116 Q225.2135 544.5944 224.401 544.5944 Q223.1041 544.5944 222.2994 543.7585 Q221.4947 542.9225 221.4947 541.3444 ZM222.5729 541.3444 Q222.5729 542.5319 223.0963 543.1257 Q223.6197 543.7194 224.401 543.7194 Q225.1979 543.7194 225.7135 543.1257 Q226.2291 542.5319 226.2291 541.3132 Q226.2291 540.1569 225.7057 539.5632 Q225.1822 538.9694 224.401 538.9694 Q223.6197 538.9694 223.0963 539.5554 Q222.5729 540.1413 222.5729 541.3444 ZM228.1373 542.5944 L229.1686 542.4382 Q229.2623 543.0632 229.6608 543.3913 Q230.0592 543.7194 230.7936 543.7194 Q231.5123 543.7194 231.8639 543.4304 Q232.2154 543.1413 232.2154 542.735 Q232.2154 542.3757 231.9029 542.1725 Q231.6842 542.0319 230.8248 541.8132 Q229.6686 541.5163 229.2233 541.3054 Q228.7779 541.0944 228.5436 540.7194 Q228.3092 540.3444 228.3092 539.8757 Q228.3092 539.4694 228.4967 539.11 Q228.6842 538.7507 229.0123 538.5163 Q229.2623 538.3444 229.6842 538.2194 Q230.1061 538.0944 230.6061 538.0944 Q231.3248 538.0944 231.8795 538.3054 Q232.4342 538.5163 232.6998 538.8757 Q232.9654 539.235 233.0592 539.8288 L232.0279 539.9694 Q231.9654 539.5007 231.6295 539.2272 Q231.2936 538.9538 230.6686 538.9538 Q229.9498 538.9538 229.6373 539.196 Q229.3248 539.4382 229.3248 539.7663 Q229.3248 539.9694 229.4498 540.1257 Q229.5904 540.2975 229.8561 540.4069 Q230.0123 540.4694 230.7936 540.6725 Q231.9186 540.985 232.3561 541.1725 Q232.7936 541.36 233.0436 541.7194 Q233.2936 542.0788 233.2936 542.6257 Q233.2936 543.1569 232.9889 543.6179 Q232.6842 544.0788 232.1061 544.3366 Q231.5279 544.5944 230.7936 544.5944 Q229.5748 544.5944 228.942 544.0866 Q228.3092 543.5788 228.1373 542.5944 ZM236.8561 543.5163 L237.0123 544.4382 Q236.5592 544.5319 236.2154 544.5319 Q235.6373 544.5319 235.3248 544.3522 Q235.0123 544.1725 234.8795 543.8757 Q234.7467 543.5788 234.7467 542.6257 L234.7467 539.0475 L233.9811 539.0475 L233.9811 538.235 L234.7467 538.235 L234.7467 536.6882 L235.7936 536.0632 L235.7936 538.235 L236.8561 538.235 L236.8561 539.0475 L235.7936 539.0475 L235.7936 542.6882 Q235.7936 543.1413 235.8483 543.2663 Q235.9029 543.3913 236.0279 543.4694 Q236.1529 543.5475 236.3873 543.5475 Q236.5748 543.5475 236.8561 543.5163 ZM237.8619 544.4538 L237.8619 535.86 L238.9244 535.86 L238.9244 544.4538 L237.8619 544.4538 ZM240.5123 546.8444 L240.3873 545.86 Q240.7311 545.9538 240.9967 545.9538 Q241.3404 545.9538 241.5514 545.8366 Q241.7623 545.7194 241.9029 545.5163 Q241.9967 545.3444 242.2311 544.7194 Q242.2467 544.6413 242.3248 544.4694 L239.9498 538.235 L241.0904 538.235 L242.3873 541.8288 Q242.6373 542.5163 242.8404 543.2819 Q243.0279 542.5475 243.2779 541.86 L244.6061 538.235 L245.6529 538.235 L243.2936 544.5632 Q242.9029 545.5788 242.6998 545.9694 Q242.4186 546.5007 242.0514 546.7429 Q241.6842 546.985 241.1842 546.985 Q240.8873 546.985 240.5123 546.8444 ZM253.9557 543.6882 Q253.3619 544.1882 252.8229 544.3913 Q252.2838 544.5944 251.6588 544.5944 Q250.6275 544.5944 250.0807 544.0944 Q249.5338 543.5944 249.5338 542.8132 Q249.5338 542.36 249.7369 541.9772 Q249.94 541.5944 250.2838 541.3679 Q250.6275 541.1413 251.0494 541.0319 Q251.3463 540.9382 251.9869 540.86 Q253.2525 540.7194 253.8619 540.5007 Q253.8619 540.2819 253.8619 540.235 Q253.8619 539.5788 253.565 539.3132 Q253.1588 538.9694 252.3619 538.9694 Q251.6275 538.9694 251.2682 539.2272 Q250.9088 539.485 250.7369 540.1413 L249.7057 540.0007 Q249.8463 539.3444 250.1744 538.9382 Q250.5025 538.5319 251.1119 538.3132 Q251.7213 538.0944 252.5182 538.0944 Q253.315 538.0944 253.815 538.2819 Q254.315 538.4694 254.5494 538.7507 Q254.7838 539.0319 254.8775 539.4694 Q254.9244 539.735 254.9244 540.4382 L254.9244 541.8444 Q254.9244 543.3132 254.9947 543.7038 Q255.065 544.0944 255.2682 544.4538 L254.1588 544.4538 Q254.0025 544.1257 253.9557 543.6882 ZM253.8619 541.3288 Q253.2838 541.5632 252.1432 541.735 Q251.4869 541.8288 251.2213 541.946 Q250.9557 542.0632 250.8072 542.2819 Q250.6588 542.5007 250.6588 542.7819 Q250.6588 543.2038 250.9791 543.485 Q251.2994 543.7663 251.9088 543.7663 Q252.5182 543.7663 252.9947 543.5007 Q253.4713 543.235 253.69 542.7663 Q253.8619 542.4069 253.8619 541.7194 L253.8619 541.3288 ZM256.5514 544.4538 L256.5514 538.235 L257.5045 538.235 L257.5045 539.1725 Q257.8639 538.5163 258.1686 538.3054 Q258.4733 538.0944 258.8483 538.0944 Q259.3795 538.0944 259.9264 538.4225 L259.567 539.4069 Q259.1764 539.1725 258.8014 539.1725 Q258.442 539.1725 258.1686 539.3835 Q257.8951 539.5944 257.7858 539.9694 Q257.5983 540.5319 257.5983 541.1882 L257.5983 544.4538 L256.5514 544.4538 ZM261.5319 544.4538 L260.5475 544.4538 L260.5475 535.86 L261.61 535.86 L261.61 538.9225 Q262.2819 538.0944 263.3131 538.0944 Q263.8912 538.0944 264.399 538.321 Q264.9069 538.5475 265.2428 538.9694 Q265.5787 539.3913 265.7662 539.985 Q265.9537 540.5788 265.9537 541.2507 Q265.9537 542.8444 265.1569 543.7194 Q264.36 544.5944 263.2662 544.5944 Q262.1569 544.5944 261.5319 543.6725 L261.5319 544.4538 ZM261.5162 541.2975 Q261.5162 542.4069 261.8287 542.9069 Q262.3287 543.7194 263.1725 543.7194 Q263.86 543.7194 264.3678 543.1257 Q264.8756 542.5319 264.8756 541.3288 Q264.8756 540.11 264.3912 539.5319 Q263.9069 538.9538 263.2194 538.9538 Q262.5319 538.9538 262.024 539.5554 Q261.5162 540.1569 261.5162 541.2975 ZM267.2369 537.0788 L267.2369 535.86 L268.2994 535.86 L268.2994 537.0788 L267.2369 537.0788 ZM267.2369 544.4538 L267.2369 538.235 L268.2994 538.235 L268.2994 544.4538 L267.2369 544.4538 ZM272.1998 543.5163 L272.3561 544.4382 Q271.903 544.5319 271.5592 544.5319 Q270.9811 544.5319 270.6686 544.3522 Q270.3561 544.1725 270.2233 543.8757 Q270.0905 543.5788 270.0905 542.6257 L270.0905 539.0475 L269.3248 539.0475 L269.3248 538.235 L270.0905 538.235 L270.0905 536.6882 L271.1373 536.0632 L271.1373 538.235 L272.1998 538.235 L272.1998 539.0475 L271.1373 539.0475 L271.1373 542.6882 Q271.1373 543.1413 271.192 543.2663 Q271.2467 543.3913 271.3717 543.4694 Q271.4967 543.5475 271.7311 543.5475 Q271.9186 543.5475 272.1998 543.5163 ZM273.2213 544.4538 L273.2213 538.235 L274.1744 538.235 L274.1744 539.1725 Q274.5338 538.5163 274.8385 538.3054 Q275.1432 538.0944 275.5182 538.0944 Q276.0494 538.0944 276.5963 538.4225 L276.2369 539.4069 Q275.8463 539.1725 275.4713 539.1725 Q275.1119 539.1725 274.8385 539.3835 Q274.5651 539.5944 274.4557 539.9694 Q274.2682 540.5319 274.2682 541.1882 L274.2682 544.4538 L273.2213 544.4538 ZM281.2955 543.6882 Q280.7018 544.1882 280.1627 544.3913 Q279.6237 544.5944 278.9987 544.5944 Q277.9674 544.5944 277.4205 544.0944 Q276.8737 543.5944 276.8737 542.8132 Q276.8737 542.36 277.0768 541.9772 Q277.2799 541.5944 277.6237 541.3679 Q277.9674 541.1413 278.3893 541.0319 Q278.6862 540.9382 279.3268 540.86 Q280.5924 540.7194 281.2018 540.5007 Q281.2018 540.2819 281.2018 540.235 Q281.2018 539.5788 280.9049 539.3132 Q280.4987 538.9694 279.7018 538.9694 Q278.9674 538.9694 278.608 539.2272 Q278.2487 539.485 278.0768 540.1413 L277.0455 540.0007 Q277.1862 539.3444 277.5143 538.9382 Q277.8424 538.5319 278.4518 538.3132 Q279.0612 538.0944 279.858 538.0944 Q280.6549 538.0944 281.1549 538.2819 Q281.6549 538.4694 281.8893 538.7507 Q282.1237 539.0319 282.2174 539.4694 Q282.2643 539.735 282.2643 540.4382 L282.2643 541.8444 Q282.2643 543.3132 282.3346 543.7038 Q282.4049 544.0944 282.608 544.4538 L281.4987 544.4538 Q281.3424 544.1257 281.2955 543.6882 ZM281.2018 541.3288 Q280.6237 541.5632 279.483 541.735 Q278.8268 541.8288 278.5612 541.946 Q278.2955 542.0632 278.1471 542.2819 Q277.9987 542.5007 277.9987 542.7819 Q277.9987 543.2038 278.319 543.485 Q278.6393 543.7663 279.2487 543.7663 Q279.858 543.7663 280.3346 543.5007 Q280.8112 543.235 281.0299 542.7663 Q281.2018 542.4069 281.2018 541.7194 L281.2018 541.3288 ZM283.8912 544.4538 L283.8912 538.235 L284.8444 538.235 L284.8444 539.1725 Q285.2037 538.5163 285.5084 538.3054 Q285.8131 538.0944 286.1881 538.0944 Q286.7194 538.0944 287.2662 538.4225 L286.9069 539.4069 Q286.5162 539.1725 286.1412 539.1725 Q285.7819 539.1725 285.5084 539.3835 Q285.235 539.5944 285.1256 539.9694 Q284.9381 540.5319 284.9381 541.1882 L284.9381 544.4538 L283.8912 544.4538 ZM287.8561 546.8444 L287.7311 545.86 Q288.0748 545.9538 288.3405 545.9538 Q288.6842 545.9538 288.8951 545.8366 Q289.1061 545.7194 289.2467 545.5163 Q289.3405 545.3444 289.5748 544.7194 Q289.5905 544.6413 289.6686 544.4694 L287.2936 538.235 L288.4342 538.235 L289.7311 541.8288 Q289.9811 542.5163 290.1842 543.2819 Q290.3717 542.5475 290.6217 541.86 L291.9498 538.235 L292.9967 538.235 L290.6373 544.5632 Q290.2467 545.5788 290.0436 545.9694 Q289.7623 546.5007 289.3951 546.7429 Q289.028 546.985 288.528 546.985 Q288.2311 546.985 287.8561 546.8444 ZM299.2526 546.985 Q298.3776 545.8757 297.776 544.3991 Q297.1744 542.9225 297.1744 541.3444 Q297.1744 539.9538 297.6119 538.6725 Q298.1432 537.1882 299.2526 535.7194 L300.0026 535.7194 Q299.2994 536.9382 299.0651 537.4538 Q298.7057 538.2663 298.5026 539.1413 Q298.2526 540.235 298.2526 541.3444 Q298.2526 544.1725 300.0026 546.985 L299.2526 546.985 ZM305.2955 543.6882 Q304.7018 544.1882 304.1627 544.3913 Q303.6237 544.5944 302.9987 544.5944 Q301.9674 544.5944 301.4205 544.0944 Q300.8737 543.5944 300.8737 542.8132 Q300.8737 542.36 301.0768 541.9772 Q301.2799 541.5944 301.6237 541.3679 Q301.9674 541.1413 302.3893 541.0319 Q302.6862 540.9382 303.3268 540.86 Q304.5924 540.7194 305.2018 540.5007 Q305.2018 540.2819 305.2018 540.235 Q305.2018 539.5788 304.9049 539.3132 Q304.4987 538.9694 303.7018 538.9694 Q302.9674 538.9694 302.608 539.2272 Q302.2487 539.485 302.0768 540.1413 L301.0455 540.0007 Q301.1862 539.3444 301.5143 538.9382 Q301.8424 538.5319 302.4518 538.3132 Q303.0612 538.0944 303.858 538.0944 Q304.6549 538.0944 305.1549 538.2819 Q305.6549 538.4694 305.8893 538.7507 Q306.1237 539.0319 306.2174 539.4694 Q306.2643 539.735 306.2643 540.4382 L306.2643 541.8444 Q306.2643 543.3132 306.3346 543.7038 Q306.4049 544.0944 306.608 544.4538 L305.4987 544.4538 Q305.3424 544.1257 305.2955 543.6882 ZM305.2018 541.3288 Q304.6237 541.5632 303.483 541.735 Q302.8268 541.8288 302.5612 541.946 Q302.2955 542.0632 302.1471 542.2819 Q301.9987 542.5007 301.9987 542.7819 Q301.9987 543.2038 302.319 543.485 Q302.6393 543.7663 303.2487 543.7663 Q303.858 543.7663 304.3346 543.5007 Q304.8112 543.235 305.0299 542.7663 Q305.2018 542.4069 305.2018 541.7194 L305.2018 541.3288 ZM307.9069 544.4538 L307.9069 538.235 L308.8444 538.235 L308.8444 539.11 Q309.5319 538.0944 310.8287 538.0944 Q311.3912 538.0944 311.8678 538.2975 Q312.3444 538.5007 312.5787 538.8288 Q312.8131 539.1569 312.9069 539.5944 Q312.9537 539.8913 312.9537 540.6257 L312.9537 544.4538 L311.9069 544.4538 L311.9069 540.6725 Q311.9069 540.0163 311.7819 539.7038 Q311.6569 539.3913 311.3444 539.196 Q311.0319 539.0007 310.61 539.0007 Q309.9381 539.0007 309.4459 539.4304 Q308.9537 539.86 308.9537 541.0475 L308.9537 544.4538 L307.9069 544.4538 ZM318.6119 544.4538 L318.6119 543.6725 Q318.0182 544.5944 316.8776 544.5944 Q316.1276 544.5944 315.5026 544.1804 Q314.8776 543.7663 314.5338 543.0319 Q314.1901 542.2975 314.1901 541.3444 Q314.1901 540.4225 314.5026 539.6569 Q314.8151 538.8913 315.4401 538.4929 Q316.0651 538.0944 316.8307 538.0944 Q317.3932 538.0944 317.8307 538.3288 Q318.2682 538.5632 318.5494 538.9382 L318.5494 535.86 L319.5963 535.86 L319.5963 544.4538 L318.6119 544.4538 ZM315.2838 541.3444 Q315.2838 542.5475 315.7838 543.1335 Q316.2838 543.7194 316.9713 543.7194 Q317.6588 543.7194 318.1432 543.1569 Q318.6276 542.5944 318.6276 541.4382 Q318.6276 540.1569 318.1354 539.5632 Q317.6432 538.9694 316.9244 538.9694 Q316.2213 538.9694 315.7526 539.5397 Q315.2838 540.11 315.2838 541.3444 Z" clip-path="url(#clipPath3)" stroke-linecap="square" stroke="none"/>
      <path stroke-miterlimit="10" d="M52.7916 559.5475 L51.8072 559.5475 L51.8072 550.9538 L52.8697 550.9538 L52.8697 554.0163 Q53.5416 553.1882 54.5729 553.1882 Q55.151 553.1882 55.6588 553.4147 Q56.1666 553.6413 56.5026 554.0632 Q56.8385 554.485 57.026 555.0788 Q57.2135 555.6725 57.2135 556.3444 Q57.2135 557.9382 56.4166 558.8132 Q55.6197 559.6882 54.526 559.6882 Q53.4166 559.6882 52.7916 558.7663 L52.7916 559.5475 ZM52.776 556.3913 Q52.776 557.5007 53.0885 558.0007 Q53.5885 558.8132 54.4322 558.8132 Q55.1197 558.8132 55.6276 558.2194 Q56.1354 557.6257 56.1354 556.4225 Q56.1354 555.2038 55.651 554.6257 Q55.1666 554.0475 54.4791 554.0475 Q53.7916 554.0475 53.2838 554.6491 Q52.776 555.2507 52.776 556.3913 ZM62.7467 557.5475 L63.8404 557.6725 Q63.5904 558.6257 62.8873 559.1569 Q62.1842 559.6882 61.1061 559.6882 Q59.7467 559.6882 58.942 558.8444 Q58.1373 558.0007 58.1373 556.485 Q58.1373 554.9225 58.9498 554.0554 Q59.7623 553.1882 61.0436 553.1882 Q62.2936 553.1882 63.0826 554.0319 Q63.8717 554.8757 63.8717 556.4225 Q63.8717 556.5163 63.8717 556.7038 L59.2311 556.7038 Q59.2936 557.735 59.8092 558.2741 Q60.3248 558.8132 61.1061 558.8132 Q61.6842 558.8132 62.0983 558.5085 Q62.5123 558.2038 62.7467 557.5475 ZM59.2936 555.8444 L62.7623 555.8444 Q62.6998 555.0475 62.3717 554.6569 Q61.8561 554.0475 61.0592 554.0475 Q60.3248 554.0475 59.8326 554.5319 Q59.3404 555.0163 59.2936 555.8444 ZM69.233 557.2663 L70.2643 557.4069 Q70.0924 558.4694 69.3893 559.0788 Q68.6861 559.6882 67.6705 559.6882 Q66.3893 559.6882 65.6158 558.8522 Q64.8424 558.0163 64.8424 556.4538 Q64.8424 555.4538 65.1783 554.696 Q65.5143 553.9382 66.194 553.5632 Q66.8736 553.1882 67.6861 553.1882 Q68.6861 553.1882 69.3346 553.696 Q69.983 554.2038 70.1705 555.1569 L69.1393 555.3132 Q68.9986 554.6882 68.6236 554.3679 Q68.2486 554.0475 67.7174 554.0475 Q66.9205 554.0475 66.4205 554.6179 Q65.9205 555.1882 65.9205 556.4225 Q65.9205 557.6882 66.4049 558.2507 Q66.8893 558.8132 67.6549 558.8132 Q68.2799 558.8132 68.694 558.4382 Q69.108 558.0632 69.233 557.2663 ZM75.233 558.7819 Q74.6393 559.2819 74.1002 559.485 Q73.5611 559.6882 72.9361 559.6882 Q71.9049 559.6882 71.358 559.1882 Q70.8111 558.6882 70.8111 557.9069 Q70.8111 557.4538 71.0143 557.071 Q71.2174 556.6882 71.5611 556.4616 Q71.9049 556.235 72.3268 556.1257 Q72.6236 556.0319 73.2643 555.9538 Q74.5299 555.8132 75.1393 555.5944 Q75.1393 555.3757 75.1393 555.3288 Q75.1393 554.6725 74.8424 554.4069 Q74.4361 554.0632 73.6393 554.0632 Q72.9049 554.0632 72.5455 554.321 Q72.1861 554.5788 72.0143 555.235 L70.983 555.0944 Q71.1236 554.4382 71.4518 554.0319 Q71.7799 553.6257 72.3893 553.4069 Q72.9986 553.1882 73.7955 553.1882 Q74.5924 553.1882 75.0924 553.3757 Q75.5924 553.5632 75.8268 553.8444 Q76.0611 554.1257 76.1549 554.5632 Q76.2018 554.8288 76.2018 555.5319 L76.2018 556.9382 Q76.2018 558.4069 76.2721 558.7975 Q76.3424 559.1882 76.5455 559.5475 L75.4361 559.5475 Q75.2799 559.2194 75.233 558.7819 ZM75.1393 556.4225 Q74.5611 556.6569 73.4205 556.8288 Q72.7643 556.9225 72.4986 557.0397 Q72.233 557.1569 72.0846 557.3757 Q71.9361 557.5944 71.9361 557.8757 Q71.9361 558.2975 72.2565 558.5788 Q72.5768 558.86 73.1861 558.86 Q73.7955 558.86 74.2721 558.5944 Q74.7486 558.3288 74.9674 557.86 Q75.1393 557.5007 75.1393 556.8132 L75.1393 556.4225 ZM81.9225 559.5475 L81.9225 558.6257 Q81.1881 559.6882 79.9381 559.6882 Q79.3912 559.6882 78.9147 559.4772 Q78.4381 559.2663 78.2037 558.946 Q77.9693 558.6257 77.8756 558.1569 Q77.8131 557.86 77.8131 557.1725 L77.8131 553.3288 L78.8756 553.3288 L78.8756 556.7819 Q78.8756 557.5944 78.9381 557.8913 Q79.0318 558.2975 79.3522 558.5397 Q79.6725 558.7819 80.1568 558.7819 Q80.6256 558.7819 81.0397 558.5397 Q81.4537 558.2975 81.6334 557.8757 Q81.8131 557.4538 81.8131 556.6569 L81.8131 553.3288 L82.86 553.3288 L82.86 559.5475 L81.9225 559.5475 ZM84.0963 557.6882 L85.1275 557.5319 Q85.2213 558.1569 85.6197 558.485 Q86.0182 558.8132 86.7525 558.8132 Q87.4713 558.8132 87.8229 558.5241 Q88.1744 558.235 88.1744 557.8288 Q88.1744 557.4694 87.8619 557.2663 Q87.6432 557.1257 86.7838 556.9069 Q85.6275 556.61 85.1822 556.3991 Q84.7369 556.1882 84.5025 555.8132 Q84.2682 555.4382 84.2682 554.9694 Q84.2682 554.5632 84.4557 554.2038 Q84.6432 553.8444 84.9713 553.61 Q85.2213 553.4382 85.6432 553.3132 Q86.065 553.1882 86.565 553.1882 Q87.2838 553.1882 87.8385 553.3991 Q88.3932 553.61 88.6588 553.9694 Q88.9244 554.3288 89.0182 554.9225 L87.9869 555.0632 Q87.9244 554.5944 87.5885 554.321 Q87.2525 554.0475 86.6275 554.0475 Q85.9088 554.0475 85.5963 554.2897 Q85.2838 554.5319 85.2838 554.86 Q85.2838 555.0632 85.4088 555.2194 Q85.5494 555.3913 85.815 555.5007 Q85.9713 555.5632 86.7525 555.7663 Q87.8775 556.0788 88.315 556.2663 Q88.7525 556.4538 89.0025 556.8132 Q89.2525 557.1725 89.2525 557.7194 Q89.2525 558.2507 88.9479 558.7116 Q88.6432 559.1725 88.065 559.4304 Q87.4869 559.6882 86.7525 559.6882 Q85.5338 559.6882 84.901 559.1804 Q84.2682 558.6725 84.0963 557.6882 ZM94.7682 557.5475 L95.8619 557.6725 Q95.6119 558.6257 94.9088 559.1569 Q94.2057 559.6882 93.1275 559.6882 Q91.7682 559.6882 90.9635 558.8444 Q90.1588 558.0007 90.1588 556.485 Q90.1588 554.9225 90.9713 554.0554 Q91.7838 553.1882 93.065 553.1882 Q94.315 553.1882 95.1041 554.0319 Q95.8932 554.8757 95.8932 556.4225 Q95.8932 556.5163 95.8932 556.7038 L91.2525 556.7038 Q91.315 557.735 91.8307 558.2741 Q92.3463 558.8132 93.1275 558.8132 Q93.7057 558.8132 94.1197 558.5085 Q94.5338 558.2038 94.7682 557.5475 ZM91.315 555.8444 L94.7838 555.8444 Q94.7213 555.0475 94.3932 554.6569 Q93.8775 554.0475 93.0807 554.0475 Q92.3463 554.0475 91.8541 554.5319 Q91.3619 555.0163 91.315 555.8444 ZM100.5729 554.0007 L100.276 552.36 L100.276 550.9538 L101.4791 550.9538 L101.4791 552.36 L101.2135 554.0007 L100.5729 554.0007 ZM102.5104 554.0007 L102.2291 552.36 L102.2291 550.9538 L103.4322 550.9538 L103.4322 552.36 L103.151 554.0007 L102.5104 554.0007 ZM104.7858 559.5475 L104.7858 550.9538 L105.8326 550.9538 L105.8326 554.0319 Q106.567 553.1882 107.692 553.1882 Q108.3951 553.1882 108.9029 553.4616 Q109.4108 553.735 109.6295 554.2116 Q109.8483 554.6882 109.8483 555.61 L109.8483 559.5475 L108.8014 559.5475 L108.8014 555.61 Q108.8014 554.8132 108.4576 554.4538 Q108.1139 554.0944 107.4889 554.0944 Q107.0201 554.0944 106.6061 554.3366 Q106.192 554.5788 106.0123 554.9929 Q105.8326 555.4069 105.8326 556.1413 L105.8326 559.5475 L104.7858 559.5475 ZM115.7096 557.5475 L116.8033 557.6725 Q116.5533 558.6257 115.8502 559.1569 Q115.1471 559.6882 114.069 559.6882 Q112.7096 559.6882 111.9049 558.8444 Q111.1002 558.0007 111.1002 556.485 Q111.1002 554.9225 111.9127 554.0554 Q112.7252 553.1882 114.0065 553.1882 Q115.2565 553.1882 116.0455 554.0319 Q116.8346 554.8757 116.8346 556.4225 Q116.8346 556.5163 116.8346 556.7038 L112.194 556.7038 Q112.2565 557.735 112.7721 558.2741 Q113.2877 558.8132 114.069 558.8132 Q114.6471 558.8132 115.0611 558.5085 Q115.4752 558.2038 115.7096 557.5475 ZM112.2565 555.8444 L115.7252 555.8444 Q115.6627 555.0475 115.3346 554.6569 Q114.819 554.0475 114.0221 554.0475 Q113.2877 554.0475 112.7955 554.5319 Q112.3033 555.0163 112.2565 555.8444 ZM122.1959 558.7819 Q121.6022 559.2819 121.0631 559.485 Q120.524 559.6882 119.899 559.6882 Q118.8678 559.6882 118.3209 559.1882 Q117.774 558.6882 117.774 557.9069 Q117.774 557.4538 117.9772 557.071 Q118.1803 556.6882 118.524 556.4616 Q118.8678 556.235 119.2897 556.1257 Q119.5865 556.0319 120.2272 555.9538 Q121.4928 555.8132 122.1022 555.5944 Q122.1022 555.3757 122.1022 555.3288 Q122.1022 554.6725 121.8053 554.4069 Q121.399 554.0632 120.6022 554.0632 Q119.8678 554.0632 119.5084 554.321 Q119.149 554.5788 118.9772 555.235 L117.9459 555.0944 Q118.0865 554.4382 118.4147 554.0319 Q118.7428 553.6257 119.3522 553.4069 Q119.9615 553.1882 120.7584 553.1882 Q121.5553 553.1882 122.0553 553.3757 Q122.5553 553.5632 122.7897 553.8444 Q123.024 554.1257 123.1178 554.5632 Q123.1647 554.8288 123.1647 555.5319 L123.1647 556.9382 Q123.1647 558.4069 123.235 558.7975 Q123.3053 559.1882 123.5084 559.5475 L122.399 559.5475 Q122.2428 559.2194 122.1959 558.7819 ZM122.1022 556.4225 Q121.524 556.6569 120.3834 556.8288 Q119.7272 556.9225 119.4615 557.0397 Q119.1959 557.1569 119.0475 557.3757 Q118.899 557.5944 118.899 557.8757 Q118.899 558.2975 119.2193 558.5788 Q119.5397 558.86 120.149 558.86 Q120.7584 558.86 121.235 558.5944 Q121.7115 558.3288 121.9303 557.86 Q122.1022 557.5007 122.1022 556.8132 L122.1022 556.4225 ZM128.8385 559.5475 L128.8385 558.7663 Q128.2447 559.6882 127.1041 559.6882 Q126.3541 559.6882 125.7291 559.2741 Q125.1041 558.86 124.7604 558.1257 Q124.4166 557.3913 124.4166 556.4382 Q124.4166 555.5163 124.7291 554.7507 Q125.0416 553.985 125.6666 553.5866 Q126.2916 553.1882 127.0572 553.1882 Q127.6197 553.1882 128.0572 553.4225 Q128.4947 553.6569 128.776 554.0319 L128.776 550.9538 L129.8229 550.9538 L129.8229 559.5475 L128.8385 559.5475 ZM125.5104 556.4382 Q125.5104 557.6413 126.0104 558.2272 Q126.5104 558.8132 127.1979 558.8132 Q127.8854 558.8132 128.3697 558.2507 Q128.8541 557.6882 128.8541 556.5319 Q128.8541 555.2507 128.3619 554.6569 Q127.8697 554.0632 127.151 554.0632 Q126.4479 554.0632 125.9791 554.6335 Q125.5104 555.2038 125.5104 556.4382 ZM134.815 552.1725 L134.815 550.9538 L135.8775 550.9538 L135.8775 552.1725 L134.815 552.1725 ZM134.815 559.5475 L134.815 553.3288 L135.8775 553.3288 L135.8775 559.5475 L134.815 559.5475 ZM137.4811 559.5475 L137.4811 553.3288 L138.4186 553.3288 L138.4186 554.2038 Q139.1061 553.1882 140.4029 553.1882 Q140.9654 553.1882 141.442 553.3913 Q141.9186 553.5944 142.1529 553.9225 Q142.3873 554.2507 142.4811 554.6882 Q142.5279 554.985 142.5279 555.7194 L142.5279 559.5475 L141.4811 559.5475 L141.4811 555.7663 Q141.4811 555.11 141.3561 554.7975 Q141.2311 554.485 140.9186 554.2897 Q140.6061 554.0944 140.1842 554.0944 Q139.5123 554.0944 139.0201 554.5241 Q138.5279 554.9538 138.5279 556.1413 L138.5279 559.5475 L137.4811 559.5475 ZM147.7389 559.5475 L147.7389 554.1413 L146.8014 554.1413 L146.8014 553.3288 L147.7389 553.3288 L147.7389 552.6569 Q147.7389 552.0319 147.8483 551.735 Q148.0045 551.3132 148.3873 551.0632 Q148.7701 550.8132 149.4576 550.8132 Q149.9108 550.8132 150.442 550.9225 L150.2858 551.8288 Q149.9576 551.7819 149.6608 551.7819 Q149.1764 551.7819 148.9811 551.985 Q148.7858 552.1882 148.7858 552.7507 L148.7858 553.3288 L150.0045 553.3288 L150.0045 554.1413 L148.7858 554.1413 L148.7858 559.5475 L147.7389 559.5475 ZM155.0729 557.5475 L156.1666 557.6725 Q155.9166 558.6257 155.2135 559.1569 Q154.5104 559.6882 153.4322 559.6882 Q152.0729 559.6882 151.2682 558.8444 Q150.4635 558.0007 150.4635 556.485 Q150.4635 554.9225 151.276 554.0554 Q152.0885 553.1882 153.3697 553.1882 Q154.6197 553.1882 155.4088 554.0319 Q156.1979 554.8757 156.1979 556.4225 Q156.1979 556.5163 156.1979 556.7038 L151.5572 556.7038 Q151.6197 557.735 152.1354 558.2741 Q152.651 558.8132 153.4322 558.8132 Q154.0104 558.8132 154.4244 558.5085 Q154.8385 558.2038 155.0729 557.5475 ZM151.6197 555.8444 L155.0885 555.8444 Q155.026 555.0475 154.6979 554.6569 Q154.1822 554.0475 153.3854 554.0475 Q152.651 554.0475 152.1588 554.5319 Q151.6666 555.0163 151.6197 555.8444 ZM161.7467 557.5475 L162.8404 557.6725 Q162.5904 558.6257 161.8873 559.1569 Q161.1842 559.6882 160.1061 559.6882 Q158.7467 559.6882 157.942 558.8444 Q157.1373 558.0007 157.1373 556.485 Q157.1373 554.9225 157.9498 554.0554 Q158.7623 553.1882 160.0436 553.1882 Q161.2936 553.1882 162.0826 554.0319 Q162.8717 554.8757 162.8717 556.4225 Q162.8717 556.5163 162.8717 556.7038 L158.2311 556.7038 Q158.2936 557.735 158.8092 558.2741 Q159.3248 558.8132 160.1061 558.8132 Q160.6842 558.8132 161.0983 558.5085 Q161.5123 558.2038 161.7467 557.5475 ZM158.2936 555.8444 L161.7623 555.8444 Q161.6998 555.0475 161.3717 554.6569 Q160.8561 554.0475 160.0592 554.0475 Q159.3248 554.0475 158.8326 554.5319 Q158.3404 555.0163 158.2936 555.8444 ZM166.4674 558.61 L166.6236 559.5319 Q166.1705 559.6257 165.8268 559.6257 Q165.2486 559.6257 164.9361 559.446 Q164.6236 559.2663 164.4908 558.9694 Q164.358 558.6725 164.358 557.7194 L164.358 554.1413 L163.5924 554.1413 L163.5924 553.3288 L164.358 553.3288 L164.358 551.7819 L165.4049 551.1569 L165.4049 553.3288 L166.4674 553.3288 L166.4674 554.1413 L165.4049 554.1413 L165.4049 557.7819 Q165.4049 558.235 165.4596 558.36 Q165.5143 558.485 165.6393 558.5632 Q165.7643 558.6413 165.9986 558.6413 Q166.1861 558.6413 166.4674 558.61 ZM167.5514 554.0007 L167.2545 552.36 L167.2545 550.9538 L168.4576 550.9538 L168.4576 552.36 L168.192 554.0007 L167.5514 554.0007 ZM169.4889 554.0007 L169.2076 552.36 L169.2076 550.9538 L170.4108 550.9538 L170.4108 552.36 L170.1295 554.0007 L169.4889 554.0007 ZM174.6764 557.6882 L175.7076 557.5319 Q175.8014 558.1569 176.1998 558.485 Q176.5983 558.8132 177.3326 558.8132 Q178.0514 558.8132 178.4029 558.5241 Q178.7545 558.235 178.7545 557.8288 Q178.7545 557.4694 178.442 557.2663 Q178.2233 557.1257 177.3639 556.9069 Q176.2076 556.61 175.7623 556.3991 Q175.317 556.1882 175.0826 555.8132 Q174.8483 555.4382 174.8483 554.9694 Q174.8483 554.5632 175.0358 554.2038 Q175.2233 553.8444 175.5514 553.61 Q175.8014 553.4382 176.2233 553.3132 Q176.6451 553.1882 177.1451 553.1882 Q177.8639 553.1882 178.4186 553.3991 Q178.9733 553.61 179.2389 553.9694 Q179.5045 554.3288 179.5983 554.9225 L178.567 555.0632 Q178.5045 554.5944 178.1686 554.321 Q177.8326 554.0475 177.2076 554.0475 Q176.4889 554.0475 176.1764 554.2897 Q175.8639 554.5319 175.8639 554.86 Q175.8639 555.0632 175.9889 555.2194 Q176.1295 555.3913 176.3951 555.5007 Q176.5514 555.5632 177.3326 555.7663 Q178.4576 556.0788 178.8951 556.2663 Q179.3326 556.4538 179.5826 556.8132 Q179.8326 557.1725 179.8326 557.7194 Q179.8326 558.2507 179.5279 558.7116 Q179.2233 559.1725 178.6451 559.4304 Q178.067 559.6882 177.3326 559.6882 Q176.1139 559.6882 175.4811 559.1804 Q174.8483 558.6725 174.6764 557.6882 ZM180.7076 556.4382 Q180.7076 554.7038 181.6608 553.8757 Q182.4576 553.1882 183.6139 553.1882 Q184.8951 553.1882 185.7154 554.0241 Q186.5358 554.86 186.5358 556.3444 Q186.5358 557.5475 186.1764 558.235 Q185.817 558.9225 185.1217 559.3054 Q184.4264 559.6882 183.6139 559.6882 Q182.317 559.6882 181.5123 558.8522 Q180.7076 558.0163 180.7076 556.4382 ZM181.7858 556.4382 Q181.7858 557.6257 182.3092 558.2194 Q182.8326 558.8132 183.6139 558.8132 Q184.4108 558.8132 184.9264 558.2194 Q185.442 557.6257 185.442 556.4069 Q185.442 555.2507 184.9186 554.6569 Q184.3951 554.0632 183.6139 554.0632 Q182.8326 554.0632 182.3092 554.6491 Q181.7858 555.235 181.7858 556.4382 ZM191.8502 559.5475 L191.8502 558.6257 Q191.1158 559.6882 189.8658 559.6882 Q189.319 559.6882 188.8424 559.4772 Q188.3658 559.2663 188.1315 558.946 Q187.8971 558.6257 187.8033 558.1569 Q187.7408 557.86 187.7408 557.1725 L187.7408 553.3288 L188.8033 553.3288 L188.8033 556.7819 Q188.8033 557.5944 188.8658 557.8913 Q188.9596 558.2975 189.2799 558.5397 Q189.6002 558.7819 190.0846 558.7819 Q190.5533 558.7819 190.9674 558.5397 Q191.3815 558.2975 191.5611 557.8757 Q191.7408 557.4538 191.7408 556.6569 L191.7408 553.3288 L192.7877 553.3288 L192.7877 559.5475 L191.8502 559.5475 ZM194.4459 559.5475 L194.4459 553.3288 L195.3834 553.3288 L195.3834 554.2038 Q196.0709 553.1882 197.3678 553.1882 Q197.9303 553.1882 198.4068 553.3913 Q198.8834 553.5944 199.1178 553.9225 Q199.3522 554.2507 199.4459 554.6882 Q199.4928 554.985 199.4928 555.7194 L199.4928 559.5475 L198.4459 559.5475 L198.4459 555.7663 Q198.4459 555.11 198.3209 554.7975 Q198.1959 554.485 197.8834 554.2897 Q197.5709 554.0944 197.149 554.0944 Q196.4772 554.0944 195.985 554.5241 Q195.4928 554.9538 195.4928 556.1413 L195.4928 559.5475 L194.4459 559.5475 ZM205.151 559.5475 L205.151 558.7663 Q204.5572 559.6882 203.4166 559.6882 Q202.6666 559.6882 202.0416 559.2741 Q201.4166 558.86 201.0729 558.1257 Q200.7291 557.3913 200.7291 556.4382 Q200.7291 555.5163 201.0416 554.7507 Q201.3541 553.985 201.9791 553.5866 Q202.6041 553.1882 203.3697 553.1882 Q203.9322 553.1882 204.3697 553.4225 Q204.8072 553.6569 205.0885 554.0319 L205.0885 550.9538 L206.1354 550.9538 L206.1354 559.5475 L205.151 559.5475 ZM201.8229 556.4382 Q201.8229 557.6413 202.3229 558.2272 Q202.8229 558.8132 203.5104 558.8132 Q204.1979 558.8132 204.6822 558.2507 Q205.1666 557.6882 205.1666 556.5319 Q205.1666 555.2507 204.6744 554.6569 Q204.1822 554.0632 203.4635 554.0632 Q202.7604 554.0632 202.2916 554.6335 Q201.8229 555.2038 201.8229 556.4382 ZM207.3717 557.6882 L208.4029 557.5319 Q208.4967 558.1569 208.8951 558.485 Q209.2936 558.8132 210.0279 558.8132 Q210.7467 558.8132 211.0983 558.5241 Q211.4498 558.235 211.4498 557.8288 Q211.4498 557.4694 211.1373 557.2663 Q210.9186 557.1257 210.0592 556.9069 Q208.9029 556.61 208.4576 556.3991 Q208.0123 556.1882 207.7779 555.8132 Q207.5436 555.4382 207.5436 554.9694 Q207.5436 554.5632 207.7311 554.2038 Q207.9186 553.8444 208.2467 553.61 Q208.4967 553.4382 208.9186 553.3132 Q209.3404 553.1882 209.8404 553.1882 Q210.5592 553.1882 211.1139 553.3991 Q211.6686 553.61 211.9342 553.9694 Q212.1998 554.3288 212.2936 554.9225 L211.2623 555.0632 Q211.1998 554.5944 210.8639 554.321 Q210.5279 554.0475 209.9029 554.0475 Q209.1842 554.0475 208.8717 554.2897 Q208.5592 554.5319 208.5592 554.86 Q208.5592 555.0632 208.6842 555.2194 Q208.8248 555.3913 209.0904 555.5007 Q209.2467 555.5632 210.0279 555.7663 Q211.1529 556.0788 211.5904 556.2663 Q212.0279 556.4538 212.2779 556.8132 Q212.5279 557.1725 212.5279 557.7194 Q212.5279 558.2507 212.2233 558.7116 Q211.9186 559.1725 211.3404 559.4304 Q210.7623 559.6882 210.0279 559.6882 Q208.8092 559.6882 208.1764 559.1804 Q207.5436 558.6725 207.3717 557.6882 ZM218.2682 559.5475 L216.3619 553.3288 L217.4557 553.3288 L218.44 556.9225 L218.815 558.2507 Q218.8463 558.1569 219.1432 556.9694 L220.1275 553.3288 L221.2057 553.3288 L222.1432 556.9382 L222.4557 558.1257 L222.815 556.9225 L223.8775 553.3288 L224.9088 553.3288 L222.9557 559.5475 L221.8619 559.5475 L220.8775 555.8132 L220.6275 554.7663 L219.3775 559.5475 L218.2682 559.5475 ZM230.0436 557.5475 L231.1373 557.6725 Q230.8873 558.6257 230.1842 559.1569 Q229.4811 559.6882 228.4029 559.6882 Q227.0436 559.6882 226.2389 558.8444 Q225.4342 558.0007 225.4342 556.485 Q225.4342 554.9225 226.2467 554.0554 Q227.0592 553.1882 228.3404 553.1882 Q229.5904 553.1882 230.3795 554.0319 Q231.1686 554.8757 231.1686 556.4225 Q231.1686 556.5163 231.1686 556.7038 L226.5279 556.7038 Q226.5904 557.735 227.1061 558.2741 Q227.6217 558.8132 228.4029 558.8132 Q228.9811 558.8132 229.3951 558.5085 Q229.8092 558.2038 230.0436 557.5475 ZM226.5904 555.8444 L230.0592 555.8444 Q229.9967 555.0475 229.6686 554.6569 Q229.1529 554.0475 228.3561 554.0475 Q227.6217 554.0475 227.1295 554.5319 Q226.6373 555.0163 226.5904 555.8444 ZM232.4674 552.1725 L232.4674 550.9538 L233.5299 550.9538 L233.5299 552.1725 L232.4674 552.1725 ZM232.4674 559.5475 L232.4674 553.3288 L233.5299 553.3288 L233.5299 559.5475 L232.4674 559.5475 ZM235.1178 559.5475 L235.1178 553.3288 L236.0709 553.3288 L236.0709 554.2663 Q236.4303 553.61 236.735 553.3991 Q237.0397 553.1882 237.4147 553.1882 Q237.9459 553.1882 238.4928 553.5163 L238.1334 554.5007 Q237.7428 554.2663 237.3678 554.2663 Q237.0084 554.2663 236.735 554.4772 Q236.4615 554.6882 236.3522 555.0632 Q236.1647 555.6257 236.1647 556.2819 L236.1647 559.5475 L235.1178 559.5475 ZM243.1608 559.5475 L243.1608 558.7663 Q242.567 559.6882 241.4264 559.6882 Q240.6764 559.6882 240.0514 559.2741 Q239.4264 558.86 239.0826 558.1257 Q238.7389 557.3913 238.7389 556.4382 Q238.7389 555.5163 239.0514 554.7507 Q239.3639 553.985 239.9889 553.5866 Q240.6139 553.1882 241.3795 553.1882 Q241.942 553.1882 242.3795 553.4225 Q242.817 553.6569 243.0983 554.0319 L243.0983 550.9538 L244.1451 550.9538 L244.1451 559.5475 L243.1608 559.5475 ZM239.8326 556.4382 Q239.8326 557.6413 240.3326 558.2272 Q240.8326 558.8132 241.5201 558.8132 Q242.2076 558.8132 242.692 558.2507 Q243.1764 557.6882 243.1764 556.5319 Q243.1764 555.2507 242.6842 554.6569 Q242.192 554.0632 241.4733 554.0632 Q240.7701 554.0632 240.3014 554.6335 Q239.8326 555.2038 239.8326 556.4382 ZM246.4908 562.0788 L245.7408 562.0788 Q247.4908 559.2663 247.4908 556.4382 Q247.4908 555.3444 247.2408 554.2507 Q247.0377 553.3757 246.6783 552.5632 Q246.444 552.0475 245.7408 550.8132 L246.4908 550.8132 Q247.5846 552.2819 248.1158 553.7663 Q248.569 555.0475 248.569 556.4382 Q248.569 558.0163 247.9596 559.4929 Q247.3502 560.9694 246.4908 562.0788 Z" clip-path="url(#clipPath3)" stroke-linecap="square" stroke="none"/>
    </g>
    <g fill="url(#linearGradient8)" text-rendering="geometricPrecision" shape-rendering="geometricPrecision" transform="matrix(1,0,0,1,268,-267)" stroke="url(#linearGradient8)">
      <rect x="45.026" width="296.1113" height="43.4023" y="600.0927" clip-path="url(#clipPath2)" stroke="none"/>
    </g>
    <g text-rendering="geometricPrecision" stroke-miterlimit="1.45" shape-rendering="geometricPrecision" transform="matrix(1,0,0,1,268,-267)" stroke-linecap="butt">
      <path fill="none" d="M82.0399 600.0927 L45.026 600.0927 L45.026 643.495 L82.0399 643.495" clip-path="url(#clipPath2)"/>
      <text x="51.026" xml:space="preserve" y="619.1571" clip-path="url(#clipPath2)" font-family="sans-serif" stroke="none">Bold text denotes some particularly</text>
      <text x="51.026" xml:space="preserve" y="633.8583" clip-path="url(#clipPath2)" font-family="sans-serif" stroke="none">important element.</text>
    </g>
    <g fill="url(#linearGradient9)" text-rendering="geometricPrecision" shape-rendering="geometricPrecision" transform="matrix(1,0,0,1,268,-267)" stroke="url(#linearGradient9)">
      <rect x="45.026" width="296.1113" height="43.4023" y="672.7674" clip-path="url(#clipPath2)" stroke="none"/>
    </g>
    <g text-rendering="geometricPrecision" stroke-miterlimit="1.45" shape-rendering="geometricPrecision" transform="matrix(1,0,0,1,268,-267)" stroke-linecap="butt">
      <path fill="none" d="M82.0399 672.7674 L45.026 672.7674 L45.026 716.1697 L82.0399 716.1697" clip-path="url(#clipPath2)"/>
      <text x="51.026" xml:space="preserve" y="699.1824" clip-path="url(#clipPath2)" font-family="sans-serif" stroke="none">Control reference: Team Fortress 2</text>
    </g>
    <g fill="url(#linearGradient10)" text-rendering="geometricPrecision" shape-rendering="geometricPrecision" transform="matrix(1,0,0,1,268,-267)" stroke="url(#linearGradient10)">
      <rect x="45.026" width="296.1113" height="43.4023" y="746.1697" clip-path="url(#clipPath2)" stroke="none"/>
    </g>
    <g text-rendering="geometricPrecision" stroke-miterlimit="1.45" shape-rendering="geometricPrecision" transform="matrix(1,0,0,1,268,-267)" stroke-linecap="butt">
      <path fill="none" d="M82.0399 746.1697 L45.026 746.1697 L45.026 789.5721 L82.0399 789.5721" clip-path="url(#clipPath2)"/>
      <text x="51.026" xml:space="preserve" y="765.2342" clip-path="url(#clipPath2)" font-family="sans-serif" stroke="none">Axis convention: right-handed,</text>
      <text x="51.026" xml:space="preserve" y="779.9354" clip-path="url(#clipPath2)" font-family="sans-serif" stroke="none">X to the right, Y up.</text>
    </g>
    <g fill="rgb(245,245,245)" text-rendering="geometricPrecision" shape-rendering="geometricPrecision" transform="matrix(1,0,0,1,268,-267)" stroke="rgb(245,245,245)">
      <rect x="453.1666" y="387.9564" clip-path="url(#clipPath2)" width="390.875" rx="4" ry="4" height="433.5118" stroke="none"/>
      <rect x="453.1666" y="387.9564" clip-path="url(#clipPath2)" fill="rgb(235,235,235)" width="390.875" height="22.3765" stroke="none"/>
    </g>
    <g font-size="15px" stroke-linecap="butt" transform="matrix(1,0,0,1,268,-267)" text-rendering="geometricPrecision" font-family="sans-serif" shape-rendering="geometricPrecision" stroke-miterlimit="1.45">
      <text x="527.7252" xml:space="preserve" y="405.037" clip-path="url(#clipPath2)" stroke="none">Implied Scene/Transform Tree Used</text>
      <rect x="453.1666" y="387.9564" clip-path="url(#clipPath2)" fill="none" width="390.875" stroke-dasharray="6,2" rx="4" ry="4" height="433.5118"/>
    </g>
    <g fill="white" text-rendering="geometricPrecision" shape-rendering="geometricPrecision" transform="matrix(1,0,0,1,268,-267)" stroke="white">
      <rect x="601.8541" width="113.375" height="40" y="425.3329" clip-path="url(#clipPath2)" stroke="none"/>
    </g>
    <g text-rendering="geometricPrecision" stroke-miterlimit="1.45" shape-rendering="geometricPrecision" font-family="sans-serif" transform="matrix(1,0,0,1,268,-267)" stroke-linecap="butt">
      <text x="642.8736" xml:space="preserve" y="450.0468" clip-path="url(#clipPath2)" stroke="none">World</text>
      <rect fill="none" x="601.8541" width="113.375" height="40" y="425.3329" clip-path="url(#clipPath2)"/>
    </g>
    <g fill="white" text-rendering="geometricPrecision" shape-rendering="geometricPrecision" transform="matrix(1,0,0,1,268,-267)" stroke="white">
      <rect x="492.1666" width="113.375" height="40" y="538.0488" clip-path="url(#clipPath2)" stroke="none"/>
    </g>
    <g text-rendering="geometricPrecision" stroke-miterlimit="1.45" shape-rendering="geometricPrecision" font-family="sans-serif" transform="matrix(1,0,0,1,268,-267)" stroke-linecap="butt">
      <text x="498.4371" xml:space="preserve" y="562.7627" clip-path="url(#clipPath2)" stroke="none">User's Feet ("feet")</text>
      <rect fill="none" x="492.1666" width="113.375" height="40" y="538.0488" clip-path="url(#clipPath2)"/>
    </g>
    <g fill="white" text-rendering="geometricPrecision" shape-rendering="geometricPrecision" transform="matrix(1,0,0,1,268,-267)" stroke="white">
      <rect x="468.1666" width="161.375" height="40" y="667.0908" clip-path="url(#clipPath2)" stroke="none"/>
    </g>
    <g text-rendering="geometricPrecision" stroke-miterlimit="1.45" shape-rendering="geometricPrecision" font-family="sans-serif" transform="matrix(1,0,0,1,268,-267)" stroke-linecap="butt">
      <text x="534.5103" xml:space="preserve" y="684.4541" clip-path="url(#clipPath2)" stroke="none">Head</text>
      <text x="476.8248" xml:space="preserve" y="699.1553" clip-path="url(#clipPath2)" stroke="none">(avatar, view, and tool aim)</text>
      <rect fill="none" x="468.1666" width="161.375" height="40" y="667.0908" clip-path="url(#clipPath2)"/>
    </g>
    <g fill="white" text-rendering="geometricPrecision" shape-rendering="geometricPrecision" transform="matrix(1,0,0,1,268,-267)" stroke="white">
      <rect x="712.1666" width="113.375" height="40" y="538.0488" clip-path="url(#clipPath2)" stroke="none"/>
    </g>
    <g text-rendering="geometricPrecision" stroke-miterlimit="1.45" shape-rendering="geometricPrecision" font-family="sans-serif" transform="matrix(1,0,0,1,268,-267)" stroke-linecap="butt">
      <text x="742.1763" xml:space="preserve" y="555.4121" clip-path="url(#clipPath2)" stroke="none">Objects in</text>
      <text x="735.1714" xml:space="preserve" y="570.1133" clip-path="url(#clipPath2)" stroke="none">Environment</text>
      <rect fill="none" x="712.1666" width="113.375" height="40" y="538.0488" clip-path="url(#clipPath2)"/>
    </g>
    <g fill="url(#linearGradient11)" text-rendering="geometricPrecision" shape-rendering="geometricPrecision" transform="matrix(1,0,0,1,268,-267)" stroke="url(#linearGradient11)">
      <rect x="488.0416" width="341" height="55.5247" y="750.9436" clip-path="url(#clipPath2)" stroke="none"/>
    </g>
    <g text-rendering="geometricPrecision" stroke-miterlimit="1.45" shape-rendering="geometricPrecision" transform="matrix(1,0,0,1,268,-267)" stroke-linecap="butt">
      <path fill="none" d="M530.6666 750.9436 L488.0416 750.9436 L488.0416 806.4683 L530.6666 806.4683" clip-path="url(#clipPath2)"/>
      <text x="494.0416" xml:space="preserve" y="768.7186" clip-path="url(#clipPath2)" font-family="sans-serif" stroke="none">Note: this tree disregards an implied "torso" frame,</text>
      <text x="494.0416" xml:space="preserve" y="783.4198" clip-path="url(#clipPath2)" font-family="sans-serif" stroke="none">as well as the ability to aim in a different direction than looking</text>
      <text x="494.0416" xml:space="preserve" y="798.121" clip-path="url(#clipPath2)" font-family="sans-serif" stroke="none">(and/or different direction than avatar head facing)</text>
    </g>
    <g text-rendering="geometricPrecision" stroke-miterlimit="1.45" shape-rendering="geometricPrecision" transform="matrix(1,0,0,1,268,-267)" stroke-linecap="butt">
      <path fill="none" d="M639.0789 465.3329 L573.8961 532.3154" clip-path="url(#clipPath2)"/>
      <path d="M568.3168 538.0488 L580.2691 532.9358 L574.5935 531.5988 L573.1024 525.9617 Z" clip-path="url(#clipPath2)" stroke="none"/>
      <path fill="none" d="M548.8541 578.0488 L548.8541 659.0908" clip-path="url(#clipPath2)"/>
      <path d="M548.8541 667.0908 L553.8541 655.0908 L548.8541 658.0908 L543.8541 655.0908 Z" clip-path="url(#clipPath2)" stroke="none"/>
      <text x="556.6937" xml:space="preserve" y="618.3331" clip-path="url(#clipPath2)" font-family="sans-serif" stroke="none">typically only rotation,</text>
      <text x="552.6771" xml:space="preserve" y="633.0343" clip-path="url(#clipPath2)" font-family="sans-serif" stroke="none">and translation along Y</text>
      <path fill="none" d="M678.1151 465.3329 L743.6849 532.3313" clip-path="url(#clipPath2)"/>
      <path d="M749.2805 538.0488 L744.4606 525.9753 L742.9855 531.6166 L737.3138 532.9698 Z" clip-path="url(#clipPath2)" stroke="none"/>
    </g>
  </g>
</svg>
